<svg width="23" height="21" viewBox="0 0 23 21" fill="none" xmlns="http://www.w3.org/2000/svg">
<path d="M17.8827 11.9657C17.6577 11.9657 17.5326 11.9657 17.3993 11.9657C12.1316 11.9657 6.86399 11.9573 1.59633 11.9742C0.62115 11.9742 0.129391 11.3596 0.0210374 10.7787C-0.120656 9.98741 0.471122 9.19608 1.26294 9.13715C1.42963 9.12031 1.59633 9.12873 1.76303 9.12873C6.98901 9.12873 12.2067 9.12873 17.4326 9.12873C17.5493 9.12873 17.6743 9.12873 17.8744 9.12873C17.7327 8.9772 17.6493 8.8846 17.566 8.80042C15.674 6.91469 13.7819 5.02055 11.8816 3.13483C11.4648 2.72233 11.2315 2.25932 11.3648 1.66161C11.5899 0.651405 12.7568 0.213648 13.5736 0.819773C13.6986 0.912375 13.807 1.02181 13.9236 1.13125C16.6742 3.86723 19.4163 6.61163 22.1585 9.34761C22.9587 10.1474 22.9587 10.9303 22.1585 11.73C19.3997 14.4828 16.6325 17.2357 13.8736 19.9885C13.2318 20.6283 12.49 20.7209 11.8733 20.2326C11.2481 19.7443 11.1398 18.852 11.6315 18.229C11.7316 18.1027 11.8399 17.9933 11.9483 17.8839C13.8236 16.0066 15.7073 14.1377 17.5827 12.2688C17.666 12.193 17.741 12.1173 17.8827 11.9657Z" fill="#FF7316"/>
</svg>
