<svg width="1449" height="500" viewBox="0 0 1449 500" fill="none" xmlns="http://www.w3.org/2000/svg">
<line x1="483" y1="92.5" x2="377" y2="92.5" stroke="#F5F5F5" stroke-width="3"/>
<circle cx="487.5" cy="92.5" r="7.5" fill="#F5F5F5"/>
<path d="M1205 277.5L1271.5 277.5" stroke="#F5F5F5" stroke-width="3"/>
<path d="M1187 277.5C1187 272.253 1191.25 268 1196.5 268C1201.75 268 1206 272.253 1206 277.5C1206 282.747 1201.75 287 1196.5 287C1191.25 287 1187 282.747 1187 277.5Z" stroke="#F5F5F5" stroke-width="4"/>
<path d="M488 427.936L498.124 438.06L585 438.06" stroke="#EEEEEE" stroke-width="2"/>
<circle cx="594" cy="439" r="9" transform="rotate(-180 594 439)" stroke="#EEEEEE" stroke-width="4"/>
<circle cx="1253.9" cy="404.496" r="68.7306" transform="rotate(2.37467 1253.9 404.496)" fill="white"/>
<path d="M1260.76 343.746C1244.3 341.976 1228.11 346.739 1215.26 357.153C1202.4 367.567 1194.33 382.372 1192.56 398.835C1190.8 415.298 1195.56 431.489 1205.97 444.343C1216.39 457.197 1231.19 465.264 1247.65 467.034C1264.12 468.803 1280.31 464.04 1293.16 453.626C1306.02 443.212 1314.08 428.408 1315.85 411.944C1317.62 395.481 1312.86 379.29 1302.45 366.436C1292.03 353.582 1277.23 345.515 1260.76 343.746ZM1248.37 460.93C1217.68 457.716 1195.54 430.168 1198.75 399.557C1201.96 368.868 1229.51 346.719 1260.12 349.93C1290.81 353.143 1312.96 380.692 1309.75 411.303C1306.53 441.992 1278.98 464.14 1248.37 460.93Z" fill="#F5F5F5"/>
<path d="M1341.66 403.775C1341.64 402.376 1340.68 401.172 1339.37 400.807C1336.76 400.156 1332.84 399.139 1332.39 398.887C1329.94 397.932 1328.59 394.926 1328.76 390.896C1328.86 388.57 1328.86 388.493 1329.99 387.453C1330.39 387.081 1334.23 384.523 1336.54 382.989C1337.66 382.259 1338.19 380.805 1337.77 379.468C1336.82 376.401 1335.7 373.404 1334.42 370.479C1333.85 369.213 1332.56 368.461 1331.16 368.635C1328.04 369.049 1322.81 369.609 1321.97 369.341C1319.45 368.305 1316.76 363.768 1317.03 361.14C1317.15 360.213 1319.96 355.904 1321.7 353.337C1322.45 352.203 1322.36 350.647 1321.54 349.604C1319.47 347.111 1317.32 344.77 1315.01 342.501C1314.04 341.529 1312.57 341.313 1311.3 342.036C1308.44 343.626 1303.43 346.368 1302.35 346.246C1301.12 346.117 1298.01 344.125 1296.68 342.595C1294.75 340.418 1294.53 341.962 1296.38 333.11C1296.38 333.033 1296.57 332.264 1296.75 331.495C1297.04 330.11 1296.4 328.764 1295.19 328.092C1292.38 326.578 1289.48 325.293 1286.58 324.086C1285.28 323.567 1283.79 323.97 1282.97 325.101C1279.1 330.298 1278.05 331.341 1276.93 331.993C1275.9 332.572 1275.51 332.556 1273.04 332.22C1269.88 331.701 1267.76 330.526 1266.97 328.863C1266.76 328.466 1265.86 323.848 1265.36 320.877C1265.11 319.469 1263.91 318.488 1262.52 318.352C1260.04 318.172 1256.09 317.931 1253.06 317.96C1251.66 317.98 1250.46 318.862 1250.09 320.244C1249.27 323.238 1247.9 328.15 1247.57 328.602C1246.67 329.884 1243.84 330.621 1241.02 331.125C1237.66 331.84 1233.93 326.25 1232.04 323.144C1231.32 321.872 1229.86 321.346 1228.45 321.753C1225.54 322.642 1222.7 323.689 1220.01 324.897C1218.59 325.537 1217.82 327.058 1218.23 328.55C1219.17 332.082 1220.24 338.182 1216.43 340.198C1213.97 341.494 1211.97 342.886 1210.42 342.744C1209.57 342.631 1204.96 339.645 1202.32 337.827C1201.18 337.082 1199.63 337.095 1198.58 337.983C1196.17 339.979 1193.83 342.134 1191.56 344.446C1190.59 345.415 1190.37 346.959 1191.1 348.154C1192.76 351.095 1195.64 356.494 1195.36 357.724C1194.61 360.799 1191.36 364.313 1189.1 364.53C1188.55 364.585 1183.39 363.594 1180.31 362.923C1179.01 362.636 1177.58 363.276 1176.99 364.494C1175.55 367.229 1174.19 370.123 1173.06 373.104C1172.54 374.402 1172.94 375.894 1174.07 376.717C1176.33 378.364 1179.8 380.991 1180.17 381.395C1181.66 382.854 1181.93 383.952 1181.49 387.04C1180.97 390.046 1180.05 391.793 1178.46 392.659C1178.06 392.876 1172.97 393.907 1169.84 394.476C1168.44 394.728 1167.45 395.929 1167.32 397.321C1167.14 399.798 1166.98 403.673 1166.93 406.699C1166.95 408.098 1167.83 409.299 1169.21 409.667C1172.21 410.49 1177.27 411.864 1177.8 412.197C1179.16 413.107 1180.22 415.635 1180.49 418.519C1180.65 420.234 1180.56 420.696 1179.89 421.91C1179.38 422.821 1174.75 426.045 1172.03 427.873C1170.91 428.603 1170.39 430.056 1170.8 431.393C1171.76 434.383 1172.8 437.299 1174.08 440.225C1174.65 441.49 1175.94 442.243 1177.34 442.068C1180.23 441.644 1184.76 440.978 1185.08 440.914C1188.2 440.577 1192.69 446.353 1191.92 449.893C1191.74 450.584 1188.76 455.119 1186.94 457.76C1186.19 458.894 1186.29 460.373 1187.17 461.497C1189.17 463.909 1191.33 466.172 1193.56 468.361C1194.53 469.333 1196.08 469.552 1197.27 468.825C1200.21 467.162 1205.54 464.199 1206.47 464.315C1208.55 464.557 1212.07 467.731 1213.48 469.342C1214.89 470.953 1213.5 476.33 1212.51 479.473C1212.06 480.929 1212.7 482.431 1214.07 483.108C1216.73 484.539 1219.55 485.742 1222.38 486.869C1223.68 487.389 1225.17 486.985 1225.99 485.854C1227.71 483.597 1230.43 479.982 1230.75 479.608C1232.05 478.187 1233.54 477.86 1236.55 478.373C1239.33 478.799 1241.22 479.887 1242.09 481.398C1242.31 481.718 1243.34 486.884 1243.91 489.936C1244.16 491.344 1245.36 492.325 1246.76 492.383C1249.24 492.563 1253.11 492.724 1256.14 492.772C1257.54 492.752 1258.74 491.87 1259.1 490.488C1260.01 487.265 1261.73 481.513 1262.85 480.706C1265.01 479.088 1270.46 478.77 1272.18 480.239C1272.48 480.484 1275.48 484.956 1277.16 487.588C1277.89 488.705 1279.34 489.231 1280.68 488.821C1283.75 487.861 1286.67 486.74 1289.59 485.464C1290.86 484.895 1291.61 483.607 1291.43 482.279C1291.09 479.315 1290.44 474.474 1290.54 473.858C1290.77 471.926 1292.08 470.428 1294.86 468.913C1297.08 467.763 1298.57 467.436 1299.94 467.959C1300.25 468.049 1304.4 470.861 1306.89 472.595C1308.03 473.418 1309.58 473.327 1310.63 472.439C1313.04 470.365 1315.38 468.211 1317.58 465.895C1318.55 464.926 1318.69 463.379 1318.04 462.188C1316.52 459.563 1313.99 455.033 1313.93 454.564C1313.6 453.076 1314.14 451.467 1315.54 449.429C1317.44 446.791 1319.27 445.702 1321.35 445.944C1321.82 445.963 1325.97 446.912 1328.59 447.486C1329.97 447.776 1331.32 447.133 1331.99 445.919C1333.43 443.106 1334.79 440.212 1335.92 437.231C1336.44 435.933 1336.04 434.441 1334.91 433.618C1332.57 431.891 1328.96 429.101 1328.67 428.701C1327.49 427.255 1327.17 425.456 1327.9 422.769C1328.64 420.005 1329.48 418.487 1330.9 417.847C1331.3 417.631 1336 416.738 1338.97 416.163C1340.38 415.911 1341.36 414.709 1341.5 413.317C1341.44 410.831 1341.61 406.878 1341.66 403.775ZM1247.25 471.131C1210.92 467.295 1184.63 434.762 1188.47 398.431C1192.3 362.101 1224.84 335.811 1261.17 339.647C1297.5 343.483 1323.79 376.016 1319.95 412.346C1316.12 448.677 1283.58 475.044 1247.25 471.131Z" fill="#F5F5F5"/>
<circle cx="1076.75" cy="346.336" r="83.6821" fill="white"/>
<path d="M1027.69 291.069C1042.7 277.84 1062.03 271.273 1082.01 272.587C1102 273.9 1120.29 282.907 1133.52 297.919C1146.75 312.93 1153.31 332.255 1152 352.239C1150.69 372.224 1141.68 390.518 1126.67 403.747C1111.66 416.976 1092.33 423.543 1072.35 422.229C1052.36 420.916 1034.07 411.91 1020.84 396.897C1007.61 381.886 1001.04 362.561 1002.36 342.577C1003.67 322.592 1012.68 304.298 1027.69 291.069ZM1008.92 343.079C1006.54 380.753 1035.08 413.387 1072.85 415.766C1110.52 418.144 1143.16 389.603 1145.54 351.831C1147.92 314.157 1119.37 281.523 1081.6 279.144C1043.93 276.766 1011.29 305.307 1008.92 343.079Z" stroke="#DDDDDD"/>
<mask id="path-12-inside-1_12_15910" fill="white">
<path d="M1183.48 341.032C1183.38 339.332 1182.16 337.915 1180.55 337.538C1177.34 336.877 1172.52 335.838 1171.96 335.554C1168.93 334.515 1167.14 330.927 1167.14 326.015C1167.14 323.182 1167.14 323.088 1168.46 321.765C1168.93 321.293 1173.47 317.988 1176.21 316.004C1177.53 315.06 1178.09 313.265 1177.53 311.66C1176.21 307.976 1174.69 304.387 1172.99 300.893C1172.24 299.382 1170.63 298.532 1168.93 298.815C1165.16 299.476 1158.83 300.421 1157.79 300.137C1154.67 299.004 1151.18 293.621 1151.37 290.409C1151.46 289.276 1154.67 283.893 1156.66 280.682C1157.51 279.265 1157.32 277.376 1156.28 276.148C1153.63 273.22 1150.89 270.482 1147.97 267.837C1146.74 266.704 1144.94 266.515 1143.43 267.459C1140.03 269.537 1134.08 273.126 1132.76 273.032C1131.25 272.937 1127.38 270.67 1125.68 268.876C1123.22 266.326 1123.03 268.215 1124.83 257.354C1124.83 257.259 1125.02 256.315 1125.21 255.37C1125.49 253.67 1124.64 252.065 1123.13 251.309C1119.63 249.609 1116.04 248.192 1112.46 246.87C1110.85 246.304 1109.06 246.87 1108.11 248.287C1103.67 254.804 1102.44 256.126 1101.12 256.976C1099.89 257.731 1099.42 257.731 1096.4 257.448C1092.53 256.976 1089.88 255.654 1088.84 253.67C1088.56 253.198 1087.24 247.626 1086.48 244.037C1086.11 242.337 1084.59 241.204 1082.89 241.109C1079.87 241.015 1075.06 240.92 1071.37 241.109C1069.67 241.204 1068.26 242.337 1067.88 244.037C1067.03 247.72 1065.61 253.765 1065.23 254.331C1064.19 255.937 1060.79 256.976 1057.39 257.731C1053.33 258.77 1048.52 252.159 1046.06 248.476C1045.12 246.965 1043.32 246.398 1041.62 246.965C1038.13 248.192 1034.73 249.609 1031.52 251.215C1029.82 252.065 1028.97 253.954 1029.53 255.748C1030.85 259.998 1032.46 267.365 1027.93 270.009C1025 271.709 1022.64 273.504 1020.75 273.409C1019.71 273.315 1013.95 269.915 1010.64 267.837C1009.23 266.987 1007.34 267.081 1006.11 268.215C1003.28 270.765 1000.54 273.504 997.893 276.432C996.76 277.659 996.571 279.548 997.516 280.965C999.688 284.459 1003.47 290.882 1003.18 292.393C1002.43 296.171 998.649 300.61 995.91 300.987C995.249 301.082 988.921 300.137 985.143 299.476C983.538 299.193 981.838 300.043 981.176 301.554C979.571 304.954 978.06 308.543 976.832 312.226C976.265 313.832 976.832 315.626 978.249 316.571C981.082 318.46 985.427 321.482 985.899 321.954C987.788 323.654 988.165 324.976 987.788 328.754C987.315 332.438 986.277 334.61 984.388 335.743C983.915 336.027 977.776 337.538 973.999 338.388C972.299 338.765 971.165 340.277 971.071 341.977C970.976 344.999 970.976 349.721 971.071 353.405C971.165 355.105 972.299 356.521 973.999 356.899C977.682 357.749 983.915 359.166 984.576 359.543C986.277 360.582 987.693 363.605 988.165 367.099C988.449 369.177 988.354 369.744 987.599 371.255C987.032 372.388 981.554 376.544 978.343 378.905C977.021 379.849 976.454 381.644 977.021 383.249C978.343 386.838 979.76 390.333 981.46 393.827C982.215 395.338 983.821 396.188 985.521 395.905C989.015 395.244 994.493 394.205 994.871 394.11C998.649 393.544 1004.41 400.344 1003.65 404.688C1003.47 405.538 1000.07 411.205 997.988 414.511C997.138 415.927 997.327 417.722 998.46 419.044C1001.01 421.877 1003.75 424.522 1006.58 427.072C1007.81 428.205 1009.7 428.394 1011.12 427.45C1014.61 425.277 1020.94 421.405 1022.07 421.5C1024.62 421.688 1029.06 425.372 1030.85 427.261C1032.65 429.15 1031.23 435.761 1030.19 439.633C1029.72 441.428 1030.57 443.222 1032.27 443.978C1035.58 445.583 1039.07 446.905 1042.57 448.133C1044.17 448.7 1045.97 448.133 1046.91 446.716C1048.89 443.883 1052.01 439.35 1052.39 438.878C1053.9 437.083 1055.69 436.611 1059.38 437.083C1062.78 437.461 1065.14 438.689 1066.27 440.483C1066.56 440.861 1068.07 447.094 1068.92 450.778C1069.29 452.478 1070.81 453.611 1072.51 453.611C1075.53 453.705 1080.25 453.705 1083.93 453.611C1085.63 453.516 1087.05 452.383 1087.43 450.683C1088.37 446.716 1090.17 439.633 1091.49 438.594C1094.04 436.516 1100.65 435.855 1102.82 437.555C1103.2 437.839 1107.07 443.128 1109.24 446.244C1110.19 447.566 1111.98 448.133 1113.59 447.566C1117.27 446.244 1120.77 444.733 1124.26 443.033C1125.77 442.278 1126.62 440.672 1126.34 439.066C1125.77 435.477 1124.73 429.622 1124.83 428.866C1125.02 426.505 1126.53 424.616 1129.83 422.633C1132.48 421.122 1134.27 420.65 1135.97 421.216C1136.35 421.311 1141.54 424.522 1144.66 426.505C1146.08 427.45 1147.97 427.261 1149.19 426.127C1152.03 423.483 1154.77 420.744 1157.32 417.816C1158.45 416.588 1158.54 414.7 1157.69 413.283C1155.71 410.166 1152.41 404.783 1152.31 404.216C1151.84 402.422 1152.41 400.438 1154.01 397.888C1156.18 394.583 1158.36 393.166 1160.91 393.355C1161.47 393.355 1166.57 394.299 1169.78 394.866C1171.48 395.149 1173.09 394.299 1173.84 392.788C1175.45 389.294 1176.96 385.705 1178.19 382.021C1178.76 380.416 1178.19 378.621 1176.77 377.677C1173.84 375.694 1169.31 372.482 1168.93 372.01C1167.42 370.31 1166.95 368.138 1167.71 364.832C1168.46 361.432 1169.41 359.543 1171.11 358.693C1171.58 358.41 1177.24 357.088 1180.83 356.238C1182.53 355.86 1183.67 354.349 1183.76 352.649C1183.57 349.627 1183.57 344.81 1183.48 341.032ZM1072.03 427.733C1027.64 424.9 994.021 386.649 996.854 342.26C999.688 297.871 1037.94 264.248 1082.33 267.082C1126.72 269.915 1160.34 308.165 1157.51 352.555C1154.67 396.944 1116.42 430.661 1072.03 427.733Z"/>
</mask>
<path d="M1183.48 341.032C1183.38 339.332 1182.16 337.915 1180.55 337.538C1177.34 336.877 1172.52 335.838 1171.96 335.554C1168.93 334.515 1167.14 330.927 1167.14 326.015C1167.14 323.182 1167.14 323.088 1168.46 321.765C1168.93 321.293 1173.47 317.988 1176.21 316.004C1177.53 315.06 1178.09 313.265 1177.53 311.66C1176.21 307.976 1174.69 304.387 1172.99 300.893C1172.24 299.382 1170.63 298.532 1168.93 298.815C1165.16 299.476 1158.83 300.421 1157.79 300.137C1154.67 299.004 1151.18 293.621 1151.37 290.409C1151.46 289.276 1154.67 283.893 1156.66 280.682C1157.51 279.265 1157.32 277.376 1156.28 276.148C1153.63 273.22 1150.89 270.482 1147.97 267.837C1146.74 266.704 1144.94 266.515 1143.43 267.459C1140.03 269.537 1134.08 273.126 1132.76 273.032C1131.25 272.937 1127.38 270.67 1125.68 268.876C1123.22 266.326 1123.03 268.215 1124.83 257.354C1124.83 257.259 1125.02 256.315 1125.21 255.37C1125.49 253.67 1124.64 252.065 1123.13 251.309C1119.63 249.609 1116.04 248.192 1112.46 246.87C1110.85 246.304 1109.06 246.87 1108.11 248.287C1103.67 254.804 1102.44 256.126 1101.12 256.976C1099.89 257.731 1099.42 257.731 1096.4 257.448C1092.53 256.976 1089.88 255.654 1088.84 253.67C1088.56 253.198 1087.24 247.626 1086.48 244.037C1086.11 242.337 1084.59 241.204 1082.89 241.109C1079.87 241.015 1075.06 240.92 1071.37 241.109C1069.67 241.204 1068.26 242.337 1067.88 244.037C1067.03 247.72 1065.61 253.765 1065.23 254.331C1064.19 255.937 1060.79 256.976 1057.39 257.731C1053.33 258.77 1048.52 252.159 1046.06 248.476C1045.12 246.965 1043.32 246.398 1041.62 246.965C1038.13 248.192 1034.73 249.609 1031.52 251.215C1029.82 252.065 1028.97 253.954 1029.53 255.748C1030.85 259.998 1032.46 267.365 1027.93 270.009C1025 271.709 1022.64 273.504 1020.75 273.409C1019.71 273.315 1013.95 269.915 1010.64 267.837C1009.23 266.987 1007.34 267.081 1006.11 268.215C1003.28 270.765 1000.54 273.504 997.893 276.432C996.76 277.659 996.571 279.548 997.516 280.965C999.688 284.459 1003.47 290.882 1003.18 292.393C1002.43 296.171 998.649 300.61 995.91 300.987C995.249 301.082 988.921 300.137 985.143 299.476C983.538 299.193 981.838 300.043 981.176 301.554C979.571 304.954 978.06 308.543 976.832 312.226C976.265 313.832 976.832 315.626 978.249 316.571C981.082 318.46 985.427 321.482 985.899 321.954C987.788 323.654 988.165 324.976 987.788 328.754C987.315 332.438 986.277 334.61 984.388 335.743C983.915 336.027 977.776 337.538 973.999 338.388C972.299 338.765 971.165 340.277 971.071 341.977C970.976 344.999 970.976 349.721 971.071 353.405C971.165 355.105 972.299 356.521 973.999 356.899C977.682 357.749 983.915 359.166 984.576 359.543C986.277 360.582 987.693 363.605 988.165 367.099C988.449 369.177 988.354 369.744 987.599 371.255C987.032 372.388 981.554 376.544 978.343 378.905C977.021 379.849 976.454 381.644 977.021 383.249C978.343 386.838 979.76 390.333 981.46 393.827C982.215 395.338 983.821 396.188 985.521 395.905C989.015 395.244 994.493 394.205 994.871 394.11C998.649 393.544 1004.41 400.344 1003.65 404.688C1003.47 405.538 1000.07 411.205 997.988 414.511C997.138 415.927 997.327 417.722 998.46 419.044C1001.01 421.877 1003.75 424.522 1006.58 427.072C1007.81 428.205 1009.7 428.394 1011.12 427.45C1014.61 425.277 1020.94 421.405 1022.07 421.5C1024.62 421.688 1029.06 425.372 1030.85 427.261C1032.65 429.15 1031.23 435.761 1030.19 439.633C1029.72 441.428 1030.57 443.222 1032.27 443.978C1035.58 445.583 1039.07 446.905 1042.57 448.133C1044.17 448.7 1045.97 448.133 1046.91 446.716C1048.89 443.883 1052.01 439.35 1052.39 438.878C1053.9 437.083 1055.69 436.611 1059.38 437.083C1062.78 437.461 1065.14 438.689 1066.27 440.483C1066.56 440.861 1068.07 447.094 1068.92 450.778C1069.29 452.478 1070.81 453.611 1072.51 453.611C1075.53 453.705 1080.25 453.705 1083.93 453.611C1085.63 453.516 1087.05 452.383 1087.43 450.683C1088.37 446.716 1090.17 439.633 1091.49 438.594C1094.04 436.516 1100.65 435.855 1102.82 437.555C1103.2 437.839 1107.07 443.128 1109.24 446.244C1110.19 447.566 1111.98 448.133 1113.59 447.566C1117.27 446.244 1120.77 444.733 1124.26 443.033C1125.77 442.278 1126.62 440.672 1126.34 439.066C1125.77 435.477 1124.73 429.622 1124.83 428.866C1125.02 426.505 1126.53 424.616 1129.83 422.633C1132.48 421.122 1134.27 420.65 1135.97 421.216C1136.35 421.311 1141.54 424.522 1144.66 426.505C1146.08 427.45 1147.97 427.261 1149.19 426.127C1152.03 423.483 1154.77 420.744 1157.32 417.816C1158.45 416.588 1158.54 414.7 1157.69 413.283C1155.71 410.166 1152.41 404.783 1152.31 404.216C1151.84 402.422 1152.41 400.438 1154.01 397.888C1156.18 394.583 1158.36 393.166 1160.91 393.355C1161.47 393.355 1166.57 394.299 1169.78 394.866C1171.48 395.149 1173.09 394.299 1173.84 392.788C1175.45 389.294 1176.96 385.705 1178.19 382.021C1178.76 380.416 1178.19 378.621 1176.77 377.677C1173.84 375.694 1169.31 372.482 1168.93 372.01C1167.42 370.31 1166.95 368.138 1167.71 364.832C1168.46 361.432 1169.41 359.543 1171.11 358.693C1171.58 358.41 1177.24 357.088 1180.83 356.238C1182.53 355.86 1183.67 354.349 1183.76 352.649C1183.57 349.627 1183.57 344.81 1183.48 341.032ZM1072.03 427.733C1027.64 424.9 994.021 386.649 996.854 342.26C999.688 297.871 1037.94 264.248 1082.33 267.082C1126.72 269.915 1160.34 308.165 1157.51 352.555C1154.67 396.944 1116.42 430.661 1072.03 427.733Z" stroke="#DDDDDD" stroke-width="2" mask="url(#path-12-inside-1_12_15910)"/>
<circle cx="1097.7" cy="138.251" r="90.7644" fill="white"/>
<path d="M1044.46 78.2746C1060.75 63.919 1081.72 56.7926 1103.41 58.218C1125.1 59.6435 1144.95 69.417 1159.31 85.7081C1173.66 101.998 1180.79 122.97 1179.36 144.657C1177.94 166.344 1168.16 186.197 1151.87 200.553C1135.58 214.909 1114.61 222.035 1092.92 220.61C1071.24 219.184 1051.38 209.411 1037.03 193.12C1022.67 176.83 1015.54 155.858 1016.97 134.171C1018.4 112.484 1028.17 92.6312 1044.46 78.2746ZM1024.17 134.721C1021.59 175.561 1052.53 210.937 1093.47 213.515C1134.31 216.093 1169.69 185.154 1172.27 144.209C1174.85 103.369 1143.91 67.9936 1102.96 65.4152C1062.12 62.8369 1026.75 93.7759 1024.17 134.721Z" stroke="#DDDDDD"/>
<mask id="path-15-inside-2_12_15910" fill="white">
<path d="M1213.46 132.498C1213.36 130.654 1212.03 129.118 1210.29 128.708C1206.8 127.991 1201.58 126.864 1200.96 126.557C1197.69 125.43 1195.74 121.537 1195.74 116.211C1195.74 113.137 1195.74 113.035 1197.17 111.601C1197.69 111.089 1202.6 107.503 1205.57 105.352C1207.01 104.328 1207.62 102.381 1207.01 100.64C1205.57 96.6448 1203.93 92.7521 1202.09 88.9619C1201.27 87.3228 1199.53 86.4009 1197.69 86.7082C1193.59 87.4253 1186.72 88.4497 1185.6 88.1424C1182.22 86.9131 1178.43 81.0741 1178.63 77.5912C1178.73 76.3619 1182.22 70.5229 1184.37 67.04C1185.29 65.5034 1185.09 63.4547 1183.96 62.123C1181.09 58.9474 1178.12 55.9767 1174.94 53.1084C1173.61 51.8791 1171.67 51.6742 1170.03 52.6986C1166.34 54.9523 1159.89 58.8449 1158.45 58.7425C1156.81 58.6401 1152.61 56.1815 1150.77 54.2352C1148.11 51.4694 1147.9 53.5181 1149.85 41.7377C1149.85 41.6353 1150.05 40.6109 1150.26 39.5865C1150.56 37.7426 1149.64 36.0011 1148 35.1816C1144.21 33.3377 1140.32 31.8012 1136.43 30.367C1134.69 29.7524 1132.74 30.367 1131.72 31.9036C1126.9 38.9719 1125.57 40.406 1124.13 41.3279C1122.8 42.1475 1122.29 42.1475 1119.01 41.8401C1114.81 41.3279 1111.94 39.8938 1110.82 37.7426C1110.51 37.2304 1109.08 31.1866 1108.26 27.2939C1107.85 25.45 1106.21 24.2207 1104.36 24.1183C1101.09 24.0158 1095.86 23.9134 1091.87 24.1183C1090.02 24.2207 1088.49 25.45 1088.08 27.2939C1087.15 31.289 1085.62 37.845 1085.21 38.4597C1084.08 40.2011 1080.39 41.328 1076.71 42.1475C1072.3 43.2743 1067.08 36.1036 1064.41 32.1085C1063.39 30.4695 1061.44 29.8548 1059.6 30.4695C1055.81 31.8012 1052.12 33.3377 1048.64 35.0792C1046.79 36.0011 1045.87 38.0499 1046.49 39.9963C1047.92 44.606 1049.66 52.5962 1044.74 55.4645C1041.57 57.3084 1039.01 59.2547 1036.96 59.1522C1035.83 59.0498 1029.58 55.362 1026 53.1084C1024.46 52.1864 1022.41 52.2889 1021.08 53.5181C1018.01 56.284 1015.04 59.2547 1012.17 62.4303C1010.94 63.762 1010.74 65.8108 1011.76 67.3473C1014.12 71.1376 1018.21 78.1034 1017.91 79.7424C1017.09 83.8399 1012.99 88.6546 1010.02 89.0643C1009.3 89.1667 1002.44 88.1424 998.34 87.4253C996.599 87.118 994.755 88.0399 994.038 89.6789C992.296 93.3667 990.657 97.2594 989.326 101.254C988.711 102.996 989.326 104.942 990.862 105.967C993.935 108.015 998.647 111.293 999.16 111.806C1001.21 113.65 1001.62 115.084 1001.21 119.181C1000.7 123.176 999.569 125.532 997.521 126.762C997.009 127.069 990.35 128.708 986.252 129.63C984.409 130.04 983.179 131.679 983.077 133.523C982.974 136.801 982.974 141.923 983.077 145.918C983.179 147.762 984.409 149.298 986.252 149.708C990.248 150.63 997.008 152.166 997.726 152.576C999.569 153.703 1001.11 156.981 1001.62 160.771C1001.93 163.025 1001.82 163.64 1001 165.279C1000.39 166.508 994.448 171.015 990.965 173.576C989.53 174.6 988.916 176.547 989.53 178.288C990.965 182.181 992.501 185.971 994.345 189.761C995.165 191.4 996.906 192.322 998.75 192.015C1002.54 191.298 1008.48 190.171 1008.89 190.069C1012.99 189.454 1019.24 196.83 1018.42 201.542C1018.21 202.464 1014.53 208.61 1012.27 212.195C1011.35 213.732 1011.55 215.678 1012.78 217.112C1015.55 220.186 1018.52 223.054 1021.59 225.82C1022.93 227.049 1024.97 227.254 1026.51 226.23C1030.3 223.873 1037.16 219.673 1038.39 219.776C1041.16 219.981 1045.97 223.976 1047.92 226.025C1049.87 228.073 1048.33 235.244 1047.2 239.444C1046.69 241.39 1047.61 243.337 1049.46 244.156C1053.04 245.898 1056.83 247.332 1060.62 248.664C1062.36 249.278 1064.31 248.664 1065.33 247.127C1067.49 244.054 1070.87 239.137 1071.28 238.625C1072.92 236.678 1074.86 236.166 1078.86 236.678C1082.54 237.088 1085.11 238.42 1086.33 240.366C1086.64 240.776 1088.28 247.537 1089.2 251.532C1089.61 253.376 1091.25 254.605 1093.1 254.605C1096.37 254.707 1101.5 254.707 1105.49 254.605C1107.33 254.503 1108.87 253.273 1109.28 251.429C1110.31 247.127 1112.25 239.444 1113.69 238.317C1116.45 236.064 1123.62 235.346 1125.98 237.19C1126.39 237.498 1130.59 243.234 1132.94 246.615C1133.97 248.049 1135.92 248.664 1137.66 248.049C1141.65 246.615 1145.44 244.976 1149.23 243.132C1150.87 242.312 1151.79 240.571 1151.49 238.829C1150.87 234.937 1149.74 228.586 1149.85 227.766C1150.05 225.205 1151.69 223.156 1155.28 221.005C1158.14 219.366 1160.09 218.854 1161.93 219.469C1162.34 219.571 1167.98 223.054 1171.36 225.205C1172.9 226.23 1174.94 226.025 1176.28 224.795C1179.35 221.927 1182.32 218.956 1185.09 215.781C1186.31 214.449 1186.42 212.4 1185.5 210.864C1183.34 207.483 1179.76 201.644 1179.66 201.03C1179.14 199.083 1179.76 196.932 1181.5 194.166C1183.86 190.581 1186.21 189.044 1188.98 189.249C1189.59 189.249 1195.12 190.274 1198.61 190.888C1200.45 191.196 1202.19 190.274 1203.01 188.635C1204.75 184.844 1206.39 180.952 1207.72 176.957C1208.34 175.215 1207.72 173.269 1206.19 172.244C1203.01 170.093 1198.1 166.61 1197.69 166.098C1196.05 164.254 1195.53 161.898 1196.35 158.313C1197.17 154.625 1198.2 152.576 1200.04 151.654C1200.55 151.347 1206.7 149.913 1210.59 148.991C1212.44 148.581 1213.67 146.942 1213.77 145.098C1213.56 141.82 1213.56 136.596 1213.46 132.498ZM1092.58 226.537C1044.44 223.464 1007.97 181.976 1011.04 133.83C1014.12 85.6839 1055.6 49.2157 1103.75 52.2889C1151.9 55.362 1188.36 96.8496 1185.29 144.996C1182.22 193.142 1140.73 229.712 1092.58 226.537Z"/>
</mask>
<path d="M1213.46 132.498C1213.36 130.654 1212.03 129.118 1210.29 128.708C1206.8 127.991 1201.58 126.864 1200.96 126.557C1197.69 125.43 1195.74 121.537 1195.74 116.211C1195.74 113.137 1195.74 113.035 1197.17 111.601C1197.69 111.089 1202.6 107.503 1205.57 105.352C1207.01 104.328 1207.62 102.381 1207.01 100.64C1205.57 96.6448 1203.93 92.7521 1202.09 88.9619C1201.27 87.3228 1199.53 86.4009 1197.69 86.7082C1193.59 87.4253 1186.72 88.4497 1185.6 88.1424C1182.22 86.9131 1178.43 81.0741 1178.63 77.5912C1178.73 76.3619 1182.22 70.5229 1184.37 67.04C1185.29 65.5034 1185.09 63.4547 1183.96 62.123C1181.09 58.9474 1178.12 55.9767 1174.94 53.1084C1173.61 51.8791 1171.67 51.6742 1170.03 52.6986C1166.34 54.9523 1159.89 58.8449 1158.45 58.7425C1156.81 58.6401 1152.61 56.1815 1150.77 54.2352C1148.11 51.4694 1147.9 53.5181 1149.85 41.7377C1149.85 41.6353 1150.05 40.6109 1150.26 39.5865C1150.56 37.7426 1149.64 36.0011 1148 35.1816C1144.21 33.3377 1140.32 31.8012 1136.43 30.367C1134.69 29.7524 1132.74 30.367 1131.72 31.9036C1126.9 38.9719 1125.57 40.406 1124.13 41.3279C1122.8 42.1475 1122.29 42.1475 1119.01 41.8401C1114.81 41.3279 1111.94 39.8938 1110.82 37.7426C1110.51 37.2304 1109.08 31.1866 1108.26 27.2939C1107.85 25.45 1106.21 24.2207 1104.36 24.1183C1101.09 24.0158 1095.86 23.9134 1091.87 24.1183C1090.02 24.2207 1088.49 25.45 1088.08 27.2939C1087.15 31.289 1085.62 37.845 1085.21 38.4597C1084.08 40.2011 1080.39 41.328 1076.71 42.1475C1072.3 43.2743 1067.08 36.1036 1064.41 32.1085C1063.39 30.4695 1061.44 29.8548 1059.6 30.4695C1055.81 31.8012 1052.12 33.3377 1048.64 35.0792C1046.79 36.0011 1045.87 38.0499 1046.49 39.9963C1047.92 44.606 1049.66 52.5962 1044.74 55.4645C1041.57 57.3084 1039.01 59.2547 1036.96 59.1522C1035.83 59.0498 1029.58 55.362 1026 53.1084C1024.46 52.1864 1022.41 52.2889 1021.08 53.5181C1018.01 56.284 1015.04 59.2547 1012.17 62.4303C1010.94 63.762 1010.74 65.8108 1011.76 67.3473C1014.12 71.1376 1018.21 78.1034 1017.91 79.7424C1017.09 83.8399 1012.99 88.6546 1010.02 89.0643C1009.3 89.1667 1002.44 88.1424 998.34 87.4253C996.599 87.118 994.755 88.0399 994.038 89.6789C992.296 93.3667 990.657 97.2594 989.326 101.254C988.711 102.996 989.326 104.942 990.862 105.967C993.935 108.015 998.647 111.293 999.16 111.806C1001.21 113.65 1001.62 115.084 1001.21 119.181C1000.7 123.176 999.569 125.532 997.521 126.762C997.009 127.069 990.35 128.708 986.252 129.63C984.409 130.04 983.179 131.679 983.077 133.523C982.974 136.801 982.974 141.923 983.077 145.918C983.179 147.762 984.409 149.298 986.252 149.708C990.248 150.63 997.008 152.166 997.726 152.576C999.569 153.703 1001.11 156.981 1001.62 160.771C1001.93 163.025 1001.82 163.64 1001 165.279C1000.39 166.508 994.448 171.015 990.965 173.576C989.53 174.6 988.916 176.547 989.53 178.288C990.965 182.181 992.501 185.971 994.345 189.761C995.165 191.4 996.906 192.322 998.75 192.015C1002.54 191.298 1008.48 190.171 1008.89 190.069C1012.99 189.454 1019.24 196.83 1018.42 201.542C1018.21 202.464 1014.53 208.61 1012.27 212.195C1011.35 213.732 1011.55 215.678 1012.78 217.112C1015.55 220.186 1018.52 223.054 1021.59 225.82C1022.93 227.049 1024.97 227.254 1026.51 226.23C1030.3 223.873 1037.16 219.673 1038.39 219.776C1041.16 219.981 1045.97 223.976 1047.92 226.025C1049.87 228.073 1048.33 235.244 1047.2 239.444C1046.69 241.39 1047.61 243.337 1049.46 244.156C1053.04 245.898 1056.83 247.332 1060.62 248.664C1062.36 249.278 1064.31 248.664 1065.33 247.127C1067.49 244.054 1070.87 239.137 1071.28 238.625C1072.92 236.678 1074.86 236.166 1078.86 236.678C1082.54 237.088 1085.11 238.42 1086.33 240.366C1086.64 240.776 1088.28 247.537 1089.2 251.532C1089.61 253.376 1091.25 254.605 1093.1 254.605C1096.37 254.707 1101.5 254.707 1105.49 254.605C1107.33 254.503 1108.87 253.273 1109.28 251.429C1110.31 247.127 1112.25 239.444 1113.69 238.317C1116.45 236.064 1123.62 235.346 1125.98 237.19C1126.39 237.498 1130.59 243.234 1132.94 246.615C1133.97 248.049 1135.92 248.664 1137.66 248.049C1141.65 246.615 1145.44 244.976 1149.23 243.132C1150.87 242.312 1151.79 240.571 1151.49 238.829C1150.87 234.937 1149.74 228.586 1149.85 227.766C1150.05 225.205 1151.69 223.156 1155.28 221.005C1158.14 219.366 1160.09 218.854 1161.93 219.469C1162.34 219.571 1167.98 223.054 1171.36 225.205C1172.9 226.23 1174.94 226.025 1176.28 224.795C1179.35 221.927 1182.32 218.956 1185.09 215.781C1186.31 214.449 1186.42 212.4 1185.5 210.864C1183.34 207.483 1179.76 201.644 1179.66 201.03C1179.14 199.083 1179.76 196.932 1181.5 194.166C1183.86 190.581 1186.21 189.044 1188.98 189.249C1189.59 189.249 1195.12 190.274 1198.61 190.888C1200.45 191.196 1202.19 190.274 1203.01 188.635C1204.75 184.844 1206.39 180.952 1207.72 176.957C1208.34 175.215 1207.72 173.269 1206.19 172.244C1203.01 170.093 1198.1 166.61 1197.69 166.098C1196.05 164.254 1195.53 161.898 1196.35 158.313C1197.17 154.625 1198.2 152.576 1200.04 151.654C1200.55 151.347 1206.7 149.913 1210.59 148.991C1212.44 148.581 1213.67 146.942 1213.77 145.098C1213.56 141.82 1213.56 136.596 1213.46 132.498ZM1092.58 226.537C1044.44 223.464 1007.97 181.976 1011.04 133.83C1014.12 85.6839 1055.6 49.2157 1103.75 52.2889C1151.9 55.362 1188.36 96.8496 1185.29 144.996C1182.22 193.142 1140.73 229.712 1092.58 226.537Z" stroke="#DDDDDD" stroke-width="2" mask="url(#path-15-inside-2_12_15910)"/>
<circle cx="1097.5" cy="138.5" r="19" stroke="#DDDDDD"/>
<circle cx="781.437" cy="221.656" r="157.023" fill="white"/>
<circle cx="780.5" cy="222.5" r="38" stroke="#DDDDDD"/>
<path d="M689.087 117.62C717.342 92.7206 753.718 80.3595 791.334 82.8319C828.95 85.3043 863.384 102.257 888.285 130.513C913.185 158.768 925.546 195.144 923.074 232.76C920.601 270.375 903.649 304.81 875.393 329.711C847.138 354.611 810.761 366.972 773.146 364.499C735.53 362.027 701.095 345.075 676.194 316.818C651.295 288.563 638.934 252.187 641.406 214.572C643.879 176.956 660.831 142.521 689.087 117.62ZM654.586 215.571C650.138 286.023 703.511 347.049 774.145 351.497C844.598 355.945 905.623 302.571 910.071 231.938C914.519 161.485 861.146 100.459 790.512 96.0115C720.059 91.5638 659.034 144.937 654.586 215.571Z" stroke="#DDDDDD"/>
<mask id="path-20-inside-3_12_15910" fill="white">
<path d="M981.7 211.703C981.523 208.513 979.219 205.855 976.206 205.146C970.181 203.905 961.142 201.956 960.079 201.424C954.408 199.475 951.041 192.741 951.041 183.525C951.041 178.209 951.041 178.031 953.522 175.55C954.408 174.664 962.915 168.461 968.054 164.74C970.535 162.968 971.598 159.6 970.535 156.588C968.054 149.676 965.218 142.942 962.028 136.385C960.611 133.549 957.598 131.954 954.408 132.486C947.319 133.726 935.446 135.499 933.496 134.967C927.648 132.84 921.091 122.739 921.445 116.713C921.622 114.587 927.648 104.485 931.37 98.4597C932.964 95.8014 932.61 92.257 930.661 89.9531C925.699 84.4593 920.559 79.3199 915.065 74.3578C912.761 72.2311 909.394 71.8767 906.559 73.6489C900.179 77.5477 889.014 84.2821 886.533 84.1049C883.697 83.9276 876.431 79.6744 873.241 76.3072C868.634 71.5223 868.279 75.0666 871.646 54.6864C871.646 54.5092 872.001 52.737 872.355 50.9648C872.887 47.7749 871.292 44.7621 868.457 43.3443C861.899 40.1544 855.165 37.4961 848.431 35.015C845.418 33.9517 842.051 35.015 840.279 37.6733C831.949 49.9015 829.645 52.3825 827.164 53.9775C824.861 55.3953 823.974 55.3953 818.303 54.8636C811.037 53.9775 806.075 51.4964 804.126 47.7748C803.594 46.8887 801.113 36.4328 799.695 29.6985C798.986 26.5085 796.151 24.3819 792.961 24.2046C787.29 24.0274 778.252 23.8502 771.34 24.2046C768.15 24.3819 765.492 26.5085 764.783 29.6985C763.188 36.61 760.53 47.9521 759.821 49.0154C757.871 52.0281 751.492 53.9776 745.112 55.3953C737.491 57.3447 728.453 44.9393 723.845 38.0277C722.073 35.1922 718.706 34.1289 715.516 35.1922C708.959 37.4961 702.579 40.1544 696.553 43.1671C693.364 44.7621 691.769 48.3065 692.832 51.6737C695.313 59.6486 698.326 73.4717 689.819 78.4339C684.325 81.6238 679.895 84.9909 676.351 84.8137C674.401 84.6365 663.591 78.2566 657.388 74.3578C654.73 72.7628 651.185 72.94 648.881 75.0666C643.565 79.8516 638.425 84.991 633.463 90.4848C631.337 92.7886 630.982 96.333 632.754 98.9913C636.83 105.548 643.919 117.599 643.388 120.435C641.97 127.524 634.881 135.853 629.742 136.562C628.501 136.739 616.627 134.967 609.539 133.726C606.526 133.195 603.336 134.79 602.095 137.625C599.083 144.005 596.247 150.739 593.943 157.651C592.88 160.664 593.943 164.031 596.602 165.803C601.918 169.348 610.07 175.019 610.956 175.905C614.501 179.095 615.21 181.576 614.501 188.664C613.615 195.576 611.665 199.652 608.121 201.779C607.235 202.31 595.716 205.146 588.627 206.741C585.437 207.45 583.31 210.285 583.133 213.475C582.956 219.146 582.956 228.007 583.133 234.919C583.31 238.109 585.437 240.767 588.627 241.476C595.538 243.071 607.235 245.729 608.475 246.438C611.665 248.387 614.324 254.059 615.21 260.616C615.741 264.514 615.564 265.578 614.146 268.413C613.083 270.54 602.804 278.338 596.779 282.768C594.298 284.54 593.234 287.907 594.298 290.92C596.779 297.655 599.437 304.212 602.627 310.769C604.045 313.604 607.058 315.199 610.247 314.668C616.805 313.427 627.083 311.478 627.792 311.3C634.881 310.237 645.691 322.997 644.274 331.149C643.919 332.744 637.539 343.377 633.641 349.58C632.046 352.238 632.4 355.605 634.527 358.086C639.312 363.403 644.451 368.365 649.768 373.15C652.071 375.277 655.616 375.631 658.274 373.859C664.831 369.783 676.705 362.517 678.832 362.694C683.616 363.049 691.946 369.96 695.313 373.505C698.68 377.049 696.022 389.454 694.072 396.72C693.186 400.087 694.781 403.455 697.971 404.872C704.174 407.885 710.731 410.366 717.288 412.67C720.301 413.733 723.668 412.67 725.44 410.012C729.162 404.695 735.01 396.189 735.719 395.303C738.555 391.935 741.922 391.049 748.833 391.935C755.213 392.644 759.644 394.948 761.77 398.315C762.302 399.024 765.138 410.721 766.733 417.632C767.441 420.822 770.277 422.949 773.467 422.949C779.138 423.126 787.999 423.126 794.91 422.949C798.1 422.772 800.759 420.645 801.468 417.455C803.24 410.012 806.607 396.72 809.088 394.771C813.873 390.872 826.278 389.632 830.354 392.821C831.063 393.353 838.329 403.277 842.405 409.126C844.177 411.607 847.545 412.67 850.557 411.607C857.469 409.126 864.026 406.29 870.583 403.1C873.419 401.683 875.014 398.67 874.482 395.657C873.419 388.923 871.469 377.935 871.646 376.517C872.001 372.087 874.837 368.542 881.039 364.821C886.001 361.985 889.368 361.099 892.558 362.162C893.267 362.34 903.014 368.365 908.863 372.087C911.521 373.859 915.065 373.505 917.369 371.378C922.686 366.416 927.825 361.276 932.61 355.783C934.737 353.479 934.914 349.934 933.319 347.276C929.597 341.428 923.395 331.326 923.217 330.263C922.331 326.896 923.395 323.174 926.407 318.389C930.483 312.186 934.559 309.528 939.344 309.883C940.408 309.883 949.978 311.655 956.003 312.718C959.193 313.25 962.206 311.655 963.624 308.819C966.636 302.262 969.472 295.528 971.776 288.616C972.839 285.604 971.776 282.236 969.117 280.464C963.623 276.743 955.117 270.717 954.408 269.831C951.573 266.641 950.686 262.565 952.104 256.362C953.522 249.982 955.294 246.438 958.484 244.843C959.37 244.311 970.003 241.83 976.738 240.235C979.928 239.527 982.054 236.691 982.232 233.501C981.877 227.83 981.877 218.792 981.7 211.703ZM772.581 374.391C689.288 369.074 626.197 297.3 631.514 214.007C636.83 130.714 708.604 67.6235 791.898 72.94C875.191 78.2566 938.281 150.031 932.965 233.324C927.648 316.617 855.874 379.884 772.581 374.391Z"/>
</mask>
<path d="M981.7 211.703C981.523 208.513 979.219 205.855 976.206 205.146C970.181 203.905 961.142 201.956 960.079 201.424C954.408 199.475 951.041 192.741 951.041 183.525C951.041 178.209 951.041 178.031 953.522 175.55C954.408 174.664 962.915 168.461 968.054 164.74C970.535 162.968 971.598 159.6 970.535 156.588C968.054 149.676 965.218 142.942 962.028 136.385C960.611 133.549 957.598 131.954 954.408 132.486C947.319 133.726 935.446 135.499 933.496 134.967C927.648 132.84 921.091 122.739 921.445 116.713C921.622 114.587 927.648 104.485 931.37 98.4597C932.964 95.8014 932.61 92.257 930.661 89.9531C925.699 84.4593 920.559 79.3199 915.065 74.3578C912.761 72.2311 909.394 71.8767 906.559 73.6489C900.179 77.5477 889.014 84.2821 886.533 84.1049C883.697 83.9276 876.431 79.6744 873.241 76.3072C868.634 71.5223 868.279 75.0666 871.646 54.6864C871.646 54.5092 872.001 52.737 872.355 50.9648C872.887 47.7749 871.292 44.7621 868.457 43.3443C861.899 40.1544 855.165 37.4961 848.431 35.015C845.418 33.9517 842.051 35.015 840.279 37.6733C831.949 49.9015 829.645 52.3825 827.164 53.9775C824.861 55.3953 823.974 55.3953 818.303 54.8636C811.037 53.9775 806.075 51.4964 804.126 47.7748C803.594 46.8887 801.113 36.4328 799.695 29.6985C798.986 26.5085 796.151 24.3819 792.961 24.2046C787.29 24.0274 778.252 23.8502 771.34 24.2046C768.15 24.3819 765.492 26.5085 764.783 29.6985C763.188 36.61 760.53 47.9521 759.821 49.0154C757.871 52.0281 751.492 53.9776 745.112 55.3953C737.491 57.3447 728.453 44.9393 723.845 38.0277C722.073 35.1922 718.706 34.1289 715.516 35.1922C708.959 37.4961 702.579 40.1544 696.553 43.1671C693.364 44.7621 691.769 48.3065 692.832 51.6737C695.313 59.6486 698.326 73.4717 689.819 78.4339C684.325 81.6238 679.895 84.9909 676.351 84.8137C674.401 84.6365 663.591 78.2566 657.388 74.3578C654.73 72.7628 651.185 72.94 648.881 75.0666C643.565 79.8516 638.425 84.991 633.463 90.4848C631.337 92.7886 630.982 96.333 632.754 98.9913C636.83 105.548 643.919 117.599 643.388 120.435C641.97 127.524 634.881 135.853 629.742 136.562C628.501 136.739 616.627 134.967 609.539 133.726C606.526 133.195 603.336 134.79 602.095 137.625C599.083 144.005 596.247 150.739 593.943 157.651C592.88 160.664 593.943 164.031 596.602 165.803C601.918 169.348 610.07 175.019 610.956 175.905C614.501 179.095 615.21 181.576 614.501 188.664C613.615 195.576 611.665 199.652 608.121 201.779C607.235 202.31 595.716 205.146 588.627 206.741C585.437 207.45 583.31 210.285 583.133 213.475C582.956 219.146 582.956 228.007 583.133 234.919C583.31 238.109 585.437 240.767 588.627 241.476C595.538 243.071 607.235 245.729 608.475 246.438C611.665 248.387 614.324 254.059 615.21 260.616C615.741 264.514 615.564 265.578 614.146 268.413C613.083 270.54 602.804 278.338 596.779 282.768C594.298 284.54 593.234 287.907 594.298 290.92C596.779 297.655 599.437 304.212 602.627 310.769C604.045 313.604 607.058 315.199 610.247 314.668C616.805 313.427 627.083 311.478 627.792 311.3C634.881 310.237 645.691 322.997 644.274 331.149C643.919 332.744 637.539 343.377 633.641 349.58C632.046 352.238 632.4 355.605 634.527 358.086C639.312 363.403 644.451 368.365 649.768 373.15C652.071 375.277 655.616 375.631 658.274 373.859C664.831 369.783 676.705 362.517 678.832 362.694C683.616 363.049 691.946 369.96 695.313 373.505C698.68 377.049 696.022 389.454 694.072 396.72C693.186 400.087 694.781 403.455 697.971 404.872C704.174 407.885 710.731 410.366 717.288 412.67C720.301 413.733 723.668 412.67 725.44 410.012C729.162 404.695 735.01 396.189 735.719 395.303C738.555 391.935 741.922 391.049 748.833 391.935C755.213 392.644 759.644 394.948 761.77 398.315C762.302 399.024 765.138 410.721 766.733 417.632C767.441 420.822 770.277 422.949 773.467 422.949C779.138 423.126 787.999 423.126 794.91 422.949C798.1 422.772 800.759 420.645 801.468 417.455C803.24 410.012 806.607 396.72 809.088 394.771C813.873 390.872 826.278 389.632 830.354 392.821C831.063 393.353 838.329 403.277 842.405 409.126C844.177 411.607 847.545 412.67 850.557 411.607C857.469 409.126 864.026 406.29 870.583 403.1C873.419 401.683 875.014 398.67 874.482 395.657C873.419 388.923 871.469 377.935 871.646 376.517C872.001 372.087 874.837 368.542 881.039 364.821C886.001 361.985 889.368 361.099 892.558 362.162C893.267 362.34 903.014 368.365 908.863 372.087C911.521 373.859 915.065 373.505 917.369 371.378C922.686 366.416 927.825 361.276 932.61 355.783C934.737 353.479 934.914 349.934 933.319 347.276C929.597 341.428 923.395 331.326 923.217 330.263C922.331 326.896 923.395 323.174 926.407 318.389C930.483 312.186 934.559 309.528 939.344 309.883C940.408 309.883 949.978 311.655 956.003 312.718C959.193 313.25 962.206 311.655 963.624 308.819C966.636 302.262 969.472 295.528 971.776 288.616C972.839 285.604 971.776 282.236 969.117 280.464C963.623 276.743 955.117 270.717 954.408 269.831C951.573 266.641 950.686 262.565 952.104 256.362C953.522 249.982 955.294 246.438 958.484 244.843C959.37 244.311 970.003 241.83 976.738 240.235C979.928 239.527 982.054 236.691 982.232 233.501C981.877 227.83 981.877 218.792 981.7 211.703ZM772.581 374.391C689.288 369.074 626.197 297.3 631.514 214.007C636.83 130.714 708.604 67.6235 791.898 72.94C875.191 78.2566 938.281 150.031 932.965 233.324C927.648 316.617 855.874 379.884 772.581 374.391Z" stroke="#DDDDDD" stroke-width="2" mask="url(#path-20-inside-3_12_15910)"/>
<circle cx="135.787" cy="252.252" r="107.447" fill="white"/>
<path d="M72.6979 181.181C92.0005 164.171 116.851 155.726 142.548 157.415C168.246 159.104 191.77 170.685 208.781 189.989C225.792 209.292 234.236 234.142 232.547 259.839C230.858 285.537 219.277 309.061 199.973 326.072C180.671 343.083 155.821 351.527 130.123 349.838C104.425 348.149 80.9013 336.568 63.8899 317.265C46.8795 297.962 38.4351 273.112 40.1242 247.414C41.8132 221.716 53.3943 198.192 72.6979 181.181ZM48.8276 248.078C45.7787 296.373 82.3662 338.207 130.787 341.256C179.082 344.305 220.916 307.717 223.965 259.297C227.014 211.002 190.426 169.168 142.006 166.119C93.7104 163.07 51.8767 199.657 48.8276 248.078Z" stroke="#DDDDDD"/>
<mask id="path-23-inside-4_12_15910" fill="white">
<path d="M272.82 245.441C272.699 243.258 271.123 241.439 269.061 240.954C264.938 240.105 258.753 238.771 258.026 238.407C254.145 237.073 251.841 232.465 251.841 226.159C251.841 222.521 251.841 222.4 253.539 220.702C254.145 220.096 259.966 215.851 263.483 213.305C265.181 212.092 265.908 209.788 265.181 207.726C263.483 202.997 261.543 198.389 259.36 193.902C258.39 191.962 256.328 190.87 254.145 191.234C249.295 192.083 241.17 193.296 239.836 192.932C235.834 191.477 231.347 184.564 231.59 180.441C231.711 178.986 235.834 172.074 238.381 167.951C239.472 166.132 239.23 163.707 237.896 162.13C234.5 158.371 230.983 154.854 227.224 151.459C225.648 150.003 223.344 149.761 221.403 150.974C217.038 153.641 209.398 158.25 207.7 158.128C205.76 158.007 200.788 155.097 198.605 152.793C195.452 149.518 195.21 151.944 197.514 137.998C197.514 137.877 197.756 136.664 197.999 135.451C198.363 133.269 197.271 131.207 195.331 130.237C190.844 128.054 186.236 126.235 181.628 124.537C179.566 123.81 177.262 124.537 176.049 126.356C170.35 134.724 168.773 136.421 167.076 137.513C165.499 138.483 164.893 138.483 161.012 138.119C156.04 137.513 152.645 135.815 151.311 133.269C150.947 132.662 149.249 125.507 148.279 120.899C147.794 118.717 145.854 117.261 143.671 117.14C139.791 117.019 133.606 116.897 128.877 117.14C126.694 117.261 124.875 118.717 124.39 120.899C123.298 125.629 121.479 133.39 120.994 134.117C119.66 136.179 115.295 137.513 110.929 138.483C105.715 139.817 99.5299 131.328 96.377 126.599C95.1643 124.659 92.8602 123.931 90.6774 124.659C86.1905 126.235 81.8249 128.054 77.7018 130.116C75.519 131.207 74.4277 133.632 75.1553 135.936C76.853 141.393 78.9145 150.852 73.0937 154.248C69.3344 156.431 66.3028 158.735 63.8774 158.613C62.5435 158.492 55.1462 154.126 50.9019 151.459C49.0829 150.367 46.6575 150.488 45.0811 151.944C41.443 155.218 37.9263 158.735 34.5308 162.494C33.0756 164.07 32.833 166.496 34.0457 168.315C36.8349 172.802 41.6855 181.048 41.3217 182.988C40.3516 187.839 35.5009 193.538 31.9842 194.023C31.1353 194.145 23.0104 192.932 18.1598 192.083C16.0982 191.719 13.9154 192.811 13.0665 194.751C11.005 199.117 9.06475 203.725 7.48828 208.454C6.76068 210.516 7.48828 212.82 9.30729 214.032C12.9453 216.458 18.5236 220.338 19.1299 220.945C21.5552 223.127 22.0403 224.825 21.5552 229.676C20.9489 234.405 19.615 237.194 17.1896 238.65C16.5833 239.013 8.70095 240.954 3.85027 242.045C1.66747 242.53 0.212217 244.47 0.0909503 246.653C-0.0303167 250.534 -0.0303167 256.597 0.0909503 261.326C0.212217 263.509 1.66747 265.328 3.85027 265.813C8.57969 266.905 16.5832 268.724 17.4321 269.209C19.6149 270.543 21.434 274.423 22.0403 278.91C22.4041 281.578 22.2828 282.306 21.3127 284.246C20.5851 285.701 13.5516 291.037 9.42852 294.069C7.73079 295.281 7.00315 297.585 7.73076 299.647C9.42849 304.255 11.2475 308.742 13.4303 313.229C14.4005 315.169 16.462 316.26 18.6448 315.897C23.1317 315.048 30.1652 313.714 30.6503 313.593C35.5009 312.865 42.8982 321.596 41.9281 327.174C41.6855 328.266 37.3199 335.542 34.6521 339.786C33.5606 341.605 33.8032 343.909 35.2584 345.607C38.5326 349.245 42.0494 352.641 45.6874 355.915C47.2639 357.37 49.6892 357.613 51.5082 356.4C55.9951 353.611 64.1199 348.639 65.5751 348.76C68.8493 349.003 74.5489 353.732 76.853 356.157C79.157 358.583 77.3381 367.071 76.0041 372.043C75.3978 374.347 76.4892 376.651 78.672 377.622C82.9163 379.683 87.4032 381.381 91.8901 382.957C93.9516 383.685 96.2557 382.957 97.4683 381.138C100.015 377.5 104.017 371.679 104.502 371.073C106.442 368.769 108.746 368.163 113.476 368.769C117.841 369.254 120.873 370.831 122.328 373.135C122.692 373.62 124.632 381.623 125.724 386.353C126.209 388.536 128.149 389.991 130.332 389.991C134.212 390.112 140.276 390.112 145.005 389.991C147.188 389.869 149.007 388.414 149.492 386.232C150.705 381.138 153.009 372.043 154.706 370.709C157.981 368.041 166.469 367.193 169.258 369.375C169.743 369.739 174.715 376.53 177.505 380.532C178.717 382.23 181.021 382.957 183.083 382.23C187.812 380.532 192.299 378.592 196.786 376.409C198.726 375.439 199.818 373.377 199.454 371.316C198.726 366.708 197.392 359.189 197.514 358.219C197.756 355.187 199.696 352.762 203.941 350.215C207.336 348.275 209.64 347.669 211.823 348.396C212.308 348.517 218.978 352.641 222.98 355.187C224.799 356.4 227.224 356.157 228.801 354.702C232.439 351.307 235.955 347.79 239.23 344.031C240.685 342.454 240.806 340.029 239.715 338.21C237.168 334.208 232.924 327.296 232.802 326.568C232.196 324.264 232.924 321.717 234.985 318.443C237.774 314.199 240.563 312.38 243.838 312.622C244.565 312.622 251.114 313.835 255.237 314.563C257.42 314.926 259.481 313.835 260.451 311.895C262.513 307.408 264.453 302.8 266.029 298.07C266.757 296.009 266.029 293.705 264.21 292.492C260.451 289.946 254.63 285.822 254.145 285.216C252.205 283.033 251.599 280.244 252.569 276C253.539 271.634 254.752 269.209 256.934 268.117C257.541 267.754 264.817 266.056 269.425 264.965C271.608 264.479 273.063 262.539 273.184 260.356C272.942 256.476 272.942 250.291 272.82 245.441ZM129.725 356.764C72.7299 353.126 29.5588 304.012 33.1968 247.017C36.8348 190.022 85.948 146.85 142.943 150.488C199.939 154.126 243.11 203.24 239.472 260.235C235.834 317.231 186.721 360.523 129.725 356.764Z"/>
</mask>
<path d="M272.82 245.441C272.699 243.258 271.123 241.439 269.061 240.954C264.938 240.105 258.753 238.771 258.026 238.407C254.145 237.073 251.841 232.465 251.841 226.159C251.841 222.521 251.841 222.4 253.539 220.702C254.145 220.096 259.966 215.851 263.483 213.305C265.181 212.092 265.908 209.788 265.181 207.726C263.483 202.997 261.543 198.389 259.36 193.902C258.39 191.962 256.328 190.87 254.145 191.234C249.295 192.083 241.17 193.296 239.836 192.932C235.834 191.477 231.347 184.564 231.59 180.441C231.711 178.986 235.834 172.074 238.381 167.951C239.472 166.132 239.23 163.707 237.896 162.13C234.5 158.371 230.983 154.854 227.224 151.459C225.648 150.003 223.344 149.761 221.403 150.974C217.038 153.641 209.398 158.25 207.7 158.128C205.76 158.007 200.788 155.097 198.605 152.793C195.452 149.518 195.21 151.944 197.514 137.998C197.514 137.877 197.756 136.664 197.999 135.451C198.363 133.269 197.271 131.207 195.331 130.237C190.844 128.054 186.236 126.235 181.628 124.537C179.566 123.81 177.262 124.537 176.049 126.356C170.35 134.724 168.773 136.421 167.076 137.513C165.499 138.483 164.893 138.483 161.012 138.119C156.04 137.513 152.645 135.815 151.311 133.269C150.947 132.662 149.249 125.507 148.279 120.899C147.794 118.717 145.854 117.261 143.671 117.14C139.791 117.019 133.606 116.897 128.877 117.14C126.694 117.261 124.875 118.717 124.39 120.899C123.298 125.629 121.479 133.39 120.994 134.117C119.66 136.179 115.295 137.513 110.929 138.483C105.715 139.817 99.5299 131.328 96.377 126.599C95.1643 124.659 92.8602 123.931 90.6774 124.659C86.1905 126.235 81.8249 128.054 77.7018 130.116C75.519 131.207 74.4277 133.632 75.1553 135.936C76.853 141.393 78.9145 150.852 73.0937 154.248C69.3344 156.431 66.3028 158.735 63.8774 158.613C62.5435 158.492 55.1462 154.126 50.9019 151.459C49.0829 150.367 46.6575 150.488 45.0811 151.944C41.443 155.218 37.9263 158.735 34.5308 162.494C33.0756 164.07 32.833 166.496 34.0457 168.315C36.8349 172.802 41.6855 181.048 41.3217 182.988C40.3516 187.839 35.5009 193.538 31.9842 194.023C31.1353 194.145 23.0104 192.932 18.1598 192.083C16.0982 191.719 13.9154 192.811 13.0665 194.751C11.005 199.117 9.06475 203.725 7.48828 208.454C6.76068 210.516 7.48828 212.82 9.30729 214.032C12.9453 216.458 18.5236 220.338 19.1299 220.945C21.5552 223.127 22.0403 224.825 21.5552 229.676C20.9489 234.405 19.615 237.194 17.1896 238.65C16.5833 239.013 8.70095 240.954 3.85027 242.045C1.66747 242.53 0.212217 244.47 0.0909503 246.653C-0.0303167 250.534 -0.0303167 256.597 0.0909503 261.326C0.212217 263.509 1.66747 265.328 3.85027 265.813C8.57969 266.905 16.5832 268.724 17.4321 269.209C19.6149 270.543 21.434 274.423 22.0403 278.91C22.4041 281.578 22.2828 282.306 21.3127 284.246C20.5851 285.701 13.5516 291.037 9.42852 294.069C7.73079 295.281 7.00315 297.585 7.73076 299.647C9.42849 304.255 11.2475 308.742 13.4303 313.229C14.4005 315.169 16.462 316.26 18.6448 315.897C23.1317 315.048 30.1652 313.714 30.6503 313.593C35.5009 312.865 42.8982 321.596 41.9281 327.174C41.6855 328.266 37.3199 335.542 34.6521 339.786C33.5606 341.605 33.8032 343.909 35.2584 345.607C38.5326 349.245 42.0494 352.641 45.6874 355.915C47.2639 357.37 49.6892 357.613 51.5082 356.4C55.9951 353.611 64.1199 348.639 65.5751 348.76C68.8493 349.003 74.5489 353.732 76.853 356.157C79.157 358.583 77.3381 367.071 76.0041 372.043C75.3978 374.347 76.4892 376.651 78.672 377.622C82.9163 379.683 87.4032 381.381 91.8901 382.957C93.9516 383.685 96.2557 382.957 97.4683 381.138C100.015 377.5 104.017 371.679 104.502 371.073C106.442 368.769 108.746 368.163 113.476 368.769C117.841 369.254 120.873 370.831 122.328 373.135C122.692 373.62 124.632 381.623 125.724 386.353C126.209 388.536 128.149 389.991 130.332 389.991C134.212 390.112 140.276 390.112 145.005 389.991C147.188 389.869 149.007 388.414 149.492 386.232C150.705 381.138 153.009 372.043 154.706 370.709C157.981 368.041 166.469 367.193 169.258 369.375C169.743 369.739 174.715 376.53 177.505 380.532C178.717 382.23 181.021 382.957 183.083 382.23C187.812 380.532 192.299 378.592 196.786 376.409C198.726 375.439 199.818 373.377 199.454 371.316C198.726 366.708 197.392 359.189 197.514 358.219C197.756 355.187 199.696 352.762 203.941 350.215C207.336 348.275 209.64 347.669 211.823 348.396C212.308 348.517 218.978 352.641 222.98 355.187C224.799 356.4 227.224 356.157 228.801 354.702C232.439 351.307 235.955 347.79 239.23 344.031C240.685 342.454 240.806 340.029 239.715 338.21C237.168 334.208 232.924 327.296 232.802 326.568C232.196 324.264 232.924 321.717 234.985 318.443C237.774 314.199 240.563 312.38 243.838 312.622C244.565 312.622 251.114 313.835 255.237 314.563C257.42 314.926 259.481 313.835 260.451 311.895C262.513 307.408 264.453 302.8 266.029 298.07C266.757 296.009 266.029 293.705 264.21 292.492C260.451 289.946 254.63 285.822 254.145 285.216C252.205 283.033 251.599 280.244 252.569 276C253.539 271.634 254.752 269.209 256.934 268.117C257.541 267.754 264.817 266.056 269.425 264.965C271.608 264.479 273.063 262.539 273.184 260.356C272.942 256.476 272.942 250.291 272.82 245.441ZM129.725 356.764C72.7299 353.126 29.5588 304.012 33.1968 247.017C36.8348 190.022 85.948 146.85 142.943 150.488C199.939 154.126 243.11 203.24 239.472 260.235C235.834 317.231 186.721 360.523 129.725 356.764Z" stroke="#DDDDDD" stroke-width="2" mask="url(#path-23-inside-4_12_15910)"/>
<circle cx="387.765" cy="328.214" r="110.595" fill="white"/>
<path d="M322.818 255.049C342.689 237.538 368.271 228.845 394.725 230.584C421.179 232.322 445.396 244.244 462.908 264.116C480.42 283.988 489.113 309.569 487.374 336.024C485.635 362.478 473.713 386.695 453.841 404.207C433.97 421.719 408.388 430.412 381.934 428.673C355.479 426.934 331.263 415.012 313.75 395.14C296.239 375.269 287.546 349.687 289.285 323.233C291.024 296.778 302.946 272.561 322.818 255.049ZM298.272 323.918C295.135 373.62 332.788 416.672 382.619 419.81C432.321 422.948 475.373 385.294 478.511 335.464C481.649 285.761 443.996 242.709 394.165 239.571C344.463 236.433 301.41 274.087 298.272 323.918Z" stroke="#DDDDDD"/>
<circle cx="387.5" cy="328.5" r="25" stroke="#DDDDDD"/>
<mask id="path-27-inside-5_12_15910" fill="white">
<path d="M528.813 321.203C528.688 318.956 527.065 317.084 524.943 316.585C520.699 315.711 514.334 314.338 513.585 313.964C509.591 312.591 507.219 307.848 507.219 301.357C507.219 297.612 507.219 297.488 508.966 295.74C509.591 295.116 515.582 290.747 519.202 288.126C520.949 286.878 521.698 284.506 520.949 282.384C519.202 277.516 517.205 272.773 514.958 268.155C513.959 266.158 511.837 265.034 509.591 265.409C504.598 266.283 496.235 267.531 494.862 267.156C490.743 265.659 486.125 258.544 486.374 254.3C486.499 252.802 490.743 245.687 493.364 241.444C494.487 239.571 494.238 237.075 492.865 235.452C489.37 231.583 485.75 227.963 481.881 224.468C480.258 222.97 477.886 222.721 475.889 223.969C471.396 226.715 463.532 231.458 461.785 231.333C459.788 231.208 454.67 228.213 452.423 225.841C449.178 222.471 448.928 224.967 451.3 210.613C451.3 210.488 451.549 209.24 451.799 207.992C452.174 205.745 451.05 203.623 449.053 202.625C444.435 200.378 439.692 198.506 434.949 196.758C432.827 196.009 430.455 196.758 429.207 198.63C423.34 207.243 421.718 208.99 419.97 210.114C418.348 211.112 417.723 211.112 413.729 210.738C408.612 210.114 405.117 208.366 403.744 205.745C403.369 205.121 401.622 197.757 400.623 193.014C400.124 190.767 398.127 189.269 395.88 189.144C391.886 189.019 385.52 188.894 380.652 189.144C378.405 189.269 376.533 190.767 376.034 193.014C374.91 197.882 373.038 205.87 372.539 206.619C371.166 208.741 366.672 210.114 362.179 211.112C356.811 212.485 350.446 203.748 347.2 198.88C345.952 196.883 343.581 196.134 341.334 196.883C336.716 198.506 332.222 200.378 327.978 202.5C325.731 203.623 324.608 206.12 325.357 208.491C327.104 214.108 329.226 223.844 323.235 227.339C319.366 229.586 316.245 231.957 313.749 231.832C312.376 231.708 304.762 227.214 300.393 224.468C298.521 223.345 296.024 223.469 294.402 224.967C290.657 228.337 287.037 231.957 283.542 235.827C282.045 237.449 281.795 239.946 283.043 241.818C285.914 246.436 290.907 254.924 290.532 256.921C289.534 261.914 284.541 267.78 280.921 268.28C280.047 268.405 271.685 267.156 266.692 266.283C264.57 265.908 262.323 267.032 261.449 269.029C259.327 273.522 257.33 278.265 255.708 283.133C254.959 285.255 255.708 287.627 257.58 288.875C261.325 291.371 267.066 295.366 267.69 295.99C270.187 298.236 270.686 299.984 270.187 304.977C269.563 309.845 268.19 312.715 265.693 314.213C265.069 314.588 256.956 316.585 251.963 317.708C249.716 318.208 248.218 320.205 248.094 322.451C247.969 326.446 247.969 332.687 248.094 337.555C248.218 339.801 249.716 341.674 251.963 342.173C256.831 343.296 265.069 345.169 265.943 345.668C268.19 347.041 270.062 351.035 270.686 355.653C271.06 358.399 270.936 359.148 269.937 361.145C269.188 362.643 261.949 368.135 257.705 371.256C255.957 372.504 255.208 374.876 255.957 376.998C257.705 381.741 259.577 386.359 261.824 390.977C262.822 392.974 264.944 394.098 267.191 393.723C271.809 392.85 279.049 391.477 279.548 391.352C284.541 390.603 292.155 399.59 291.156 405.332C290.907 406.455 286.413 413.944 283.667 418.313C282.544 420.185 282.793 422.557 284.291 424.304C287.661 428.049 291.281 431.544 295.026 434.914C296.648 436.412 299.145 436.661 301.017 435.413C305.635 432.542 313.998 427.425 315.496 427.549C318.866 427.799 324.733 432.667 327.104 435.163C329.476 437.66 327.604 446.397 326.231 451.515C325.607 453.886 326.73 456.258 328.977 457.257C333.345 459.379 337.964 461.126 342.582 462.749C344.704 463.497 347.076 462.749 348.324 460.876C350.945 457.132 355.064 451.14 355.563 450.516C357.56 448.145 359.932 447.521 364.8 448.145C369.293 448.644 372.414 450.267 373.912 452.638C374.286 453.138 376.283 461.376 377.407 466.244C377.906 468.49 379.903 469.988 382.15 469.988C386.144 470.113 392.385 470.113 397.253 469.988C399.5 469.863 401.372 468.365 401.871 466.119C403.12 460.876 405.491 451.515 407.239 450.142C410.609 447.396 419.346 446.522 422.217 448.769C422.716 449.143 427.834 456.133 430.705 460.252C431.953 462 434.324 462.749 436.446 462C441.314 460.252 445.933 458.255 450.551 456.008C452.548 455.01 453.671 452.888 453.297 450.766C452.548 446.023 451.175 438.284 451.3 437.285C451.549 434.165 453.547 431.669 457.915 429.047C461.41 427.05 463.782 426.426 466.029 427.175C466.528 427.3 473.393 431.544 477.512 434.165C479.384 435.413 481.881 435.163 483.503 433.666C487.248 430.171 490.868 426.551 494.238 422.682C495.736 421.059 495.86 418.562 494.737 416.69C492.116 412.571 487.747 405.456 487.622 404.707C486.998 402.336 487.747 399.715 489.869 396.345C492.74 391.976 495.611 390.104 498.981 390.353C499.73 390.353 506.47 391.601 510.714 392.35C512.961 392.725 515.083 391.601 516.081 389.604C518.203 384.986 520.2 380.243 521.823 375.375C522.572 373.253 521.823 370.881 519.951 369.633C516.081 367.012 510.09 362.768 509.591 362.144C507.593 359.897 506.969 357.026 507.968 352.658C508.966 348.164 510.215 345.668 512.461 344.544C513.086 344.17 520.575 342.423 525.318 341.299C527.565 340.8 529.062 338.803 529.187 336.556C528.938 332.562 528.938 326.196 528.813 321.203ZM381.526 435.788C322.861 432.043 278.425 381.491 282.169 322.826C285.914 264.161 336.466 219.725 395.131 223.47C453.796 227.214 498.232 277.766 494.487 336.431C490.743 395.096 440.191 439.657 381.526 435.788Z"/>
</mask>
<path d="M528.813 321.203C528.688 318.956 527.065 317.084 524.943 316.585C520.699 315.711 514.334 314.338 513.585 313.964C509.591 312.591 507.219 307.848 507.219 301.357C507.219 297.612 507.219 297.488 508.966 295.74C509.591 295.116 515.582 290.747 519.202 288.126C520.949 286.878 521.698 284.506 520.949 282.384C519.202 277.516 517.205 272.773 514.958 268.155C513.959 266.158 511.837 265.034 509.591 265.409C504.598 266.283 496.235 267.531 494.862 267.156C490.743 265.659 486.125 258.544 486.374 254.3C486.499 252.802 490.743 245.687 493.364 241.444C494.487 239.571 494.238 237.075 492.865 235.452C489.37 231.583 485.75 227.963 481.881 224.468C480.258 222.97 477.886 222.721 475.889 223.969C471.396 226.715 463.532 231.458 461.785 231.333C459.788 231.208 454.67 228.213 452.423 225.841C449.178 222.471 448.928 224.967 451.3 210.613C451.3 210.488 451.549 209.24 451.799 207.992C452.174 205.745 451.05 203.623 449.053 202.625C444.435 200.378 439.692 198.506 434.949 196.758C432.827 196.009 430.455 196.758 429.207 198.63C423.34 207.243 421.718 208.99 419.97 210.114C418.348 211.112 417.723 211.112 413.729 210.738C408.612 210.114 405.117 208.366 403.744 205.745C403.369 205.121 401.622 197.757 400.623 193.014C400.124 190.767 398.127 189.269 395.88 189.144C391.886 189.019 385.52 188.894 380.652 189.144C378.405 189.269 376.533 190.767 376.034 193.014C374.91 197.882 373.038 205.87 372.539 206.619C371.166 208.741 366.672 210.114 362.179 211.112C356.811 212.485 350.446 203.748 347.2 198.88C345.952 196.883 343.581 196.134 341.334 196.883C336.716 198.506 332.222 200.378 327.978 202.5C325.731 203.623 324.608 206.12 325.357 208.491C327.104 214.108 329.226 223.844 323.235 227.339C319.366 229.586 316.245 231.957 313.749 231.832C312.376 231.708 304.762 227.214 300.393 224.468C298.521 223.345 296.024 223.469 294.402 224.967C290.657 228.337 287.037 231.957 283.542 235.827C282.045 237.449 281.795 239.946 283.043 241.818C285.914 246.436 290.907 254.924 290.532 256.921C289.534 261.914 284.541 267.78 280.921 268.28C280.047 268.405 271.685 267.156 266.692 266.283C264.57 265.908 262.323 267.032 261.449 269.029C259.327 273.522 257.33 278.265 255.708 283.133C254.959 285.255 255.708 287.627 257.58 288.875C261.325 291.371 267.066 295.366 267.69 295.99C270.187 298.236 270.686 299.984 270.187 304.977C269.563 309.845 268.19 312.715 265.693 314.213C265.069 314.588 256.956 316.585 251.963 317.708C249.716 318.208 248.218 320.205 248.094 322.451C247.969 326.446 247.969 332.687 248.094 337.555C248.218 339.801 249.716 341.674 251.963 342.173C256.831 343.296 265.069 345.169 265.943 345.668C268.19 347.041 270.062 351.035 270.686 355.653C271.06 358.399 270.936 359.148 269.937 361.145C269.188 362.643 261.949 368.135 257.705 371.256C255.957 372.504 255.208 374.876 255.957 376.998C257.705 381.741 259.577 386.359 261.824 390.977C262.822 392.974 264.944 394.098 267.191 393.723C271.809 392.85 279.049 391.477 279.548 391.352C284.541 390.603 292.155 399.59 291.156 405.332C290.907 406.455 286.413 413.944 283.667 418.313C282.544 420.185 282.793 422.557 284.291 424.304C287.661 428.049 291.281 431.544 295.026 434.914C296.648 436.412 299.145 436.661 301.017 435.413C305.635 432.542 313.998 427.425 315.496 427.549C318.866 427.799 324.733 432.667 327.104 435.163C329.476 437.66 327.604 446.397 326.231 451.515C325.607 453.886 326.73 456.258 328.977 457.257C333.345 459.379 337.964 461.126 342.582 462.749C344.704 463.497 347.076 462.749 348.324 460.876C350.945 457.132 355.064 451.14 355.563 450.516C357.56 448.145 359.932 447.521 364.8 448.145C369.293 448.644 372.414 450.267 373.912 452.638C374.286 453.138 376.283 461.376 377.407 466.244C377.906 468.49 379.903 469.988 382.15 469.988C386.144 470.113 392.385 470.113 397.253 469.988C399.5 469.863 401.372 468.365 401.871 466.119C403.12 460.876 405.491 451.515 407.239 450.142C410.609 447.396 419.346 446.522 422.217 448.769C422.716 449.143 427.834 456.133 430.705 460.252C431.953 462 434.324 462.749 436.446 462C441.314 460.252 445.933 458.255 450.551 456.008C452.548 455.01 453.671 452.888 453.297 450.766C452.548 446.023 451.175 438.284 451.3 437.285C451.549 434.165 453.547 431.669 457.915 429.047C461.41 427.05 463.782 426.426 466.029 427.175C466.528 427.3 473.393 431.544 477.512 434.165C479.384 435.413 481.881 435.163 483.503 433.666C487.248 430.171 490.868 426.551 494.238 422.682C495.736 421.059 495.86 418.562 494.737 416.69C492.116 412.571 487.747 405.456 487.622 404.707C486.998 402.336 487.747 399.715 489.869 396.345C492.74 391.976 495.611 390.104 498.981 390.353C499.73 390.353 506.47 391.601 510.714 392.35C512.961 392.725 515.083 391.601 516.081 389.604C518.203 384.986 520.2 380.243 521.823 375.375C522.572 373.253 521.823 370.881 519.951 369.633C516.081 367.012 510.09 362.768 509.591 362.144C507.593 359.897 506.969 357.026 507.968 352.658C508.966 348.164 510.215 345.668 512.461 344.544C513.086 344.17 520.575 342.423 525.318 341.299C527.565 340.8 529.062 338.803 529.187 336.556C528.938 332.562 528.938 326.196 528.813 321.203ZM381.526 435.788C322.861 432.043 278.425 381.491 282.169 322.826C285.914 264.161 336.466 219.725 395.131 223.47C453.796 227.214 498.232 277.766 494.487 336.431C490.743 395.096 440.191 439.657 381.526 435.788Z" stroke="#DDDDDD" stroke-width="2" mask="url(#path-27-inside-5_12_15910)"/>
<circle cx="1359.05" cy="276.704" r="69.6748" fill="white"/>
<path d="M1318.26 230.751C1330.74 219.751 1346.81 214.291 1363.42 215.383C1380.04 216.475 1395.25 223.964 1406.25 236.447C1417.25 248.928 1422.71 264.997 1421.62 281.614C1420.53 298.231 1413.04 313.443 1400.56 324.443C1388.08 335.442 1372.01 340.903 1355.39 339.811C1338.77 338.718 1323.56 331.23 1312.56 318.747C1301.56 306.265 1296.1 290.197 1297.19 273.58C1298.29 256.962 1305.77 241.751 1318.26 230.751ZM1363.1 220.676C1331.68 218.693 1304.47 242.491 1302.49 273.987C1300.5 305.401 1324.3 332.613 1355.8 334.596C1387.21 336.579 1414.42 312.781 1416.41 281.285C1418.39 249.871 1394.59 222.66 1363.1 220.676Z" stroke="#DDDDDD"/>
<mask id="path-30-inside-6_12_15910" fill="white">
<path d="M1447.91 272.288C1447.83 270.873 1446.81 269.693 1445.47 269.379C1442.8 268.828 1438.79 267.963 1438.32 267.727C1435.8 266.862 1434.31 263.874 1434.31 259.785C1434.31 257.426 1434.31 257.347 1435.41 256.246C1435.8 255.853 1439.58 253.101 1441.86 251.449C1442.96 250.663 1443.43 249.169 1442.96 247.832C1441.86 244.765 1440.6 241.777 1439.18 238.868C1438.55 237.609 1437.22 236.902 1435.8 237.138C1432.66 237.688 1427.39 238.474 1426.52 238.239C1423.93 237.295 1421.02 232.813 1421.18 230.139C1421.25 229.195 1423.93 224.713 1425.58 222.039C1426.29 220.86 1426.13 219.287 1425.27 218.265C1423.06 215.827 1420.78 213.547 1418.35 211.345C1417.32 210.401 1415.83 210.244 1414.57 211.03C1411.74 212.76 1406.79 215.749 1405.68 215.67C1404.43 215.591 1401.2 213.704 1399.79 212.21C1397.74 210.087 1397.58 211.659 1399.08 202.616C1399.08 202.538 1399.24 201.751 1399.39 200.965C1399.63 199.549 1398.92 198.213 1397.66 197.584C1394.75 196.168 1391.77 194.989 1388.78 193.888C1387.44 193.416 1385.95 193.888 1385.16 195.067C1381.46 200.493 1380.44 201.594 1379.34 202.302C1378.32 202.931 1377.93 202.931 1375.41 202.695C1372.19 202.302 1369.98 201.201 1369.12 199.549C1368.88 199.156 1367.78 194.517 1367.15 191.529C1366.84 190.113 1365.58 189.169 1364.16 189.091C1361.65 189.012 1357.64 188.934 1354.57 189.091C1353.16 189.169 1351.98 190.113 1351.66 191.529C1350.95 194.595 1349.77 199.628 1349.46 200.1C1348.59 201.437 1345.76 202.302 1342.93 202.931C1339.55 203.796 1335.54 198.291 1333.5 195.224C1332.71 193.966 1331.22 193.494 1329.8 193.966C1326.89 194.989 1324.06 196.168 1321.39 197.505C1319.97 198.213 1319.26 199.785 1319.73 201.279C1320.84 204.818 1322.17 210.952 1318.4 213.154C1315.96 214.569 1313.99 216.063 1312.42 215.984C1311.56 215.906 1306.76 213.075 1304.01 211.345C1302.83 210.637 1301.26 210.716 1300.23 211.659C1297.87 213.783 1295.59 216.063 1293.39 218.501C1292.45 219.523 1292.29 221.096 1293.08 222.275C1294.89 225.185 1298.03 230.532 1297.8 231.79C1297.17 234.936 1294.02 238.632 1291.74 238.946C1291.19 239.025 1285.92 238.239 1282.78 237.688C1281.44 237.452 1280.02 238.16 1279.47 239.418C1278.14 242.249 1276.88 245.237 1275.86 248.304C1275.38 249.641 1275.86 251.135 1277.04 251.921C1279.39 253.494 1283.01 256.01 1283.4 256.404C1284.98 257.819 1285.29 258.92 1284.98 262.065C1284.58 265.132 1283.72 266.941 1282.15 267.884C1281.75 268.12 1276.64 269.379 1273.5 270.086C1272.08 270.401 1271.14 271.659 1271.06 273.075C1270.98 275.591 1270.98 279.523 1271.06 282.59C1271.14 284.005 1272.08 285.185 1273.5 285.499C1276.56 286.207 1281.75 287.386 1282.3 287.701C1283.72 288.566 1284.9 291.082 1285.29 293.992C1285.53 295.722 1285.45 296.194 1284.82 297.452C1284.35 298.395 1279.79 301.855 1277.11 303.821C1276.01 304.608 1275.54 306.102 1276.01 307.439C1277.11 310.427 1278.29 313.336 1279.71 316.246C1280.34 317.504 1281.67 318.212 1283.09 317.976C1286 317.425 1290.56 316.56 1290.88 316.482C1294.02 316.01 1298.82 321.672 1298.19 325.289C1298.03 325.997 1295.2 330.715 1293.47 333.467C1292.76 334.647 1292.92 336.141 1293.86 337.242C1295.99 339.601 1298.27 341.803 1300.63 343.926C1301.65 344.87 1303.22 345.027 1304.4 344.24C1307.31 342.432 1312.58 339.208 1313.52 339.286C1315.65 339.444 1319.34 342.51 1320.84 344.083C1322.33 345.656 1321.15 351.16 1320.29 354.385C1319.89 355.879 1320.6 357.373 1322.02 358.002C1324.77 359.339 1327.68 360.44 1330.59 361.462C1331.92 361.934 1333.42 361.462 1334.2 360.282C1335.86 357.923 1338.45 354.149 1338.76 353.755C1340.02 352.261 1341.52 351.868 1344.58 352.261C1347.41 352.576 1349.38 353.598 1350.32 355.092C1350.56 355.407 1351.82 360.597 1352.53 363.664C1352.84 365.079 1354.1 366.023 1355.51 366.023C1358.03 366.101 1361.96 366.101 1365.03 366.023C1366.44 365.944 1367.62 365 1367.94 363.585C1368.73 360.282 1370.22 354.385 1371.32 353.52C1373.44 351.79 1378.95 351.239 1380.76 352.655C1381.07 352.89 1384.3 357.294 1386.1 359.889C1386.89 360.99 1388.38 361.462 1389.72 360.99C1392.79 359.889 1395.7 358.631 1398.61 357.215C1399.87 356.586 1400.57 355.25 1400.34 353.913C1399.87 350.925 1399 346.049 1399.08 345.42C1399.24 343.454 1400.49 341.881 1403.25 340.23C1405.45 338.972 1406.94 338.579 1408.36 339.05C1408.67 339.129 1413 341.803 1415.59 343.454C1416.77 344.24 1418.35 344.083 1419.37 343.14C1421.73 340.938 1424.01 338.657 1426.13 336.22C1427.07 335.197 1427.15 333.625 1426.44 332.445C1424.79 329.85 1422.04 325.368 1421.96 324.896C1421.57 323.402 1422.04 321.75 1423.38 319.627C1425.19 316.875 1427 315.695 1429.12 315.853C1429.59 315.853 1433.84 316.639 1436.51 317.111C1437.93 317.347 1439.26 316.639 1439.89 315.381C1441.23 312.471 1442.49 309.483 1443.51 306.416C1443.98 305.08 1443.51 303.585 1442.33 302.799C1439.89 301.148 1436.12 298.474 1435.8 298.081C1434.54 296.665 1434.15 294.857 1434.78 292.105C1435.41 289.274 1436.2 287.701 1437.61 286.993C1438 286.757 1442.72 285.656 1445.71 284.949C1447.13 284.634 1448.07 283.376 1448.15 281.96C1447.99 279.444 1447.99 275.434 1447.91 272.288ZM1355.12 344.476C1318.16 342.117 1290.17 310.27 1292.53 273.31C1294.89 236.351 1326.73 208.357 1363.69 210.716C1400.65 213.075 1428.65 244.923 1426.29 281.882C1423.93 318.841 1392.08 346.914 1355.12 344.476Z"/>
</mask>
<path d="M1447.91 272.288C1447.83 270.873 1446.81 269.693 1445.47 269.379C1442.8 268.828 1438.79 267.963 1438.32 267.727C1435.8 266.862 1434.31 263.874 1434.31 259.785C1434.31 257.426 1434.31 257.347 1435.41 256.246C1435.8 255.853 1439.58 253.101 1441.86 251.449C1442.96 250.663 1443.43 249.169 1442.96 247.832C1441.86 244.765 1440.6 241.777 1439.18 238.868C1438.55 237.609 1437.22 236.902 1435.8 237.138C1432.66 237.688 1427.39 238.474 1426.52 238.239C1423.93 237.295 1421.02 232.813 1421.18 230.139C1421.25 229.195 1423.93 224.713 1425.58 222.039C1426.29 220.86 1426.13 219.287 1425.27 218.265C1423.06 215.827 1420.78 213.547 1418.35 211.345C1417.32 210.401 1415.83 210.244 1414.57 211.03C1411.74 212.76 1406.79 215.749 1405.68 215.67C1404.43 215.591 1401.2 213.704 1399.79 212.21C1397.74 210.087 1397.58 211.659 1399.08 202.616C1399.08 202.538 1399.24 201.751 1399.39 200.965C1399.63 199.549 1398.92 198.213 1397.66 197.584C1394.75 196.168 1391.77 194.989 1388.78 193.888C1387.44 193.416 1385.95 193.888 1385.16 195.067C1381.46 200.493 1380.44 201.594 1379.34 202.302C1378.32 202.931 1377.93 202.931 1375.41 202.695C1372.19 202.302 1369.98 201.201 1369.12 199.549C1368.88 199.156 1367.78 194.517 1367.15 191.529C1366.84 190.113 1365.58 189.169 1364.16 189.091C1361.65 189.012 1357.64 188.934 1354.57 189.091C1353.16 189.169 1351.98 190.113 1351.66 191.529C1350.95 194.595 1349.77 199.628 1349.46 200.1C1348.59 201.437 1345.76 202.302 1342.93 202.931C1339.55 203.796 1335.54 198.291 1333.5 195.224C1332.71 193.966 1331.22 193.494 1329.8 193.966C1326.89 194.989 1324.06 196.168 1321.39 197.505C1319.97 198.213 1319.26 199.785 1319.73 201.279C1320.84 204.818 1322.17 210.952 1318.4 213.154C1315.96 214.569 1313.99 216.063 1312.42 215.984C1311.56 215.906 1306.76 213.075 1304.01 211.345C1302.83 210.637 1301.26 210.716 1300.23 211.659C1297.87 213.783 1295.59 216.063 1293.39 218.501C1292.45 219.523 1292.29 221.096 1293.08 222.275C1294.89 225.185 1298.03 230.532 1297.8 231.79C1297.17 234.936 1294.02 238.632 1291.74 238.946C1291.19 239.025 1285.92 238.239 1282.78 237.688C1281.44 237.452 1280.02 238.16 1279.47 239.418C1278.14 242.249 1276.88 245.237 1275.86 248.304C1275.38 249.641 1275.86 251.135 1277.04 251.921C1279.39 253.494 1283.01 256.01 1283.4 256.404C1284.98 257.819 1285.29 258.92 1284.98 262.065C1284.58 265.132 1283.72 266.941 1282.15 267.884C1281.75 268.12 1276.64 269.379 1273.5 270.086C1272.08 270.401 1271.14 271.659 1271.06 273.075C1270.98 275.591 1270.98 279.523 1271.06 282.59C1271.14 284.005 1272.08 285.185 1273.5 285.499C1276.56 286.207 1281.75 287.386 1282.3 287.701C1283.72 288.566 1284.9 291.082 1285.29 293.992C1285.53 295.722 1285.45 296.194 1284.82 297.452C1284.35 298.395 1279.79 301.855 1277.11 303.821C1276.01 304.608 1275.54 306.102 1276.01 307.439C1277.11 310.427 1278.29 313.336 1279.71 316.246C1280.34 317.504 1281.67 318.212 1283.09 317.976C1286 317.425 1290.56 316.56 1290.88 316.482C1294.02 316.01 1298.82 321.672 1298.19 325.289C1298.03 325.997 1295.2 330.715 1293.47 333.467C1292.76 334.647 1292.92 336.141 1293.86 337.242C1295.99 339.601 1298.27 341.803 1300.63 343.926C1301.65 344.87 1303.22 345.027 1304.4 344.24C1307.31 342.432 1312.58 339.208 1313.52 339.286C1315.65 339.444 1319.34 342.51 1320.84 344.083C1322.33 345.656 1321.15 351.16 1320.29 354.385C1319.89 355.879 1320.6 357.373 1322.02 358.002C1324.77 359.339 1327.68 360.44 1330.59 361.462C1331.92 361.934 1333.42 361.462 1334.2 360.282C1335.86 357.923 1338.45 354.149 1338.76 353.755C1340.02 352.261 1341.52 351.868 1344.58 352.261C1347.41 352.576 1349.38 353.598 1350.32 355.092C1350.56 355.407 1351.82 360.597 1352.53 363.664C1352.84 365.079 1354.1 366.023 1355.51 366.023C1358.03 366.101 1361.96 366.101 1365.03 366.023C1366.44 365.944 1367.62 365 1367.94 363.585C1368.73 360.282 1370.22 354.385 1371.32 353.52C1373.44 351.79 1378.95 351.239 1380.76 352.655C1381.07 352.89 1384.3 357.294 1386.1 359.889C1386.89 360.99 1388.38 361.462 1389.72 360.99C1392.79 359.889 1395.7 358.631 1398.61 357.215C1399.87 356.586 1400.57 355.25 1400.34 353.913C1399.87 350.925 1399 346.049 1399.08 345.42C1399.24 343.454 1400.49 341.881 1403.25 340.23C1405.45 338.972 1406.94 338.579 1408.36 339.05C1408.67 339.129 1413 341.803 1415.59 343.454C1416.77 344.24 1418.35 344.083 1419.37 343.14C1421.73 340.938 1424.01 338.657 1426.13 336.22C1427.07 335.197 1427.15 333.625 1426.44 332.445C1424.79 329.85 1422.04 325.368 1421.96 324.896C1421.57 323.402 1422.04 321.75 1423.38 319.627C1425.19 316.875 1427 315.695 1429.12 315.853C1429.59 315.853 1433.84 316.639 1436.51 317.111C1437.93 317.347 1439.26 316.639 1439.89 315.381C1441.23 312.471 1442.49 309.483 1443.51 306.416C1443.98 305.08 1443.51 303.585 1442.33 302.799C1439.89 301.148 1436.12 298.474 1435.8 298.081C1434.54 296.665 1434.15 294.857 1434.78 292.105C1435.41 289.274 1436.2 287.701 1437.61 286.993C1438 286.757 1442.72 285.656 1445.71 284.949C1447.13 284.634 1448.07 283.376 1448.15 281.96C1447.99 279.444 1447.99 275.434 1447.91 272.288ZM1355.12 344.476C1318.16 342.117 1290.17 310.27 1292.53 273.31C1294.89 236.351 1326.73 208.357 1363.69 210.716C1400.65 213.075 1428.65 244.923 1426.29 281.882C1423.93 318.841 1392.08 346.914 1355.12 344.476Z" stroke="#DDDDDD" stroke-width="2" mask="url(#path-30-inside-6_12_15910)"/>
<circle cx="1291" cy="139" r="29.5" stroke="#DDDDDD"/>
<circle cx="215" cy="421" r="15.5" stroke="#DDDDDD"/>
<circle cx="532" cy="185" r="15.5" stroke="#DDDDDD"/>
<circle cx="581" cy="371" r="19.5" stroke="#DDDDDD"/>
<circle cx="289.835" cy="90.4779" r="71.8783" fill="white"/>
<path d="M294.381 26.7031C277.102 25.5674 260.391 31.246 247.411 42.6844C234.431 54.1228 226.644 69.9418 225.508 87.2211C224.372 104.5 230.051 121.212 241.489 134.191C252.927 147.171 268.746 154.959 286.026 156.095C303.305 157.23 320.016 151.552 332.996 140.113C345.976 128.675 353.764 112.856 354.899 95.5768C356.035 78.2975 350.356 61.5861 338.918 48.6064C327.48 35.6267 311.661 27.8389 294.381 26.7031ZM286.512 149.686C254.307 147.658 229.97 119.833 231.998 87.7078C234.026 55.5019 261.851 31.1649 293.976 33.193C326.182 35.2211 350.519 63.0463 348.491 95.1711C346.463 127.377 318.637 151.714 286.512 149.686Z" fill="#F5F5F5"/>
<path d="M381.507 85.9221C381.426 84.4618 380.371 83.245 378.992 82.9205C376.234 82.3526 372.097 81.4603 371.61 81.2169C369.014 80.3246 367.473 77.2419 367.473 73.0235C367.473 70.5898 367.473 70.5086 368.608 69.3729C369.014 68.9673 372.908 66.128 375.261 64.4244C376.396 63.6132 376.883 62.0718 376.396 60.6927C375.261 57.5289 373.963 54.4462 372.502 51.4447C371.853 50.1467 370.474 49.4166 369.014 49.66C365.769 50.2278 360.334 51.0391 359.441 50.7957C356.764 49.8222 353.763 45.1982 353.925 42.44C354.006 41.4665 356.764 36.8425 358.468 34.0843C359.198 32.8675 359.036 31.245 358.144 30.1904C355.872 27.6756 353.519 25.323 351.005 23.0515C349.95 22.0781 348.409 21.9158 347.111 22.7271C344.19 24.5118 339.08 27.5944 337.944 27.5133C336.646 27.4322 333.32 25.4852 331.86 23.9439C329.75 21.7536 329.588 23.376 331.129 14.0469C331.129 13.9657 331.292 13.1545 331.454 12.3433C331.697 10.8831 330.967 9.50396 329.669 8.85497C326.668 7.39475 323.585 6.17792 320.502 5.0422C319.123 4.55546 317.582 5.0422 316.771 6.25904C312.958 11.8565 311.903 12.9923 310.768 13.7224C309.713 14.3714 309.307 14.3714 306.711 14.128C303.385 13.7224 301.114 12.5866 300.222 10.8831C299.978 10.4774 298.842 5.69118 298.193 2.6085C297.869 1.14828 296.571 0.174796 295.111 0.0936731C292.515 0.0125498 288.378 -0.0685734 285.214 0.0936731C283.754 0.174796 282.537 1.14828 282.212 2.6085C281.482 5.77231 280.265 10.9642 279.941 11.4509C279.048 12.83 276.128 13.7224 273.208 14.3714C269.719 15.2637 265.582 9.58508 263.473 6.42128C262.661 5.1233 261.12 4.63656 259.66 5.1233C256.658 6.1779 253.738 7.39475 250.98 8.77385C249.519 9.50395 248.789 11.1264 249.276 12.6678C250.412 16.3183 251.791 22.6459 247.897 24.9174C245.382 26.3776 243.354 27.9189 241.732 27.8378C240.839 27.7567 235.891 24.8363 233.052 23.0515C231.835 22.3214 230.212 22.4026 229.158 23.376C226.724 25.5664 224.371 27.9189 222.1 30.4338C221.126 31.4884 220.964 33.1108 221.775 34.3277C223.641 37.3292 226.886 42.8456 226.643 44.1436C225.994 47.3885 222.749 51.2013 220.396 51.5258C219.828 51.6069 214.393 50.7957 211.148 50.2278C209.769 49.9845 208.309 50.7146 207.741 52.0126C206.362 54.933 205.064 58.0157 204.009 61.1795C203.523 62.5586 204.009 64.0999 205.226 64.9111C207.66 66.5336 211.392 69.1296 211.797 69.5352C213.42 70.9954 213.744 72.1311 213.42 75.376C213.014 78.5398 212.122 80.4057 210.499 81.3792C210.094 81.6225 204.821 82.9205 201.576 83.6506C200.115 83.9751 199.142 85.2731 199.061 86.7333C198.98 89.3292 198.98 93.3854 199.061 96.5492C199.142 98.0094 200.115 99.2263 201.576 99.5508C204.739 100.281 210.094 101.498 210.661 101.822C212.122 102.715 213.339 105.311 213.744 108.312C213.988 110.097 213.906 110.584 213.257 111.881C212.771 112.855 208.066 116.424 205.307 118.452C204.172 119.264 203.685 120.805 204.172 122.184C205.307 125.267 206.524 128.268 207.984 131.27C208.633 132.568 210.012 133.298 211.473 133.055C214.474 132.487 219.179 131.594 219.504 131.513C222.749 131.027 227.697 136.867 227.048 140.599C226.886 141.329 223.966 146.197 222.181 149.036C221.451 150.253 221.613 151.794 222.587 152.93C224.777 155.364 227.13 157.635 229.563 159.825C230.618 160.799 232.24 160.961 233.457 160.15C236.459 158.284 241.894 154.958 242.867 155.039C245.058 155.201 248.871 158.365 250.412 159.988C251.953 161.61 250.736 167.289 249.844 170.615C249.438 172.156 250.168 173.697 251.629 174.346C254.468 175.726 257.47 176.861 260.471 177.916C261.85 178.403 263.392 177.916 264.203 176.699C265.906 174.265 268.583 170.371 268.908 169.966C270.206 168.424 271.747 168.019 274.911 168.424C277.832 168.749 279.86 169.803 280.833 171.345C281.076 171.669 282.374 177.023 283.105 180.187C283.429 181.647 284.727 182.621 286.187 182.621C288.783 182.702 292.839 182.702 296.003 182.621C297.463 182.54 298.68 181.566 299.005 180.106C299.816 176.699 301.357 170.615 302.493 169.722C304.683 167.938 310.362 167.37 312.228 168.83C312.552 169.073 315.878 173.616 317.744 176.293C318.555 177.429 320.097 177.916 321.476 177.429C324.64 176.293 327.641 174.995 330.643 173.535C331.941 172.886 332.671 171.507 332.427 170.128C331.941 167.045 331.048 162.016 331.129 161.367C331.292 159.339 332.59 157.716 335.429 156.013C337.701 154.715 339.242 154.309 340.702 154.796C341.027 154.877 345.488 157.635 348.165 159.339C349.382 160.15 351.005 159.988 352.059 159.014C354.493 156.743 356.846 154.39 359.036 151.875C360.009 150.821 360.091 149.198 359.36 147.981C357.657 145.304 354.817 140.68 354.736 140.193C354.331 138.652 354.817 136.949 356.197 134.758C358.062 131.919 359.928 130.702 362.119 130.864C362.605 130.864 366.986 131.676 369.744 132.162C371.204 132.406 372.583 131.676 373.232 130.378C374.612 127.376 375.91 124.293 376.964 121.13C377.451 119.75 376.964 118.209 375.747 117.398C373.232 115.694 369.339 112.936 369.014 112.53C367.716 111.07 367.31 109.204 367.959 106.365C368.608 103.445 369.42 101.822 370.88 101.092C371.285 100.849 376.153 99.713 379.236 98.9829C380.696 98.6584 381.669 97.3605 381.75 95.9002C381.588 93.3043 381.588 89.167 381.507 85.9221ZM285.782 160.393C247.654 157.96 218.774 125.105 221.207 86.9767C223.641 48.8487 256.496 19.9689 294.624 22.4026C332.752 24.8363 361.632 57.6912 359.198 95.8191C356.764 133.947 323.91 162.908 285.782 160.393Z" fill="#F5F5F5"/>
<path d="M470.181 70.7592C475.672 65.9209 482.738 63.5193 490.048 63.9998C497.359 64.4803 504.049 67.7739 508.888 73.2653C513.726 78.7556 516.128 85.8224 515.647 93.1322C515.167 100.442 511.873 107.133 506.382 111.972C500.892 116.81 493.825 119.212 486.515 118.731C479.205 118.251 472.514 114.957 467.675 109.466C462.837 103.976 460.435 96.9088 460.916 89.599C461.396 82.2887 464.69 75.5984 470.181 70.7592Z" stroke="#DDDDDD"/>
<mask id="path-39-inside-7_12_15910" fill="white">
<path d="M527.607 89.007C527.572 88.3781 527.117 87.854 526.523 87.7142C525.335 87.4696 523.553 87.0853 523.344 86.9805C522.226 86.5961 521.562 85.2684 521.562 83.4515C521.562 82.4033 521.562 82.3684 522.051 81.8792C522.226 81.7045 523.903 80.4816 524.916 79.7479C525.405 79.3984 525.615 78.7346 525.405 78.1406C524.916 76.7779 524.357 75.4502 523.728 74.1574C523.449 73.5984 522.855 73.2839 522.226 73.3888C520.828 73.6333 518.487 73.9827 518.103 73.8779C516.95 73.4586 515.657 71.467 515.727 70.2791C515.762 69.8598 516.95 67.8682 517.684 66.6803C517.998 66.1561 517.928 65.4574 517.544 65.0031C516.565 63.92 515.552 62.9067 514.469 61.9284C514.015 61.5091 513.351 61.4392 512.792 61.7886C511.534 62.5573 509.333 63.885 508.844 63.8501C508.285 63.8152 506.852 62.9766 506.223 62.3127C505.315 61.3694 505.245 62.0682 505.909 58.05C505.909 58.0151 505.979 57.6657 506.048 57.3163C506.153 56.6874 505.839 56.0934 505.28 55.8139C503.987 55.185 502.659 54.6609 501.332 54.1717C500.738 53.9621 500.074 54.1717 499.724 54.6958C498.082 57.1067 497.628 57.5958 497.139 57.9103C496.685 58.1898 496.51 58.1898 495.392 58.085C493.959 57.9103 492.981 57.4211 492.597 56.6874C492.492 56.5127 492.003 54.4512 491.723 53.1235C491.583 52.4946 491.024 52.0753 490.395 52.0403C489.277 52.0054 487.495 51.9705 486.133 52.0403C485.504 52.0753 484.98 52.4946 484.84 53.1235C484.525 54.4862 484.001 56.7223 483.861 56.932C483.477 57.5259 482.219 57.9103 480.961 58.1898C479.459 58.5741 477.677 56.1283 476.769 54.7657C476.419 54.2066 475.755 53.997 475.126 54.2066C473.834 54.6608 472.576 55.1849 471.388 55.7789C470.759 56.0934 470.445 56.7922 470.654 57.4561C471.143 59.0284 471.737 61.7537 470.06 62.732C468.977 63.3609 468.104 64.0248 467.405 63.9899C467.02 63.9549 464.889 62.6971 463.666 61.9284C463.142 61.6139 462.443 61.6489 461.989 62.0682C460.941 63.0115 459.928 64.0248 458.949 65.1079C458.53 65.5622 458.46 66.261 458.809 66.7851C459.613 68.0779 461.011 70.4538 460.906 71.0128C460.626 72.4104 459.229 74.0526 458.215 74.1924C457.971 74.2273 455.63 73.8779 454.232 73.6333C453.638 73.5285 453.009 73.843 452.765 74.402C452.171 75.6599 451.612 76.9876 451.158 78.3502C450.948 78.9442 451.158 79.6081 451.682 79.9575C452.73 80.6563 454.337 81.7744 454.512 81.9491C455.211 82.578 455.35 83.0672 455.211 84.4648C455.036 85.8274 454.652 86.6311 453.953 87.0503C453.778 87.1552 451.507 87.7142 450.109 88.0287C449.48 88.1684 449.061 88.7275 449.026 89.3564C448.991 90.4745 448.991 92.2215 449.026 93.5841C449.061 94.2131 449.48 94.7372 450.109 94.8769C451.472 95.1914 453.778 95.7155 454.023 95.8552C454.652 96.2396 455.176 97.3577 455.35 98.6505C455.455 99.4191 455.42 99.6288 455.141 100.188C454.931 100.607 452.905 102.144 451.717 103.018C451.227 103.367 451.018 104.031 451.227 104.625C451.717 105.953 452.241 107.246 452.87 108.538C453.149 109.098 453.743 109.412 454.372 109.307C455.665 109.063 457.691 108.678 457.831 108.643C459.229 108.434 461.36 110.949 461.081 112.557C461.011 112.871 459.753 114.967 458.984 116.19C458.67 116.714 458.74 117.378 459.159 117.868C460.102 118.916 461.115 119.894 462.164 120.837C462.618 121.257 463.317 121.327 463.841 120.977C465.134 120.174 467.475 118.741 467.894 118.776C468.837 118.846 470.479 120.209 471.143 120.907C471.807 121.606 471.283 124.052 470.899 125.484C470.724 126.148 471.038 126.812 471.667 127.092C472.89 127.686 474.183 128.175 475.476 128.629C476.07 128.839 476.734 128.629 477.083 128.105C477.817 127.057 478.97 125.38 479.11 125.205C479.669 124.541 480.333 124.366 481.695 124.541C482.953 124.681 483.827 125.135 484.246 125.799C484.351 125.939 484.91 128.245 485.224 129.607C485.364 130.236 485.923 130.656 486.552 130.656C487.67 130.691 489.417 130.691 490.78 130.656C491.409 130.621 491.933 130.201 492.072 129.572C492.422 128.105 493.086 125.484 493.575 125.1C494.518 124.331 496.964 124.087 497.768 124.716C497.907 124.821 499.34 126.777 500.144 127.93C500.493 128.419 501.157 128.629 501.751 128.419C503.114 127.93 504.406 127.371 505.699 126.742C506.258 126.463 506.573 125.869 506.468 125.275C506.258 123.947 505.874 121.781 505.909 121.501C505.979 120.628 506.538 119.929 507.761 119.195C508.739 118.636 509.403 118.461 510.032 118.671C510.171 118.706 512.093 119.894 513.246 120.628C513.77 120.977 514.469 120.907 514.923 120.488C515.971 119.51 516.985 118.496 517.928 117.413C518.347 116.959 518.382 116.26 518.068 115.736C517.334 114.583 516.111 112.592 516.076 112.382C515.902 111.718 516.111 110.984 516.705 110.041C517.509 108.818 518.312 108.294 519.256 108.364C519.465 108.364 521.352 108.713 522.54 108.923C523.169 109.028 523.763 108.713 524.043 108.154C524.637 106.861 525.196 105.534 525.65 104.171C525.86 103.577 525.65 102.913 525.126 102.564C524.043 101.83 522.366 100.642 522.226 100.467C521.667 99.8384 521.492 99.0348 521.772 97.8119C522.051 96.554 522.4 95.8552 523.029 95.5408C523.204 95.436 525.3 94.9468 526.628 94.6323C527.257 94.4926 527.676 93.9335 527.711 93.3046C527.641 92.1865 527.641 90.4046 527.607 89.007ZM486.377 121.082C469.955 120.034 457.517 105.883 458.565 89.4612C459.613 73.0394 473.764 60.6007 490.186 61.6489C506.608 62.6971 519.046 76.8478 517.998 93.2697C516.95 109.692 502.799 122.165 486.377 121.082Z"/>
</mask>
<path d="M527.607 89.007C527.572 88.3781 527.117 87.854 526.523 87.7142C525.335 87.4696 523.553 87.0853 523.344 86.9805C522.226 86.5961 521.562 85.2684 521.562 83.4515C521.562 82.4033 521.562 82.3684 522.051 81.8792C522.226 81.7045 523.903 80.4816 524.916 79.7479C525.405 79.3984 525.615 78.7346 525.405 78.1406C524.916 76.7779 524.357 75.4502 523.728 74.1574C523.449 73.5984 522.855 73.2839 522.226 73.3888C520.828 73.6333 518.487 73.9827 518.103 73.8779C516.95 73.4586 515.657 71.467 515.727 70.2791C515.762 69.8598 516.95 67.8682 517.684 66.6803C517.998 66.1561 517.928 65.4574 517.544 65.0031C516.565 63.92 515.552 62.9067 514.469 61.9284C514.015 61.5091 513.351 61.4392 512.792 61.7886C511.534 62.5573 509.333 63.885 508.844 63.8501C508.285 63.8152 506.852 62.9766 506.223 62.3127C505.315 61.3694 505.245 62.0682 505.909 58.05C505.909 58.0151 505.979 57.6657 506.048 57.3163C506.153 56.6874 505.839 56.0934 505.28 55.8139C503.987 55.185 502.659 54.6609 501.332 54.1717C500.738 53.9621 500.074 54.1717 499.724 54.6958C498.082 57.1067 497.628 57.5958 497.139 57.9103C496.685 58.1898 496.51 58.1898 495.392 58.085C493.959 57.9103 492.981 57.4211 492.597 56.6874C492.492 56.5127 492.003 54.4512 491.723 53.1235C491.583 52.4946 491.024 52.0753 490.395 52.0403C489.277 52.0054 487.495 51.9705 486.133 52.0403C485.504 52.0753 484.98 52.4946 484.84 53.1235C484.525 54.4862 484.001 56.7223 483.861 56.932C483.477 57.5259 482.219 57.9103 480.961 58.1898C479.459 58.5741 477.677 56.1283 476.769 54.7657C476.419 54.2066 475.755 53.997 475.126 54.2066C473.834 54.6608 472.576 55.1849 471.388 55.7789C470.759 56.0934 470.445 56.7922 470.654 57.4561C471.143 59.0284 471.737 61.7537 470.06 62.732C468.977 63.3609 468.104 64.0248 467.405 63.9899C467.02 63.9549 464.889 62.6971 463.666 61.9284C463.142 61.6139 462.443 61.6489 461.989 62.0682C460.941 63.0115 459.928 64.0248 458.949 65.1079C458.53 65.5622 458.46 66.261 458.809 66.7851C459.613 68.0779 461.011 70.4538 460.906 71.0128C460.626 72.4104 459.229 74.0526 458.215 74.1924C457.971 74.2273 455.63 73.8779 454.232 73.6333C453.638 73.5285 453.009 73.843 452.765 74.402C452.171 75.6599 451.612 76.9876 451.158 78.3502C450.948 78.9442 451.158 79.6081 451.682 79.9575C452.73 80.6563 454.337 81.7744 454.512 81.9491C455.211 82.578 455.35 83.0672 455.211 84.4648C455.036 85.8274 454.652 86.6311 453.953 87.0503C453.778 87.1552 451.507 87.7142 450.109 88.0287C449.48 88.1684 449.061 88.7275 449.026 89.3564C448.991 90.4745 448.991 92.2215 449.026 93.5841C449.061 94.2131 449.48 94.7372 450.109 94.8769C451.472 95.1914 453.778 95.7155 454.023 95.8552C454.652 96.2396 455.176 97.3577 455.35 98.6505C455.455 99.4191 455.42 99.6288 455.141 100.188C454.931 100.607 452.905 102.144 451.717 103.018C451.227 103.367 451.018 104.031 451.227 104.625C451.717 105.953 452.241 107.246 452.87 108.538C453.149 109.098 453.743 109.412 454.372 109.307C455.665 109.063 457.691 108.678 457.831 108.643C459.229 108.434 461.36 110.949 461.081 112.557C461.011 112.871 459.753 114.967 458.984 116.19C458.67 116.714 458.74 117.378 459.159 117.868C460.102 118.916 461.115 119.894 462.164 120.837C462.618 121.257 463.317 121.327 463.841 120.977C465.134 120.174 467.475 118.741 467.894 118.776C468.837 118.846 470.479 120.209 471.143 120.907C471.807 121.606 471.283 124.052 470.899 125.484C470.724 126.148 471.038 126.812 471.667 127.092C472.89 127.686 474.183 128.175 475.476 128.629C476.07 128.839 476.734 128.629 477.083 128.105C477.817 127.057 478.97 125.38 479.11 125.205C479.669 124.541 480.333 124.366 481.695 124.541C482.953 124.681 483.827 125.135 484.246 125.799C484.351 125.939 484.91 128.245 485.224 129.607C485.364 130.236 485.923 130.656 486.552 130.656C487.67 130.691 489.417 130.691 490.78 130.656C491.409 130.621 491.933 130.201 492.072 129.572C492.422 128.105 493.086 125.484 493.575 125.1C494.518 124.331 496.964 124.087 497.768 124.716C497.907 124.821 499.34 126.777 500.144 127.93C500.493 128.419 501.157 128.629 501.751 128.419C503.114 127.93 504.406 127.371 505.699 126.742C506.258 126.463 506.573 125.869 506.468 125.275C506.258 123.947 505.874 121.781 505.909 121.501C505.979 120.628 506.538 119.929 507.761 119.195C508.739 118.636 509.403 118.461 510.032 118.671C510.171 118.706 512.093 119.894 513.246 120.628C513.77 120.977 514.469 120.907 514.923 120.488C515.971 119.51 516.985 118.496 517.928 117.413C518.347 116.959 518.382 116.26 518.068 115.736C517.334 114.583 516.111 112.592 516.076 112.382C515.902 111.718 516.111 110.984 516.705 110.041C517.509 108.818 518.312 108.294 519.256 108.364C519.465 108.364 521.352 108.713 522.54 108.923C523.169 109.028 523.763 108.713 524.043 108.154C524.637 106.861 525.196 105.534 525.65 104.171C525.86 103.577 525.65 102.913 525.126 102.564C524.043 101.83 522.366 100.642 522.226 100.467C521.667 99.8384 521.492 99.0348 521.772 97.8119C522.051 96.554 522.4 95.8552 523.029 95.5408C523.204 95.436 525.3 94.9468 526.628 94.6323C527.257 94.4926 527.676 93.9335 527.711 93.3046C527.641 92.1865 527.641 90.4046 527.607 89.007ZM486.377 121.082C469.955 120.034 457.517 105.883 458.565 89.4612C459.613 73.0394 473.764 60.6007 490.186 61.6489C506.608 62.6971 519.046 76.8478 517.998 93.2697C516.95 109.692 502.799 122.165 486.377 121.082Z" stroke="#DDDDDD" stroke-width="2" mask="url(#path-39-inside-7_12_15910)"/>
<ellipse cx="784.5" cy="465.5" rx="11.5" ry="11.5" transform="rotate(90 784.5 465.5)" fill="#F5F5F5"/>
<circle cx="955" cy="47" r="9" stroke="#EEEEEE" stroke-width="4"/>
<circle cx="1137" cy="478" r="8" fill="#F5F5F5"/>
<line x1="784.5" y1="460" x2="784.5" y2="423" stroke="#F5F5F5" stroke-width="3"/>
<path d="M1017 58.0636L1006.87 47.9395L962.999 47.9363" stroke="#EEEEEE" stroke-width="2"/>
<path d="M1198 467.936L1187.87 478.061L1144 478.064" stroke="#F5F5F5" stroke-width="2"/>
</svg>
