<svg width="12" height="12" viewBox="0 0 12 12" fill="none" xmlns="http://www.w3.org/2000/svg">
<path fill-rule="evenodd" clip-rule="evenodd" d="M0.010157 0.609871C-0.022541 0.448412 0.0237166 0.274142 0.14893 0.148929C0.274143 0.0237155 0.448413 -0.0225421 0.609872 0.010156C0.835336 -0.0277171 1.07513 0.040335 1.2491 0.214312L6 4.96521L10.7509 0.214312C10.9249 0.0403361 11.1647 -0.0277162 11.3901 0.0101556C11.5516 -0.0225417 11.7259 0.023716 11.8511 0.148929C11.9763 0.274139 12.0225 0.448403 11.9898 0.609859C12.0277 0.835326 11.9597 1.07512 11.7857 1.2491L7.03479 6L11.7857 10.7509C11.9597 10.9249 12.0277 11.1647 11.9898 11.3901C12.0225 11.5516 11.9763 11.7259 11.8511 11.8511C11.7259 11.9763 11.5516 12.0225 11.3901 11.9898C11.1647 12.0277 10.9249 11.9597 10.7509 11.7857L6 7.03479L1.2491 11.7857C1.07512 11.9597 0.835333 12.0277 0.609869 11.9898C0.44841 12.0225 0.274141 11.9763 0.148929 11.8511C0.0237156 11.7259 -0.022542 11.5516 0.0101559 11.3901C-0.0277169 11.1647 0.0403351 10.9249 0.214312 10.7509L4.96521 6L0.214313 1.2491C0.040336 1.07513 -0.027716 0.835335 0.010157 0.609871Z" fill="black"/>
</svg>
