<svg width="369" height="443" viewBox="0 0 369 443" fill="none" xmlns="http://www.w3.org/2000/svg">
<path fill-rule="evenodd" clip-rule="evenodd" d="M296.044 81.2167C324.115 63.4967 344.798 33.9633 346.276 0C362.527 29.5333 371.392 63.4967 368.437 95.9833C366.96 116.657 352.186 131.423 338.889 144.713C269.451 209.687 186.716 259.893 126.142 333.727C102.504 361.783 86.2524 404.607 111.368 437.093L109.5 443C93.5 443 78.8654 443 64.0914 443C30.111 420.85 3.5177 383.933 0.562889 342.587C-3.86933 298.287 18.2918 255.463 52.2721 227.407C126.142 166.863 217.742 132.9 296.044 81.2167Z" fill="#FF8C38"/>
<path fill-rule="evenodd" clip-rule="evenodd" d="M198.928 36C206.287 58.2302 216.591 84.9065 200.4 105.655C184.209 123.439 165.075 136.777 145.94 151.597C103.255 176.791 59.0987 203.468 25.2452 242C14.942 216.806 16.4139 185.683 37.0203 166.417C76.7612 126.403 132.693 108.619 176.85 76.0144C188.625 67.1223 194.512 50.8201 198.928 36Z" fill="#FF8C38"/>
</svg>
