<svg width="13" height="15" viewBox="0 0 13 15" fill="none" xmlns="http://www.w3.org/2000/svg">
<path d="M8.56887 0C8.56887 0.854204 8.56887 1.68605 8.56887 2.51789C8.56887 2.83542 8.55098 3.15742 8.60018 3.47048C8.71646 4.2576 9.37388 4.81664 10.1699 4.82111C11.0107 4.83005 11.856 4.82111 12.6968 4.82111C12.7415 4.82111 12.7862 4.82111 12.8578 4.82111C12.8578 4.88372 12.8578 4.94633 12.8578 5.00447C12.8578 7.77281 12.8578 10.5367 12.8578 13.305C12.8578 14.3113 12.1735 15 11.1673 15C8.00984 15 4.85242 15 1.69499 15C0.68873 14.9955 0 14.3113 0 13.305C0 9.43649 0 5.56351 0 1.69052C0 0.684258 0.684258 0 1.69052 0C3.92218 0 6.15385 0 8.38551 0C8.43918 0 8.49732 0 8.56887 0Z" fill="#FF7316"/>
<path d="M12.9249 3.40787C12.8354 3.40787 12.7907 3.40787 12.7415 3.40787C12.0259 3.40787 11.3148 3.40787 10.5993 3.40787C10.2147 3.40787 10 3.1932 10 2.80859C10 1.93202 10 1.05993 10 0.183363C10 0.13864 10 0.0939177 10 0C10.9884 1.14937 11.941 2.26297 12.9249 3.40787Z" fill="#FF7316"/>
</svg>
