<svg width="21" height="15" viewBox="0 0 21 15" fill="none" xmlns="http://www.w3.org/2000/svg">
<path d="M18.532 0H2.14704C0.963605 0 0 0.963605 0 2.15071V12.853C0 14.0364 0.963605 15 2.14704 15H18.532C19.7154 15 20.679 14.0364 20.679 12.853V2.15071C20.679 0.963605 19.7154 0 18.532 0ZM10.8158 7.12995C10.6803 7.2362 10.5117 7.29849 10.3395 7.29849C10.1673 7.29849 9.99878 7.23986 9.86321 7.12995L2.90181 1.60845H17.7772L10.8158 7.12995ZM19.0743 12.853C19.0743 13.1534 18.8324 13.3952 18.532 13.3952H2.14704C1.8466 13.3952 1.60479 13.1534 1.60479 12.853V2.63068L8.86663 8.38666C9.28432 8.71641 9.80826 8.89961 10.3395 8.89961C10.8745 8.89961 11.3947 8.71641 11.8124 8.38666L19.0706 2.62701V12.853H19.0743Z" fill="#FF7316"/>
</svg>
