<svg width="19" height="25" viewBox="0 0 19 25" fill="none" xmlns="http://www.w3.org/2000/svg">
<path d="M9.4903 0C4.28284 0 0.0703125 4.21253 0.0703125 9.41998C0.0703125 12.1296 1.4251 14.5851 2.75871 16.8501C4.38869 19.6657 6.33619 22.2904 8.60122 24.619C9.08809 25.1268 9.89271 25.1268 10.4005 24.619C12.3904 22.6503 14.1474 20.4276 15.6292 18.0567C17.2168 15.4951 18.9314 12.5315 18.9314 9.41998C18.9103 4.2337 14.6977 0 9.4903 0ZM9.4903 14.8815C6.33619 14.8815 3.7748 12.3201 3.7748 9.16596C3.7748 6.01185 6.33619 3.45047 9.4903 3.45047C12.6444 3.45047 15.2058 5.99069 15.2058 9.16596C15.2058 12.3412 12.6444 14.8815 9.4903 14.8815Z" fill="#FF7316"/>
</svg>
