<svg width="20" height="18" viewBox="0 0 20 18" fill="none" xmlns="http://www.w3.org/2000/svg">
<path d="M0 16.0199C0 11.7099 0 7.39985 0 3.08984C0.0244609 3.14855 0.0587061 3.20236 0.0782748 3.26107C0.743611 5.25219 1.40405 7.2433 2.06939 9.23442C2.35803 10.1003 2.97444 10.5455 3.88439 10.5455C4.87261 10.5455 5.86572 10.5455 6.85394 10.5455C6.92243 10.5455 6.99092 10.5455 7.0692 10.5455C7.0692 10.7461 7.0643 10.9222 7.0692 11.0983C7.07409 11.4701 7.3138 11.7148 7.68072 11.7148C9.22175 11.7196 10.7677 11.7196 12.3087 11.7148C12.6854 11.7148 12.9202 11.4701 12.93 11.0837C12.9349 10.9075 12.93 10.7363 12.93 10.5406C13.0181 10.5406 13.0866 10.5406 13.16 10.5406C14.1433 10.5406 15.1266 10.5406 16.1099 10.5406C17.0297 10.5406 17.6412 10.0954 17.9347 9.21485C18.5756 7.29712 19.2116 5.37938 19.8525 3.46165C19.8916 3.34913 19.9307 3.23661 19.9699 3.12409C19.9992 3.15833 19.9992 3.18279 19.9992 3.20726C19.9992 7.39985 20.0041 11.5924 19.9894 15.785C19.9894 16.0492 19.9209 16.333 19.8084 16.5727C19.4758 17.2723 18.8789 17.5707 18.1157 17.5707C12.705 17.5707 7.29424 17.5707 1.88838 17.5707C1.84435 17.5707 1.79543 17.5707 1.7514 17.5707C1.17412 17.5462 0.67512 17.331 0.352237 16.8418C0.190795 16.6069 0.11252 16.2987 0 16.0199Z" fill="#FF7316"/>
<path d="M12.9291 9.38142C12.9291 9.19063 12.9291 9.01451 12.9291 8.83839C12.9242 8.4568 12.6893 8.2122 12.3078 8.2073C10.7667 8.20241 9.22079 8.20241 7.67976 8.2073C7.31284 8.2073 7.07802 8.45191 7.06823 8.82372C7.06334 8.99984 7.06823 9.17595 7.06823 9.36186C7.00953 9.36675 6.96061 9.37653 6.91168 9.37653C5.89411 9.37653 4.88143 9.37653 3.86386 9.37653C3.49694 9.37653 3.31104 9.24934 3.19363 8.90199C2.47448 6.74943 1.76022 4.59688 1.04107 2.44921C1.03129 2.42475 1.0264 2.40029 1.01172 2.35626C2.64081 2.35626 4.25523 2.35626 5.90879 2.35626C5.90879 2.09208 5.88433 1.84258 5.91368 1.60286C6.02131 0.663566 6.716 0.0226912 7.6553 0.0129068C9.2159 -0.0017697 10.7814 -0.00666188 12.342 0.0129068C13.3449 0.0226912 14.0689 0.780979 14.0934 1.78387C14.0983 1.96489 14.0934 2.1459 14.0934 2.35137C14.9202 2.35137 15.7323 2.35137 16.5444 2.35137C17.3516 2.35137 18.1539 2.35137 18.9856 2.35137C18.7948 2.92864 18.6089 3.49124 18.423 4.04895C17.8946 5.63891 17.3614 7.22887 16.833 8.81882C16.6863 9.26401 16.5248 9.38142 16.0649 9.38142C15.0963 9.38142 14.1228 9.38142 13.1541 9.38142C13.0856 9.38142 13.0171 9.38142 12.9291 9.38142ZM12.9291 2.34158C12.9291 2.17525 12.9291 2.02359 12.9291 1.86704C12.9291 1.40228 12.704 1.17724 12.2295 1.17724C11.2364 1.17724 10.2384 1.17724 9.24525 1.17724C8.72668 1.17724 8.20322 1.17235 7.68465 1.17724C7.35687 1.18214 7.10248 1.38761 7.07802 1.69092C7.05845 1.90129 7.07313 2.11654 7.07313 2.33669C9.02511 2.34158 10.9624 2.34158 12.9291 2.34158Z" fill="#FF7316"/>
<path d="M11.7459 10.5413C10.5816 10.5413 9.42704 10.5413 8.25781 10.5413C8.25781 10.1646 8.25781 9.78298 8.25781 9.3916C9.41726 9.3916 10.5767 9.3916 11.7459 9.3916C11.7459 9.77319 11.7459 10.1548 11.7459 10.5413Z" fill="#FF7316"/>
</svg>
