<svg width="104" height="92" viewBox="0 0 104 92" fill="none" xmlns="http://www.w3.org/2000/svg">
<path d="M2 82.3309C2 60.8024 2 39.1662 2 17.6377C2.10764 17.9606 2.32293 18.1759 2.43057 18.4988C5.76749 28.5096 8.99677 38.4127 12.3337 48.4235C13.733 52.7292 16.8547 54.9897 21.3757 54.9897C26.3272 54.9897 31.2788 54.9897 36.2304 54.9897C36.5533 54.9897 36.8762 54.9897 37.3068 54.9897C37.3068 55.9585 37.3068 56.9273 37.3068 57.7884C37.3068 59.6183 38.4908 60.91 40.3208 60.91C48.071 60.91 55.8213 60.91 63.4639 60.91C65.4015 60.91 66.5856 59.726 66.5856 57.7884C66.5856 56.9273 66.5856 56.0661 66.5856 55.0973C67.0161 55.0973 67.3391 55.0973 67.7696 55.0973C72.7212 55.0973 77.5651 55.0973 82.5167 55.0973C87.1453 55.0973 90.1593 52.8368 91.6663 48.4235C94.8956 38.8433 98.0172 29.2631 101.246 19.5753C101.462 19.0371 101.677 18.4988 101.892 17.853C102 18.0683 102 18.1759 102 18.2836C102 39.2739 102 60.2642 102 81.2545C102 82.5462 101.677 84.0532 101.139 85.2373C99.4166 88.7895 96.5102 90.1888 92.6351 90.1888C65.5091 90.1888 38.4909 90.1888 11.3649 90.1888C11.1496 90.1888 10.9343 90.1888 10.7191 90.1888C7.8127 90.0812 5.33692 89.0048 3.72228 86.529C2.96878 85.2373 2.53821 83.7303 2 82.3309Z" stroke="#FF7316" stroke-width="3" stroke-miterlimit="10"/>
<path d="M66.6924 49.0691C66.6924 48.1003 66.6924 47.2392 66.6924 46.378C66.6924 44.4405 65.5083 43.2564 63.5707 43.2564C55.8205 43.2564 48.0702 43.2564 40.4276 43.2564C38.5977 43.2564 37.4136 44.4405 37.4136 46.378C37.4136 47.2392 37.4136 48.1003 37.4136 49.0691C37.0907 49.0691 36.8754 49.1768 36.6601 49.1768C31.6009 49.1768 26.5417 49.1768 21.3748 49.1768C19.5449 49.1768 18.5761 48.5309 18.0379 46.8086C14.4857 36.0444 10.8259 25.2801 7.27366 14.5158C7.27366 14.4082 7.16602 14.3005 7.16602 14.0853C15.3469 14.0853 23.42 14.0853 31.7085 14.0853C31.7085 12.7936 31.6009 11.5018 31.7085 10.3178C32.2467 5.5815 35.6913 2.35222 40.4276 2.35222C48.2855 2.24457 56.0358 2.24457 63.8937 2.35222C68.9529 2.45986 72.5051 6.22735 72.7204 11.1789C72.7204 12.0401 72.7204 13.0088 72.7204 13.9776C76.8108 13.9776 80.9012 13.9776 84.9916 13.9776C88.9744 13.9776 93.0648 13.9776 97.1552 13.9776C96.1865 16.884 95.2177 19.6827 94.3565 22.4814C91.6655 30.4469 89.082 38.4125 86.391 46.378C85.6375 48.6385 84.884 49.1768 82.5158 49.1768C77.6719 49.1768 72.828 49.1768 67.9841 49.1768C67.5535 49.0691 67.123 49.0691 66.6924 49.0691ZM66.6924 13.87C66.6924 13.0088 66.6924 12.2553 66.6924 11.5018C66.6924 9.1337 65.616 8.05728 63.2478 8.05728C58.2963 8.05728 53.2371 8.05728 48.2855 8.05728C45.7021 8.05728 43.1187 8.05728 40.4276 8.05728C38.8129 8.05728 37.5212 9.1337 37.4136 10.6407C37.306 11.7171 37.4136 12.7936 37.4136 13.87C47.2091 13.87 56.8969 13.87 66.6924 13.87Z" stroke="#FF7316" stroke-width="3" stroke-miterlimit="10"/>
<path d="M60.7721 54.8818C54.9594 54.8818 49.1467 54.8818 43.334 54.8818C43.334 52.9442 43.334 51.1143 43.334 49.1768C49.1467 49.1768 54.9594 49.1768 60.7721 49.1768C60.7721 51.1143 60.7721 52.9442 60.7721 54.8818Z" stroke="#FF7316" stroke-width="3" stroke-miterlimit="10"/>
</svg>
