<svg width="100" height="101" viewBox="0 0 100 101" fill="none" xmlns="http://www.w3.org/2000/svg">
<path d="M99.5526 44.0326C99.5526 48.1488 99.5526 52.0483 99.5526 56.1645C99.3361 57.031 99.3361 57.8976 99.1196 58.7641C96.5216 72.1958 89.3773 83.0277 78.1195 91.0434C65.7793 99.709 51.9236 102.525 37.2019 98.4091C23.5626 94.5096 13.3874 86.2773 6.24301 73.9289C0.830627 64.3968 -1.11783 53.9981 0.614131 43.1661C2.34609 32.1175 7.32549 23.0186 14.9028 15.4362C22.4802 7.85386 31.3565 2.87116 41.9648 1.13804C43.4802 0.704763 45.4287 0.488124 47.1607 0.271484C49.1091 0.271484 50.8411 0.271484 52.7895 0.271484C53.006 0.271484 53.2225 0.488124 53.439 0.488124C58.4184 0.921403 63.1813 2.0046 67.7277 3.95435C70.9752 5.25419 74.0061 6.98731 77.47 8.50378C77.903 8.0705 78.5525 7.42059 78.9855 6.77067C81.1504 4.60427 83.3154 2.65452 85.4803 0.488124C85.9133 0.488124 86.3463 0.488124 86.5628 0.488124C87.6453 0.921403 88.0783 1.78796 88.0783 2.87116C88.0783 3.52108 88.0783 4.17099 88.0783 4.82091C88.0783 6.12075 88.0783 7.63722 88.0783 9.1537C88.5113 8.72042 88.7278 8.50378 88.9443 8.28714C90.2432 6.98731 91.3257 5.90411 92.6247 4.60427C93.2742 3.95435 94.1402 3.95435 95.0061 4.38763C95.6556 4.82091 96.0886 5.68747 95.8721 6.55403C95.6556 6.98731 95.4391 7.42059 95.0061 7.63723C93.7072 8.93706 92.4082 10.2369 90.8927 11.7534C93.2742 11.7534 95.2226 11.7534 97.1711 11.7534C98.0371 11.7534 98.9031 11.97 99.5526 12.6199C99.5526 13.4865 99.5526 14.1364 99.5526 15.003C96.9546 17.6026 94.5732 20.2023 91.9752 22.802C91.9752 22.802 92.1917 23.0186 92.1917 23.2353C95.2226 28.0013 97.1711 33.2007 98.4701 38.6167C98.9031 40.3498 99.1196 42.2995 99.5526 44.0326ZM69.2432 33.634C69.2432 33.8506 69.4597 33.8506 69.2432 33.634C69.4597 34.0672 69.4597 34.0672 69.6762 34.2839C74.2226 40.1331 75.9545 46.6323 75.0886 53.9981C72.9236 68.7295 58.2019 78.4783 43.6967 74.7954C33.0884 71.9791 25.9441 63.0969 24.8616 53.1315C23.7791 43.3827 28.542 33.634 37.2019 28.6512C38.7173 27.7847 40.2328 27.1348 41.7483 26.4849C42.8307 26.0516 43.9132 26.4849 44.1297 27.5681C44.5627 28.6512 44.1297 29.7344 43.0472 30.1677C42.8307 30.3844 42.6142 30.3844 42.1813 30.3844C32.2225 34.2839 26.8101 44.8992 29.1915 55.0813C31.573 65.6966 41.3153 72.6291 51.9235 71.7625C60.1504 70.8959 66.2122 66.7798 69.6762 59.1974C72.9236 51.615 72.0576 44.4659 67.2947 37.7501C67.0782 37.5335 66.8617 37.3168 66.6452 37.1002C64.6968 39.0499 62.9648 40.7831 61.2329 42.5162C65.9958 49.4486 63.6143 57.4643 58.6349 61.3638C53.2225 65.4799 45.6452 65.0467 40.8823 60.2806C36.1194 55.5145 35.2534 48.1488 39.1503 42.7328C41.0988 39.9165 43.6967 38.1834 46.9442 37.3168C51.0576 36.2336 54.9545 37.1002 58.2019 39.4832C60.1504 37.5335 61.8823 35.8004 63.8308 34.0672C63.8308 34.0672 63.6143 33.8506 63.3978 33.634C61.4494 32.5508 59.5009 31.4676 57.5524 30.3844C56.47 29.7344 55.8205 28.8679 56.2535 27.7847C56.6865 26.7015 57.7689 26.2682 58.8514 26.7015C59.2844 26.9181 59.7174 26.9181 60.1504 27.1348C62.3153 28.4346 64.6968 29.7344 67.0782 31.0343C67.2947 30.601 68.1607 29.7344 68.1607 29.0845C68.3772 26.9181 68.3772 24.7517 68.3772 22.5853C68.3772 21.9354 68.1607 21.7188 67.7277 21.5021C60.5834 17.6026 53.006 16.0862 44.9957 17.386C36.7689 18.6858 29.841 22.802 24.6451 29.0845C18.7997 36.2336 15.9853 44.2493 16.8513 53.5648C17.7173 63.3136 22.2637 71.3292 30.0575 77.1785C37.2019 82.5945 45.6452 84.7609 54.9545 83.461C63.1813 82.1612 70.1092 78.2617 75.5215 71.7625C85.4803 60.2806 85.9133 44.8992 79.202 32.7674C78.9855 32.3341 78.5525 32.1175 77.903 32.1175C75.9545 32.1175 74.0061 32.3341 72.0576 32.3341C70.7587 32.3341 69.8927 32.7674 69.2432 33.634ZM88.9443 25.6183C86.9958 27.5681 85.2638 29.3012 83.5319 31.0343C83.0989 31.4676 82.8824 31.9008 83.3154 32.5508C86.9958 40.1331 88.5113 47.9322 86.9958 56.3811C85.2638 66.7798 79.8515 75.0121 71.1916 81.078C62.9648 86.9273 53.6555 89.0937 43.4802 87.3605C36.5524 86.0607 30.274 83.2444 25.0781 78.4783C15.1193 68.7295 10.7894 57.2477 13.1709 43.5994C16.8513 22.1521 38.7173 8.28714 59.7174 13.9198C62.7483 14.7863 65.5628 15.8695 68.3772 16.9527C70.1092 15.2196 72.0576 13.2698 74.2226 11.1035C72.0576 10.0203 69.6762 8.93706 67.5112 7.85386C57.9854 3.95435 48.2431 2.87116 38.2843 5.90411C25.7276 9.58698 16.2018 17.1694 9.92344 28.6512C3.42857 39.9165 2.1296 52.0483 6.676 64.3968C11.2224 77.3951 20.0987 86.7106 32.6555 92.3432C39.5833 95.5928 47.1607 96.676 54.738 95.8095C62.9648 94.9429 70.3257 91.91 76.8205 86.9273C91.9752 75.662 100.202 56.3811 93.7072 36.017C92.6247 32.3341 91.1092 28.8679 88.9443 25.6183ZM55.3875 42.0829C51.2741 39.2666 45.4287 40.1331 42.3978 44.2493C39.1503 48.3654 39.7998 54.2147 43.6967 57.6809C47.5936 61.1472 53.6555 60.7139 57.1194 57.031C60.7999 53.1315 60.1504 47.4989 57.9854 45.1158C57.3359 45.7658 56.9029 46.4157 56.2535 46.849C54.738 48.3654 53.006 50.0986 51.4906 51.615C50.6246 52.4816 49.5421 52.4816 48.6761 51.615C47.8101 50.7485 48.0266 49.6653 48.6761 48.7987C48.8926 48.5821 49.1091 48.3654 49.3256 47.9322C51.4906 45.9824 53.439 44.0326 55.3875 42.0829ZM93.0577 16.0862C93.0577 16.0862 93.0577 15.8695 92.8412 15.8695C91.1092 15.8695 89.5938 15.8695 87.8618 15.8695C87.2123 15.8695 86.7793 16.0862 86.3463 16.5194C82.6659 20.2023 78.9855 23.8852 75.3051 27.5681C75.0886 27.7847 74.8721 28.0013 74.6556 28.218C76.171 28.218 77.6865 28.218 79.202 28.218C80.5009 28.218 81.3669 27.7847 82.2329 26.9181C84.1814 24.9684 85.9133 23.0186 87.8618 21.0689C89.5938 19.3358 91.3257 17.8193 93.0577 16.0862ZM84.1814 6.98731C83.7484 7.42059 83.5319 7.63722 83.3154 7.85386C80.7174 10.4535 77.903 13.2698 75.3051 15.8695C74.2226 16.9527 72.7071 17.8193 72.0576 19.3358C71.4081 20.6356 71.8411 22.3687 71.8411 23.8852C71.8411 24.3185 71.8411 24.7517 71.8411 25.6183C75.9545 21.5021 79.8515 17.6026 83.7484 13.4865C83.9649 13.2698 83.9649 13.0532 83.9649 12.8366C84.1814 10.8868 84.1814 9.1537 84.1814 6.98731Z" fill="#FF7316"/>
<path d="M49.9758 28.6515C48.8933 28.6515 48.0273 27.7849 48.0273 26.7017C48.0273 25.6185 48.8933 24.752 49.9758 24.752C51.0583 24.752 51.9243 25.6185 51.9243 26.7017C51.9243 27.7849 51.0583 28.6515 49.9758 28.6515Z" fill="#FF7316"/>
</svg>
