<svg width="20" height="20" viewBox="0 0 20 20" fill="none" xmlns="http://www.w3.org/2000/svg">
<path d="M19.6922 5.55556C17.9447 3.80282 16.1972 2.05008 14.4392 0.302556C14.3192 0.182577 14.1628 0.0991132 14.0219 0C11.3406 0 8.65936 0 5.97809 0C5.84246 0.0991132 5.69118 0.17736 5.57121 0.292123C3.80803 2.05008 2.05008 3.81325 0.28169 5.57121C0.0886802 5.76421 0 5.96766 0 6.24413C0.00521648 8.74283 0.00521648 11.2415 0 13.7402C0 14.0167 0.0834638 14.2201 0.28169 14.4131C2.05008 16.1815 3.81847 17.9447 5.58164 19.7183C5.77465 19.9113 5.98331 20 6.25456 20C8.75326 19.9948 11.252 19.9948 13.7507 20C14.0271 20 14.2306 19.9113 14.4236 19.7183C16.1763 17.9551 17.9395 16.2024 19.6922 14.4392C19.8122 14.3192 19.8957 14.1575 20 14.0167C20 11.3354 20 8.65415 20 5.97287C19.8957 5.83203 19.8122 5.67553 19.6922 5.55556ZM18.6959 13.782C17.0579 15.4199 15.4199 17.0579 13.782 18.6959C13.6933 18.7846 13.6046 18.8211 13.4742 18.8211C12.3161 18.8159 11.1581 18.8159 10 18.8159C8.84194 18.8159 7.68388 18.8159 6.52582 18.8159C6.40063 18.8159 6.31195 18.7846 6.21805 18.6907C4.58007 17.0475 2.93166 15.4043 1.29369 13.7559C1.22587 13.6881 1.17371 13.5681 1.17371 13.4742C1.16849 11.1528 1.16849 8.82629 1.17371 6.50496C1.17371 6.41106 1.22066 6.28586 1.28847 6.21805C2.93166 4.56442 4.58007 2.92123 6.22848 1.27804C6.29108 1.21544 6.40584 1.16849 6.49452 1.16849C8.82629 1.16328 11.1528 1.16328 13.4846 1.16849C13.5785 1.16849 13.6985 1.22066 13.7663 1.28847C15.4147 2.92645 17.0579 4.56964 18.6959 6.21805C18.7637 6.28586 18.8159 6.40584 18.8159 6.49974C18.8211 8.82107 18.8211 11.1476 18.8263 13.469C18.8263 13.6046 18.7846 13.6933 18.6959 13.782Z" fill="#FF7316"/>
<path d="M10.8863 2.8379C10.2916 2.83268 9.70212 2.83268 9.10744 2.8379C8.18933 2.84311 7.61552 3.42736 7.65204 4.34024C7.68855 5.36267 7.74593 6.37989 7.7981 7.40232C7.85026 8.49257 7.90764 9.58803 7.96503 10.6783C7.99632 11.3355 8.46581 11.8885 9.12308 11.9511C9.68647 12.0033 10.2551 12.0085 10.8184 11.9615C11.5279 11.9041 12.0026 11.3564 12.0339 10.6418C12.0495 10.3236 12.0652 10.0053 12.0808 9.68714C12.1695 7.90832 12.2634 6.12428 12.3417 4.34546C12.3834 3.42736 11.8044 2.84311 10.8863 2.8379Z" fill="#FF7316"/>
<path d="M10.0155 13.1563C8.89919 13.1511 8.00195 14.0379 8.00195 15.149C8.00195 16.2549 8.88354 17.1417 9.98943 17.1469C11.0953 17.1521 11.9873 16.2705 11.9926 15.1646C12.003 14.0639 11.1162 13.1615 10.0155 13.1563Z" fill="#FF7316"/>
</svg>
