<svg width="100" height="91" viewBox="0 0 100 91" fill="none" xmlns="http://www.w3.org/2000/svg">
<path d="M0 88.6154C0.634249 87.7697 1.2685 87.7697 2.11416 87.7697C4.01691 87.7697 5.91966 87.7697 8.03383 87.7697C8.03383 87.3469 8.03383 86.924 8.03383 86.7126C8.03383 81.85 8.03383 76.776 8.03383 71.9135C8.03383 69.3765 9.30233 68.108 11.8393 68.108C15.0106 68.108 18.1818 68.108 21.3531 68.108C24.1015 68.108 25.37 69.3765 25.37 72.1249C25.37 76.9875 25.37 81.85 25.37 86.5012C25.37 86.924 25.37 87.3469 25.37 87.7697C27.0613 87.7697 28.5412 87.7697 30.2326 87.7697C30.2326 86.7126 30.2326 85.4441 30.2326 84.387C30.2326 82.9071 30.2326 81.4272 30.2326 79.9473C30.2326 78.8902 30.8668 78.0445 31.7125 78.0445C32.5581 78.0445 33.1924 78.6788 33.1924 79.7359C33.1924 82.0615 33.1924 84.1756 33.1924 86.5012C33.1924 86.924 33.1924 87.1354 33.1924 87.5583C36.9979 87.5583 40.8034 87.5583 44.6089 87.5583C44.6089 87.1354 44.6089 86.924 44.6089 86.5012C44.6089 78.256 44.6089 69.7993 44.6089 61.5541C44.6089 60.2856 44.6089 60.2856 43.3404 60.2856C40.3805 60.2856 37.4207 60.2856 34.2495 60.2856C33.1924 60.2856 32.981 60.7084 32.981 61.5541C32.981 65.3596 32.981 68.9536 32.981 72.7591C32.981 72.9705 32.981 73.182 32.981 73.6048C32.981 74.4505 32.3467 75.0847 31.5011 75.0847C30.6554 75.0847 30.0211 74.4505 30.0211 73.6048C30.0211 69.1651 30.0211 64.9367 30.0211 60.497C30.0211 58.5942 31.5011 57.3257 33.4038 57.3257C36.7865 57.3257 40.1691 57.3257 43.5518 57.3257C45.8774 57.3257 47.1459 58.8056 47.1459 60.9198C47.1459 64.3025 47.1459 67.6851 47.1459 71.2792C47.1459 76.3532 47.1459 81.4272 47.1459 86.5012C47.1459 86.924 47.1459 87.1354 47.1459 87.5583C48.8372 87.5583 50.3171 87.5583 52.0085 87.5583C52.0085 87.1354 52.0085 86.7126 52.0085 86.2898C52.0085 74.4505 52.0085 62.6111 52.0085 50.7718C52.0085 47.812 53.277 46.5435 56.2368 46.5435C59.1966 46.5435 62.3679 46.5435 65.3277 46.5435C67.8647 46.5435 69.3446 47.812 69.3446 50.5604C69.3446 62.6111 69.3446 74.4505 69.3446 86.5012C69.3446 86.924 69.3446 87.3469 69.3446 87.7697C70.8245 87.7697 72.5159 87.7697 74.2072 87.7697C74.2072 87.3469 74.2072 86.924 74.2072 86.5012C74.2072 71.0678 74.2072 55.6344 74.2072 39.9896C74.2072 38.9325 74.4186 37.8754 75.0528 37.2412C75.6871 36.3955 76.5328 35.9727 77.5899 35.9727C81.1839 35.9727 84.778 35.9727 88.3721 35.9727C90.2748 35.9727 91.5433 37.4526 91.7548 39.3553C91.7548 44.2179 91.7548 49.0805 91.7548 53.9431C91.7548 55.0001 91.1205 55.6344 90.2748 55.6344C89.4292 55.6344 88.7949 55.0001 88.7949 53.9431C88.7949 49.2919 88.7949 44.6407 88.7949 39.9896C88.7949 39.1439 88.5835 38.7211 87.7378 38.7211C84.778 38.7211 81.6068 38.7211 78.6469 38.7211C77.8013 38.7211 77.5899 38.9325 77.5899 39.7782C77.5899 55.423 77.5899 71.0678 77.5899 86.5012C77.5899 86.924 77.3784 87.3469 78.2241 87.3469C81.8182 87.3469 85.2008 87.3469 88.7949 87.3469C88.7949 87.3469 89.0063 87.3469 89.0063 87.1354C89.0063 86.7126 89.0063 86.5012 89.0063 86.0784C89.0063 77.6217 89.0063 69.1651 89.0063 60.7084C89.0063 60.2856 89.0063 60.0741 89.0063 59.6513C89.2178 58.8056 89.6406 58.3828 90.2748 58.3828C91.1205 58.3828 91.5433 58.8056 91.7548 59.6513C91.7548 59.8627 91.7548 60.2856 91.7548 60.7084C91.7548 69.1651 91.7548 77.6217 91.7548 86.0784C91.7548 86.5012 91.7548 86.924 91.7548 87.3469C92.1776 87.3469 92.6004 87.3469 92.8118 87.3469C94.7146 87.3469 96.4059 87.3469 98.3087 87.3469C99.3657 87.3469 100 87.9811 100 88.8268C100 89.6725 99.3657 90.3067 98.3087 90.3067C98.0972 90.3067 97.8858 90.3067 97.6744 90.3067C65.9619 90.3067 34.0381 90.3067 2.32558 90.3067C1.47992 90.3067 0.634249 90.0953 0 89.461C0 89.461 0 89.0382 0 88.6154ZM66.8076 87.7697C66.8076 87.5583 66.8076 87.1355 66.8076 86.924C66.8076 74.8733 66.8076 62.8226 66.8076 50.7718C66.8076 49.9261 66.3848 49.5033 65.5391 49.7147C62.5793 49.7147 59.6194 49.7147 56.6596 49.7147C55.3911 49.7147 55.3911 49.7147 55.3911 50.9832C55.3911 62.8226 55.3911 74.8733 55.3911 86.7126C55.3911 87.1355 55.3911 87.3469 55.3911 87.7697C59.1966 87.7697 63.0021 87.7697 66.8076 87.7697ZM22.6216 87.7697C22.6216 87.5583 22.6216 87.3469 22.6216 87.3469C22.6216 82.2729 22.6216 77.1989 22.6216 71.9135C22.6216 71.0678 22.1987 71.0678 21.5645 71.0678C18.3932 71.0678 15.4334 71.0678 12.2622 71.0678C11.2051 71.0678 10.9937 71.4906 10.9937 72.3363C10.9937 77.1989 10.9937 82.0615 10.9937 86.7126C10.9937 87.1355 10.9937 87.3469 10.9937 87.7697C15.0106 87.7697 18.6047 87.7697 22.6216 87.7697Z" fill="#FF7316"/>
<path d="M80.9723 19.0591C80.3381 13.7737 79.9152 8.69971 79.281 3.62572C74.207 4.89422 69.3444 6.16272 64.2704 7.64263C65.3275 8.4883 66.3846 9.12255 67.4417 9.7568C68.4987 10.6025 68.7102 11.2367 68.0759 12.2938C65.9618 15.8879 63.2133 19.0591 60.2535 22.019C59.6193 22.6532 58.7736 22.6532 58.1393 22.019C57.5051 21.3847 57.7165 20.539 58.3508 19.9048C60.4649 17.3678 62.5791 14.8308 64.6933 12.2938C64.9047 12.0824 65.1161 11.871 65.1161 11.4481C63.6362 10.391 61.9448 9.33396 60.4649 8.27688C59.6193 7.85405 59.1964 7.43121 59.4078 6.58555C59.6193 5.73988 60.0421 5.52847 60.8878 5.31705C67.2302 3.62572 73.3613 2.1458 79.7038 0.454471C81.6066 0.031638 82.0294 0.243054 82.2408 2.1458C82.8751 8.69971 83.5093 15.2536 84.1436 21.5961C84.1436 22.2304 84.1436 23.076 83.2979 23.2874C82.8751 23.4989 82.0294 23.2875 81.6066 23.076C79.9152 22.019 78.4353 20.9619 76.744 19.6934C76.5326 19.9048 76.5326 20.1162 76.3212 20.3276C66.596 32.8012 54.1224 41.0464 39.1119 45.909C31.5009 48.446 23.8899 49.7145 16.0675 50.3488C14.1647 50.5602 12.6848 49.5031 12.262 47.8118C11.8391 45.909 12.6848 44.4291 14.799 43.7949C21.9871 41.4693 28.7524 38.9323 35.5178 35.5496C41.8603 32.3784 47.5685 28.5729 53.0653 24.1331C53.4882 23.9217 53.911 23.4989 54.1224 23.4989C54.7567 23.4989 55.3909 23.9217 55.6023 24.3445C56.0252 24.9788 55.8138 25.8244 55.1795 26.2473C52.6425 28.15 50.3169 30.0528 47.7799 31.7441C38.4776 38.298 27.9068 42.9492 16.9131 46.3318C16.4903 46.5433 16.0675 46.5433 15.856 46.7547C15.6446 46.7547 15.4332 47.1775 15.4332 47.1775C15.6446 47.1775 15.856 47.3889 16.0675 47.3889C17.336 47.3889 18.8159 47.1775 20.0844 46.9661C29.3867 45.909 38.2662 43.5834 46.7229 39.7779C57.9279 34.7039 67.2302 27.5158 74.6298 17.7906C74.8412 17.5792 75.0527 17.1564 75.2641 16.945C75.8983 16.0993 76.5326 16.0993 77.5897 16.5221C78.6467 17.3678 79.7038 18.2135 80.9723 19.0591Z" fill="#FF7316"/>
</svg>
