<svg width="20" height="20" viewBox="0 0 20 20" fill="none" xmlns="http://www.w3.org/2000/svg">
<path d="M0 11.3335C0 10.4722 0 9.61585 0 8.75459C0.0978713 8.48055 0.298507 8.33863 0.582334 8.27012C1.23318 8.11353 1.87913 7.93736 2.52997 7.78077C2.65721 7.75141 2.72572 7.69758 2.77465 7.57034C2.88231 7.27673 2.99976 6.98801 3.12699 6.70418C3.18082 6.58674 3.18082 6.49865 3.11231 6.3861C2.75997 5.80866 2.41253 5.22633 2.06508 4.64889C1.83998 4.27698 1.86934 4.05187 2.17764 3.74358C2.66699 3.25422 3.15146 2.76486 3.64081 2.2804C3.97357 1.94764 4.18889 1.91828 4.59016 2.16296C5.16271 2.50551 5.74015 2.84805 6.3127 3.20039C6.42036 3.26401 6.50355 3.26401 6.6161 3.21507C6.90482 3.08295 7.20333 2.9655 7.50183 2.85295C7.61928 2.80891 7.67311 2.7404 7.70247 2.62295C7.86396 1.93296 8.03034 1.24297 8.20162 0.557866C8.29459 0.156594 8.49523 0 8.90629 0C9.59139 0 10.2716 0 10.9567 0C11.4607 0 11.6418 0.141913 11.7592 0.636163C11.9158 1.30169 12.0773 1.96232 12.2339 2.62784C12.2584 2.7404 12.3122 2.80401 12.4248 2.84316C12.7282 2.95571 13.0316 3.07805 13.3252 3.21018C13.4328 3.25911 13.5111 3.25422 13.609 3.1955C14.1913 2.84316 14.7786 2.49572 15.3658 2.14338C15.7377 1.92317 15.9628 1.94764 16.2711 2.25593C16.7654 2.75018 17.2547 3.23954 17.749 3.73379C18.0621 4.04698 18.0915 4.27208 17.8566 4.65378C17.5092 5.23611 17.1617 5.81356 16.8094 6.391C16.7507 6.48887 16.7409 6.56716 16.7898 6.67482C16.9268 6.96844 17.0492 7.27184 17.1617 7.57524C17.2058 7.69268 17.2743 7.74162 17.3917 7.77098C18.0817 7.93736 18.7668 8.10864 19.4568 8.27502C19.8483 8.37289 20.0049 8.56374 20.0049 8.96501C20.0049 9.67458 20.0049 10.3841 20.0049 11.0937C20.0049 11.5048 19.8532 11.6956 19.447 11.7984C18.757 11.9697 18.0719 12.1409 17.3819 12.3024C17.2596 12.3318 17.196 12.3856 17.1519 12.5031C17.0394 12.8065 16.9171 13.1099 16.78 13.4035C16.736 13.5062 16.7409 13.5796 16.7947 13.6726C17.1519 14.2598 17.5092 14.852 17.8615 15.4441C18.0768 15.8062 18.0475 16.0362 17.749 16.3347C17.2547 16.829 16.7654 17.3183 16.2711 17.8126C15.9481 18.1356 15.7279 18.16 15.3364 17.9251C14.7541 17.5777 14.1767 17.2302 13.5992 16.8779C13.5062 16.8241 13.4328 16.8143 13.3301 16.8583C13.0267 16.9953 12.7233 17.1177 12.4101 17.2351C12.2975 17.2792 12.2535 17.3428 12.2241 17.4553C12.0675 18.1013 11.9011 18.7424 11.7494 19.3883C11.6809 19.6819 11.539 19.8972 11.2454 20C10.3841 20 9.52777 20 8.6665 20C8.37289 19.8972 8.23098 19.6819 8.16247 19.3883C8.01077 18.7424 7.84438 18.1013 7.68779 17.4553C7.65843 17.333 7.59971 17.2743 7.48226 17.2302C7.17886 17.1177 6.87546 16.9953 6.58184 16.8583C6.47908 16.8143 6.40568 16.8192 6.3127 16.873C5.72547 17.2302 5.13335 17.5875 4.54123 17.9398C4.1791 18.1551 3.94911 18.1258 3.6506 17.8273C3.15635 17.3379 2.66699 16.8437 2.17274 16.3494C1.84977 16.0264 1.8253 15.8062 2.06019 15.4147C2.40274 14.8422 2.74529 14.2647 3.09763 13.6922C3.16614 13.5796 3.16614 13.4916 3.11231 13.3741C2.98507 13.0903 2.86274 12.8016 2.75997 12.508C2.71593 12.3807 2.64252 12.3269 2.51529 12.2975C1.86445 12.1409 1.2185 11.9599 0.567654 11.8082C0.298507 11.7494 0.0978713 11.6075 0 11.3335ZM9.9584 12.9728C11.5733 12.9777 12.8945 11.6565 12.8945 10.0416C12.8945 8.43651 11.588 7.12014 9.97798 7.11035C8.3631 7.10056 7.03695 8.41693 7.03205 10.0318C7.02716 11.6467 8.34353 12.9679 9.9584 12.9728Z" fill="#FF7316"/>
</svg>
