<svg width="361" height="80" viewBox="0 0 361 80" fill="none" xmlns="http://www.w3.org/2000/svg">
<path fill-rule="evenodd" clip-rule="evenodd" d="M29.8 4.30078C30.4 3.20078 30.4 1.90078 30.6 0.800781C30.9 2.00078 30.7 3.50078 31.6 4.50078C32.6 5.00078 34 5.00078 35.1 5.20078C33.9 5.50078 32.6 5.40078 31.5 6.10078C30.7 7.10078 30.9 8.50078 30.6 9.70078C30.3 8.50078 30.4 7.20078 29.7 6.20078C28.7 5.40078 27.2 5.50078 26 5.20078C27.3 4.90078 28.8 5.10078 29.8 4.30078Z" fill="#EF7726"/>
<path fill-rule="evenodd" clip-rule="evenodd" d="M48.6992 0C49.1992 1.7 48.8992 3.8 50.0992 5.3C51.5992 6.3 53.5992 6.2 55.2992 6.6C53.4992 7 51.4992 6.8 49.9992 7.9C48.9992 9.4 49.1992 11.4 48.6992 13.1C48.3992 11.6 48.2992 10 47.7992 8.5C47.5992 7.8 46.8992 7.4 46.2992 7.2C44.8992 6.9 43.5992 6.7 42.1992 6.5C43.5992 6.2 44.9992 6.1 46.3992 5.7C47.0992 5.5 47.7992 5 47.8992 4.2C48.2992 2.9 48.4992 1.5 48.6992 0Z" fill="#EF7726"/>
<path fill-rule="evenodd" clip-rule="evenodd" d="M62.7 8C63.1 10.2 63.3 12.5 63.9 14.7C64.2 15.7 65 16.6 66.1 16.8C68.3 17.4 70.6 17.6 72.8 18.1C70.5 18.5 68.2 18.7 66 19.4C64.9 19.7 64.2 20.6 63.9 21.7C63.3 23.9 63.1 26.1 62.7 28.3C62.3 26.1 62.1 23.9 61.5 21.7C61.2 20.6 60.4 19.7 59.3 19.4C57.1 18.8 54.8 18.6 52.5 18.1C54.7 17.7 56.9 17.5 59.1 16.9C60.2 16.6 61.1 15.9 61.4 14.8C62.1 12.6 62.3 10.3 62.7 8Z" fill="#EF7726"/>
<path fill-rule="evenodd" clip-rule="evenodd" d="M349.999 16.2008C350.399 14.4008 350.599 12.6008 350.999 10.8008C351.599 13.2008 351.299 16.1008 352.899 18.2008C354.999 19.7008 357.899 19.4008 360.299 20.1008C358.199 20.5008 356.099 20.6008 354.099 21.3008C353.099 21.6008 352.399 22.5008 352.199 23.4008C351.699 25.3008 351.499 27.3008 351.099 29.3008C350.599 27.3008 350.499 25.1008 349.899 23.1008C349.599 22.2008 348.899 21.5008 347.999 21.3008C345.999 20.7008 343.799 20.5008 341.799 20.1008C343.999 19.6008 346.199 19.6008 348.299 18.8008C349.299 18.4008 349.799 17.3008 349.999 16.2008Z" fill="#EF7726"/>
<path fill-rule="evenodd" clip-rule="evenodd" d="M107.2 24.3008C109.1 23.1008 110.5 21.1008 110.6 18.8008C111.7 20.8008 112.3 23.1008 112.1 25.3008C112 26.7008 111 27.7008 110.1 28.6008C105.4 33.0008 99.8002 36.4008 95.7002 41.4008C94.1002 43.3008 93.0002 46.2008 94.7002 48.4008L94.6002 48.7008C93.6002 48.8008 92.5002 48.8008 91.5002 48.8008C89.2002 47.3008 87.4002 44.8008 87.2002 42.0008C86.9002 39.0008 88.4002 36.1008 90.7002 34.2008C95.7002 30.1008 101.9 27.8008 107.2 24.3008Z" fill="#EF7726"/>
<path fill-rule="evenodd" clip-rule="evenodd" d="M100.599 21.3008C101.099 22.8008 101.799 24.6008 100.699 26.0008C99.5993 27.2008 98.2993 28.1008 96.9993 29.1008C94.0993 30.8008 91.0993 32.6008 88.7993 35.2008C88.0993 33.5008 88.1993 31.4008 89.5993 30.1008C92.2993 27.4008 96.0993 26.2008 99.0993 24.0008C99.8993 23.4008 100.299 22.3008 100.599 21.3008Z" fill="#EF7726"/>
<path fill-rule="evenodd" clip-rule="evenodd" d="M102.399 24.9004C103.099 24.9004 103.899 24.9004 104.599 24.9004C103.699 25.5004 102.699 26.0004 101.699 26.5004C101.999 26.0004 102.199 25.4004 102.399 24.9004Z" fill="#4F5253"/>
<path fill-rule="evenodd" clip-rule="evenodd" d="M75.2996 29.701C76.6996 26.801 79.8996 25.001 83.0996 24.901C87.5996 24.801 91.9996 24.901 96.4996 24.901C94.0996 26.301 91.3996 27.401 89.3996 29.401C88.3996 30.301 87.8996 31.601 87.6996 32.901C86.1996 32.901 84.3996 33.201 83.7996 34.801C82.8996 37.401 83.4996 40.101 83.2996 42.801C83.2996 44.801 83.0996 47.501 85.1996 48.501C87.2996 49.201 89.4996 48.701 91.5996 48.801C92.5996 48.801 93.6996 48.901 94.6996 48.701C94.8996 48.701 95.3996 48.701 95.5996 48.701C95.5996 46.901 95.3996 44.901 96.4996 43.201C98.5996 39.601 102 36.901 105.2 34.301C105.2 39.101 105.2 43.901 105.2 48.701C108.2 48.701 111.1 48.701 114.1 48.701C115.2 48.701 116.3 48.301 116.8 47.301C117.8 45.701 117.5 43.701 117.5 41.801C117.4 39.701 117.7 37.501 117.3 35.401C117.1 34.001 115.8 32.901 114.4 32.801C111.9 32.701 109.4 32.801 106.9 32.801C108.6 31.401 110.4 30.001 111.9 28.401C112.8 27.401 113.1 26.001 113.3 24.801C116 24.801 118.7 24.501 121.2 25.601C123.5 26.501 125.3 28.601 126.1 31.001C127.4 34.601 126.9 38.501 127 42.301C127 45.801 126.9 49.501 124.9 52.401C123.4 54.801 120.6 56.101 117.8 56.201C113.6 56.301 109.3 56.201 105.1 56.301C105.1 57.001 105.1 57.701 105.1 58.401C101.9 58.401 98.6996 58.401 95.5996 58.401C95.5996 57.701 95.5996 57.001 95.5996 56.301C91.3996 56.301 87.1996 56.301 82.9996 56.301C80.0996 56.201 77.2996 54.801 75.6996 52.301C73.6996 49.201 73.5996 45.501 73.6996 42.001C73.7996 37.901 73.2996 33.401 75.2996 29.701Z" fill="#4F5253"/>
<path fill-rule="evenodd" clip-rule="evenodd" d="M309 26.801C311.1 25.701 313.5 25.501 315.8 25.201C321.2 24.701 326.701 24.701 332.101 25.101C334.701 25.301 337.5 25.501 339.9 26.601C341.1 27.101 341.9 28.201 342.4 29.401C343.3 31.901 343.4 34.601 343.5 37.201C340.3 37.201 337.2 37.201 334 37.201C333.9 35.901 333.601 34.101 332.101 33.601C329.701 32.801 327.1 32.901 324.5 32.801C321.9 32.901 319.3 32.701 316.8 33.501C315.6 33.901 315.401 35.201 315.201 36.301C314.801 39.201 314.8 42.101 315.101 44.901C315.3 46.001 315.4 47.601 316.8 48.001C319.4 48.701 322.1 48.601 324.8 48.701C327.2 48.601 329.7 48.701 332 48.001C333.5 47.501 333.7 45.701 333.9 44.301C337.1 44.301 340.2 44.301 343.4 44.301C343.3 47.201 343.3 50.301 342 53.001C341.2 54.801 339.1 55.401 337.4 55.701C333.2 56.501 328.8 56.601 324.5 56.601C320.2 56.601 315.901 56.501 311.701 55.601C310.001 55.201 308.1 54.601 307.3 53.001C305.9 50.201 305.7 46.901 305.5 43.801C305.4 39.701 305.401 35.401 306.201 31.401C306.701 29.701 307.3 27.701 309 26.801Z" fill="#4F5253"/>
<path fill-rule="evenodd" clip-rule="evenodd" d="M132.299 25.3008C143.399 25.3008 154.499 25.3008 165.699 25.3008C165.699 27.8008 165.699 30.3008 165.699 32.8008C157.799 32.8008 149.799 32.8008 141.899 32.8008C141.899 34.2008 141.899 35.7008 141.899 37.1008C149.499 37.1008 157.099 37.1008 164.699 37.1008C164.699 39.6008 164.699 42.1008 164.699 44.6008C157.099 44.6008 149.499 44.6008 141.999 44.6008C141.999 46.0008 141.999 47.4008 141.999 48.8008C149.899 48.8008 157.899 48.8008 165.799 48.8008C165.799 51.3008 165.799 53.8008 165.799 56.3008C154.699 56.3008 143.599 56.3008 132.399 56.3008C132.299 46.0008 132.299 35.6008 132.299 25.3008Z" fill="#4F5253"/>
<path fill-rule="evenodd" clip-rule="evenodd" d="M171.4 25.3008C174.6 25.3008 177.8 25.3008 180.9 25.3008C180.9 28.9008 180.9 32.6008 180.9 36.2008C187.8 36.2008 194.6 36.2008 201.5 36.2008C201.5 32.6008 201.5 28.9008 201.5 25.3008C204.7 25.3008 207.9 25.3008 211 25.3008C211 35.6008 211 46.0008 211 56.3008C207.8 56.3008 204.6 56.3008 201.5 56.3008C201.5 52.3008 201.5 48.3008 201.5 44.3008C194.6 44.3008 187.8 44.3008 180.9 44.3008C180.9 48.3008 180.9 52.3008 180.9 56.4008C177.7 56.4008 174.5 56.4008 171.4 56.4008C171.4 46.0008 171.4 35.6008 171.4 25.3008Z" fill="#4F5253"/>
<path fill-rule="evenodd" clip-rule="evenodd" d="M216.9 25.3012C220.1 25.3012 223.3 25.3012 226.4 25.3012C226.4 32.1012 226.4 38.9012 226.4 45.7012C226.5 47.2012 225.7 48.5012 225.4 50.0012C226.3 49.4012 226.6 48.3012 227.2 47.5012C232.5 40.1012 237.7 32.6012 243.1 25.2012C248.3 25.2012 253.5 25.2012 258.7 25.2012C258.7 35.5012 258.7 45.9012 258.7 56.2012C255.5 56.2012 252.3 56.2012 249.2 56.2012C249.2 49.3012 249.2 42.4012 249.2 35.4012C249.2 34.0012 250 32.8012 250.1 31.4012C249.1 32.3012 248.7 33.7012 247.8 34.7012C242.7 41.8012 237.6 49.0012 232.5 56.2012C227.3 56.2012 222.1 56.2012 216.9 56.2012C216.9 46.0012 216.9 35.6012 216.9 25.3012Z" fill="#4F5253"/>
<path fill-rule="evenodd" clip-rule="evenodd" d="M264.399 25.3008C267.599 25.3008 270.799 25.3008 273.899 25.3008C273.899 28.9008 273.899 32.6008 273.899 36.2008C275.599 36.2008 277.199 36.2008 278.899 36.2008C282.499 32.6008 286.099 28.9008 289.799 25.3008C294.199 25.3008 298.499 25.3008 302.899 25.3008C297.799 30.2008 292.599 35.1008 287.399 40.1008C293.199 45.5008 298.999 50.9008 304.799 56.3008C300.199 56.3008 295.599 56.3008 290.999 56.3008C286.999 52.3008 282.999 48.2008 278.899 44.2008C277.199 44.2008 275.599 44.2008 273.899 44.2008C273.899 48.2008 273.899 52.3008 273.899 56.3008C270.699 56.3008 267.499 56.3008 264.399 56.3008C264.299 46.0008 264.299 35.6008 264.399 25.3008Z" fill="#4F5253"/>
<path d="M74.5 74.3012V65.2012H76.8V72.4012H80V65.2012H82.3V72.4012H83.3V76.0012H81.1L81 74.3012H74.5Z" fill="#4F5253"/>
<path d="M92.7 74.3012H85.5V65.2012H92.7V67.0012H87.8V68.7012H91.6V70.5012H87.8V72.4012H92.7V74.3012Z" fill="#4F5253"/>
<path d="M102.7 74.3012H100.4V70.6012H97.2004V74.3012H94.9004V65.2012H97.2004V68.8012H100.4V65.2012H102.7V74.3012Z" fill="#4F5253"/>
<path d="M109.801 74.3008H107.501V67.1008H104.801V65.3008H112.601V67.1008H109.901V74.3008H109.801Z" fill="#4F5253"/>
<path d="M114.6 65.3008H120C120.9 65.3008 121.6 65.5008 122 65.9008C122.4 66.3008 122.6 67.0008 122.6 67.9008V69.2008C122.6 70.1008 122.4 70.8008 122 71.2008C121.6 71.6008 120.9 71.8008 120 71.8008H116.9V74.4008H114.6V65.3008ZM120.3 67.9008C120.3 67.4008 120 67.1008 119.5 67.1008H116.9V69.9008H119.5C120 69.9008 120.3 69.6008 120.3 69.1008V67.9008Z" fill="#4F5253"/>
<path d="M137.101 74.2008C135.201 74.4008 133.601 74.5008 132.301 74.5008C131.501 74.5008 130.801 74.3008 130.401 73.9008C130.001 73.5008 129.801 72.9008 129.801 72.0008V67.9008C129.801 67.0008 130.001 66.3008 130.401 65.9008C130.801 65.5008 131.501 65.3008 132.401 65.3008H137.101V67.1008H133.001C132.501 67.1008 132.201 67.4008 132.201 67.9008V72.0008C132.201 72.2008 132.301 72.4008 132.401 72.5008C132.501 72.6008 132.701 72.7008 132.801 72.7008C133.001 72.7008 133.201 72.7008 133.401 72.7008C133.601 72.7008 133.801 72.7008 134.101 72.7008C134.301 72.7008 134.601 72.7008 134.801 72.7008C135.001 72.7008 135.301 72.7008 135.701 72.6008C136.101 72.6008 136.501 72.5008 137.101 72.5008V74.2008Z" fill="#4F5253"/>
<path d="M147.5 71.9012C147.5 72.8012 147.3 73.5012 146.9 73.9012C146.5 74.3012 145.8 74.5012 144.9 74.5012H141.7C140.8 74.5012 140.1 74.3012 139.7 73.9012C139.3 73.5012 139.1 72.8012 139.1 71.9012V67.8012C139.1 66.9012 139.3 66.2012 139.7 65.8012C140.1 65.4012 140.8 65.2012 141.7 65.2012H144.9C145.8 65.2012 146.5 65.4012 146.9 65.8012C147.3 66.2012 147.5 66.9012 147.5 67.8012V71.9012ZM145.2 67.7012C145.2 67.2012 144.9 66.9012 144.4 66.9012H142.2C141.7 66.9012 141.4 67.2012 141.4 67.7012V71.8012C141.4 72.3012 141.7 72.6012 142.2 72.6012H144.4C144.9 72.6012 145.2 72.3012 145.2 71.8012V67.7012Z" fill="#4F5253"/>
<path d="M157.7 74.3012H155.4V67.1012H152.2V74.3012H149.9V65.2012H157.8V74.3012H157.7Z" fill="#4F5253"/>
<path d="M160.1 65.3008H165.5C166.4 65.3008 167.1 65.5008 167.5 65.9008C167.9 66.3008 168.1 67.0008 168.1 67.9008V69.2008C168.1 70.1008 167.9 70.8008 167.5 71.2008C167.1 71.6008 166.4 71.8008 165.5 71.8008H162.4V74.4008H160.1V65.3008ZM165.8 67.9008C165.8 67.4008 165.5 67.1008 165 67.1008H162.4V69.9008H165C165.5 69.9008 165.8 69.6008 165.8 69.1008V67.9008Z" fill="#4F5253"/>
<path d="M178.599 71.9012C178.599 72.8012 178.399 73.5012 177.999 73.9012C177.599 74.3012 176.899 74.5012 175.999 74.5012H172.799C171.899 74.5012 171.199 74.3012 170.799 73.9012C170.399 73.5012 170.199 72.8012 170.199 71.9012V67.8012C170.199 66.9012 170.399 66.2012 170.799 65.8012C171.199 65.4012 171.899 65.2012 172.799 65.2012H175.999C176.899 65.2012 177.599 65.4012 177.999 65.8012C178.399 66.2012 178.599 66.9012 178.599 67.8012V71.9012ZM176.299 67.7012C176.299 67.2012 175.999 66.9012 175.499 66.9012H173.299C172.799 66.9012 172.499 67.2012 172.499 67.7012V71.8012C172.499 72.3012 172.799 72.6012 173.299 72.6012H175.499C175.999 72.6012 176.299 72.3012 176.299 71.8012V67.7012Z" fill="#4F5253"/>
<path d="M180.9 65.3008H186.1C186.9 65.3008 187.6 65.5008 188 65.9008C188.4 66.3008 188.6 66.9008 188.6 67.7008C188.6 68.2008 188.5 68.6008 188.3 69.0008C188.1 69.3008 187.8 69.5008 187.5 69.7008C188.2 69.9008 188.7 70.4008 188.9 71.1008C189 71.4008 189 71.7008 189 72.0008C189 72.8008 188.8 73.5008 188.4 73.9008C188 74.3008 187.4 74.5008 186.5 74.5008H180.9V65.3008ZM186.2 67.9008C186.2 67.4008 185.9 67.1008 185.4 67.1008H183.2V68.9008H185.4C185.9 68.9008 186.2 68.6008 186.2 68.1008V67.9008ZM186.6 71.5008C186.6 71.0008 186.3 70.7008 185.8 70.7008H183.2V72.5008H185.8C186.3 72.5008 186.6 72.2008 186.6 71.7008V71.5008Z" fill="#4F5253"/>
<path d="M199.4 71.9012C199.4 72.8012 199.2 73.5012 198.8 73.9012C198.4 74.3012 197.7 74.5012 196.8 74.5012H193.6C192.7 74.5012 192 74.3012 191.6 73.9012C191.2 73.5012 191 72.8012 191 71.9012V67.8012C191 66.9012 191.2 66.2012 191.6 65.8012C192 65.4012 192.7 65.2012 193.6 65.2012H196.8C197.7 65.2012 198.4 65.4012 198.8 65.8012C199.2 66.2012 199.4 66.9012 199.4 67.8012V71.9012ZM197.1 67.7012C197.1 67.2012 196.8 66.9012 196.3 66.9012H194.1C193.6 66.9012 193.3 67.2012 193.3 67.7012V71.8012C193.3 72.3012 193.6 72.6012 194.1 72.6012H196.3C196.8 72.6012 197.1 72.3012 197.1 71.8012V67.7012Z" fill="#4F5253"/>
<path d="M212.901 65.2012C213.101 65.2012 213.501 65.2012 214.101 65.3012V67.0012H213.601C213.501 67.0012 213.401 67.0012 213.301 67.1012C213.201 67.2012 213.101 67.3012 213.101 67.4012L211.901 69.7012L214.401 74.3012H211.901L209.901 70.6012H209.001V74.3012H206.701V70.6012H205.801L203.801 74.3012H201.301L203.801 69.7012L202.601 67.4012C202.501 67.3012 202.501 67.2012 202.401 67.1012C202.301 67.0012 202.201 67.0012 202.101 67.0012H201.601V65.3012C202.201 65.2012 202.501 65.2012 202.801 65.2012C203.301 65.2012 203.601 65.3012 203.901 65.5012C204.201 65.7012 204.401 66.0012 204.601 66.4012L205.901 68.9012H206.801V65.3012H209.101V68.9012H210.001L211.301 66.4012C211.501 66.0012 211.701 65.7012 212.001 65.5012C212.101 65.3012 212.401 65.2012 212.901 65.2012Z" fill="#4F5253"/>
<path d="M217.9 65.3008H224.7V72.5008H225.7V76.0008H223.5L223.4 74.3008H218.4L218.3 76.0008H216.1V72.5008H216.9C217.2 72.2008 217.3 71.9008 217.5 71.5008C217.6 71.1008 217.7 70.8008 217.7 70.5008L217.9 65.3008ZM222.4 72.5008V67.1008H220L219.8 70.3008C219.8 70.8008 219.6 71.4008 219.4 71.9008C219.3 72.1008 219.2 72.3008 219.1 72.5008H222.4Z" fill="#4F5253"/>
<path d="M235.001 74.3012H227.801V65.2012H235.001V67.0012H230.101V68.7012H233.901V70.5012H230.101V72.4012H235.001V74.3012Z" fill="#4F5253"/>
<path d="M244.999 74.3012H242.699V70.6012H239.499V74.3012H237.199V65.2012H239.499V68.8012H242.699V65.2012H244.999V74.3012Z" fill="#4F5253"/>
<path d="M255.3 74.3012H253V68.7012L249.9 74.3012H247.4V65.2012H249.7V70.8012L252.8 65.2012H255.3V74.3012Z" fill="#4F5253"/>
<path d="M265.6 74.3012H263.3V71.3012H261.6L260 74.3012H257.5L259.2 71.2012C258.6 71.1012 258.3 70.8012 258 70.4012C257.8 70.0012 257.6 69.4012 257.6 68.7012V67.8012C257.6 66.9012 257.8 66.2012 258.2 65.8012C258.6 65.4012 259.3 65.2012 260.2 65.2012H265.6V74.3012ZM259.9 68.8012C259.9 69.3012 260.2 69.6012 260.7 69.6012H263.3V67.1012H260.7C260.2 67.1012 259.9 67.4012 259.9 67.9012V68.8012Z" fill="#4F5253"/>
<path d="M275.9 68.8008H279C279.9 68.8008 280.6 69.0008 281 69.4008C281.4 69.8008 281.6 70.5008 281.6 71.4008V71.8008C281.6 72.7008 281.4 73.4008 281 73.8008C280.6 74.2008 279.9 74.4008 279 74.4008H273.6V65.3008H280.8V67.1008H275.9V68.8008ZM279.3 71.4008C279.3 70.9008 279 70.6008 278.5 70.6008H275.9V72.5008H278.5C279 72.5008 279.3 72.2008 279.3 71.7008V71.4008Z" fill="#4F5253"/>
<path d="M291.701 74.3012H289.401V68.7012L286.301 74.3012H283.801V65.2012H286.101V70.8012L289.201 65.2012H291.701V74.3012Z" fill="#4F5253"/>
<path d="M293.801 72.5012C296.001 72.6012 297.601 72.7012 298.501 72.7012C298.701 72.7012 298.901 72.6012 299.001 72.5012C299.101 72.4012 299.201 72.2012 299.201 72.0012V71.5012C299.201 71.0012 298.901 70.7012 298.401 70.7012H295.301V68.9012H298.101C298.601 68.9012 298.901 68.6012 298.901 68.1012V67.8012C298.901 67.3012 298.601 67.0012 298.101 67.0012H294.001V65.2012H298.801C299.601 65.2012 300.301 65.4012 300.701 65.8012C301.101 66.2012 301.301 66.8012 301.301 67.6012C301.301 68.1012 301.201 68.5012 300.901 68.9012C300.701 69.2012 300.401 69.4012 300.001 69.6012C300.701 69.8012 301.201 70.3012 301.401 71.0012C301.501 71.3012 301.501 71.6012 301.501 71.9012V72.0012C301.501 72.8012 301.301 73.5012 300.901 73.9012C300.501 74.3012 299.901 74.5012 299.001 74.5012C297.601 74.5012 295.801 74.4012 293.801 74.2012V72.5012Z" fill="#4F5253"/>
<path d="M311.499 74.3012H309.199V70.6012H305.999V74.3012H303.699V65.2012H305.999V68.8012H309.199V65.2012H311.499V74.3012Z" fill="#4F5253"/>
<path d="M321.1 74.3012H313.9V65.2012H321.1V67.0012H316.2V68.7012H320V70.5012H316.2V72.4012H321.1V74.3012Z" fill="#4F5253"/>
<path d="M330.4 74.2008C328.5 74.4008 326.9 74.5008 325.6 74.5008C324.8 74.5008 324.1 74.3008 323.7 73.9008C323.3 73.5008 323.1 72.9008 323.1 72.0008V67.9008C323.1 67.0008 323.3 66.3008 323.7 65.9008C324.1 65.5008 324.8 65.3008 325.7 65.3008H330.4V67.1008H326.3C325.8 67.1008 325.5 67.4008 325.5 67.9008V72.0008C325.5 72.2008 325.6 72.4008 325.7 72.5008C325.8 72.6008 326 72.7008 326.1 72.7008C326.3 72.7008 326.5 72.7008 326.7 72.7008C326.9 72.7008 327.1 72.7008 327.4 72.7008C327.6 72.7008 327.9 72.7008 328.1 72.7008C328.3 72.7008 328.6 72.7008 329 72.6008C329.4 72.6008 329.8 72.5008 330.4 72.5008V74.2008Z" fill="#4F5253"/>
<path d="M334.6 74.3012H332.1L335.5 65.2012H338.1L341.5 74.3012H339L338.4 72.7012H335.2L334.6 74.3012ZM335.8 71.0012H337.9L336.9 68.0012L335.8 71.0012Z" fill="#4F5253"/>
<path d="M35 73.9992C18.6 73.9992 5.4 60.6992 5.4 44.2992C5.4 33.7992 10.9 24.4992 19.2 19.1992C7.9 24.0992 0 35.1992 0 48.1992C0 65.5992 14.1 79.6992 31.5 79.6992C45.8 79.6992 58 70.0992 61.8 56.9992C57 67.0992 46.8 73.9992 35 73.9992Z" fill="#EF7726"/>
<path d="M35.1004 18.3008C20.4004 18.3008 8.40039 30.3008 8.40039 45.0008C8.40039 53.0008 11.9004 60.2008 17.5004 65.1008C13.9004 60.5008 11.7004 54.8008 11.7004 48.5008C11.7004 33.8008 23.6004 21.8008 38.4004 21.8008C45.1004 21.8008 51.3004 24.3008 56.0004 28.4008C51.2004 22.3008 43.6004 18.3008 35.1004 18.3008Z" fill="#EF7726"/>
<path d="M48.1992 38.6H56.3992C53.6992 30.1 45.7992 24 36.4992 24C24.9992 24 15.6992 33.3 15.6992 44.8C15.6992 45.6 15.6992 46.4 15.7992 47.1C16.8992 38 24.3992 30.9 33.5992 30.9C39.5992 30.9 44.8992 33.9 48.1992 38.6Z" fill="#EF7726"/>
<path d="M56.4 40.6992V62.1992C54.5 64.5992 52.1 66.6992 49.5 68.2992V40.6992H56.4Z" fill="#EF7726"/>
<path d="M46.4 45.8008V70.0008C44.2 71.0008 41.9 71.7008 39.5 72.1008V45.8008H46.4Z" fill="#EF7726"/>
<path d="M35.9996 53.4004V72.4004C35.6996 72.4004 35.4996 72.4004 35.1996 72.4004C33.0996 72.4004 31.0996 72.2004 29.0996 71.7004V53.4004H35.9996Z" fill="#EF7726"/>
<path d="M25.9996 58.5V70.7C23.4996 69.8 21.1996 68.5 19.0996 67V58.5H25.9996Z" fill="#EF7726"/>
<path d="M58.5 56.7C60.9 54 62.9 51.3 63.5 48.5L64.3 58.4C63.6 57.2 62.8 55.9 62.4 55.1C61.6 55.4 60.2 56.1 58.5 56.7Z" fill="#EF7726"/>
</svg>
