<svg width="340" height="409" viewBox="0 0 340 409" fill="none" xmlns="http://www.w3.org/2000/svg">
<path fill-rule="evenodd" clip-rule="evenodd" d="M272.778 75.2869C298.642 58.9595 317.701 31.7473 319.062 0.453125C334.036 27.6654 342.204 58.9595 339.481 88.8931C338.12 107.942 324.507 121.548 312.255 133.793C248.274 193.66 172.042 239.921 116.229 307.952C94.4481 333.804 79.4738 373.262 102.616 403.195L100.894 408.637C86.1518 408.637 72.6674 408.637 59.0544 408.637C27.7446 388.228 3.24124 354.213 0.518651 316.116C-3.56524 275.297 16.8542 235.839 48.164 209.988C116.229 154.203 200.629 122.908 272.778 75.2869Z" fill="#486E81"/>
<path fill-rule="evenodd" clip-rule="evenodd" d="M183.295 33.623C190.076 54.1062 199.57 78.6859 184.651 97.8035C169.733 114.19 152.102 126.48 134.472 140.135C95.1414 163.35 54.4551 187.929 23.2622 223.433C13.7688 200.219 15.1249 171.543 34.1119 153.791C70.7296 116.921 122.266 100.535 162.952 70.4927C173.802 62.2994 179.226 47.2785 183.295 33.623Z" fill="#486E81"/>
</svg>
