<svg width="23" height="20" viewBox="0 0 23 20" fill="none" xmlns="http://www.w3.org/2000/svg">
<path d="M17.8827 11.4228C17.6577 11.4228 17.5326 11.4228 17.3993 11.4228C12.1316 11.4228 6.86399 11.4143 1.59633 11.4312C0.62115 11.4312 0.129391 10.8166 0.0210374 10.2358C-0.120656 9.44444 0.471122 8.65311 1.26294 8.59418C1.42963 8.57734 1.59633 8.58576 1.76303 8.58576C6.98901 8.58576 12.2067 8.58576 17.4326 8.58576C17.5493 8.58576 17.6743 8.58576 17.8744 8.58576C17.7327 8.43423 17.6493 8.34163 17.566 8.25745C15.674 6.37172 13.7819 4.47759 11.8816 2.59186C11.4648 2.17936 11.2315 1.71635 11.3648 1.11864C11.5899 0.108436 12.7568 -0.32932 13.5736 0.276804C13.6986 0.369407 13.807 0.478846 13.9236 0.588285C16.6742 3.32426 19.4163 6.06866 22.1585 8.80464C22.9587 9.60439 22.9587 10.3873 22.1585 11.187C19.3997 13.9399 16.6325 16.6927 13.8736 19.4455C13.2318 20.0853 12.49 20.1779 11.8733 19.6896C11.2481 19.2014 11.1398 18.309 11.6315 17.6861C11.7316 17.5598 11.8399 17.4503 11.9483 17.3409C13.8236 15.4636 15.7073 13.5947 17.5827 11.7258C17.666 11.6501 17.741 11.5743 17.8827 11.4228Z" fill="#FF7316"/>
</svg>
