<svg width="28" height="30" viewBox="0 0 28 30" fill="none" xmlns="http://www.w3.org/2000/svg">
<path d="M27.8199 9.73968C27.6183 5.41761 24.3936 1.47623 20.1835 0.356522C18.2576 -0.158544 16.2869 0.0430038 14.3386 0.0206096C13.0845 0.0206096 11.8304 -0.0241787 10.5764 0.0206096C5.44809 0.222157 0.991648 4.70099 0.812495 9.80687C0.767706 11.4864 0.767706 13.166 0.7901 14.8456C0.834889 19.0109 2.67121 22.1685 6.29907 24.2511C6.65738 24.4527 6.79174 24.6766 6.79174 25.1021C6.76935 26.3786 6.76935 27.6774 6.76935 28.9539C6.76935 29.3122 6.63498 29.7825 7.12765 29.9616C7.57554 30.1184 7.79948 29.7601 8.04581 29.5137C9.21031 28.3492 10.3972 27.1848 11.5393 25.9979C11.8976 25.6619 12.2335 25.5276 12.7262 25.5276C14.2266 25.55 15.7494 25.5724 17.2498 25.55C23.0947 25.4828 27.6407 21.0935 27.8423 15.271C27.9095 13.4347 27.8871 11.576 27.8199 9.73968ZM14.7417 6.62689C14.8089 5.95507 15.3911 6.17901 15.7494 6.11183C17.9888 6.2014 19.5788 7.3883 20.273 9.44856C20.497 10.0756 20.7433 10.6802 20.6761 11.3745C20.6537 11.7552 20.5642 12.0911 20.1387 12.0911C20.0267 12.0911 19.9371 12.0687 19.8699 12.0463C19.6908 11.9343 19.6684 11.688 19.6684 11.4192C19.6012 9.6949 19.0414 8.48561 17.944 7.81378C17.2946 7.41069 16.4436 7.18675 15.3911 7.11956C15.1672 7.09717 14.9432 7.07478 14.8313 6.96281C14.7417 6.89562 14.7193 6.78365 14.7417 6.62689ZM17.6977 11.0162C17.5409 9.91884 16.9139 9.26941 15.7942 9.13504C15.4583 9.09025 15.1672 8.95589 15.212 8.57519C15.2567 8.19449 15.5703 8.1273 15.8838 8.1273C17.2722 8.1497 18.6159 9.47095 18.6607 10.8818C18.6607 10.9714 18.6607 11.0385 18.6607 11.1281C18.6607 11.1505 18.6607 11.1505 18.6607 11.1729C18.6607 11.1953 18.6607 11.2177 18.6607 11.2401C18.6607 11.2849 18.6383 11.3073 18.6383 11.3297C18.5935 11.4192 18.5263 11.4864 18.4367 11.5312C18.4367 11.5312 18.4143 11.5312 18.4143 11.5536C18.3919 11.5536 18.3919 11.5536 18.3695 11.576C18.3471 11.576 18.3023 11.5984 18.2576 11.5984C18.2128 11.5984 18.168 11.5984 18.1456 11.5984C17.8321 11.576 17.7201 11.3297 17.6977 11.0162ZM18.3471 21.743C18.3023 21.743 18.2576 21.743 18.2352 21.743C16.69 21.743 15.4583 21.1159 14.2938 20.3993C11.1362 18.451 8.62806 15.8533 6.88132 12.5613C6.65737 12.1359 6.47822 11.688 6.32146 11.2401C5.49288 8.82152 6.05273 7.27632 8.24736 5.97746C8.62806 5.75352 9.03116 5.68634 9.38947 5.77591C9.61341 5.8431 9.81495 5.95507 10.0165 6.11183C10.8451 6.85083 11.6513 7.65703 12.3903 8.48561C13.0845 9.26941 12.8158 10.3219 11.8752 10.8146C10.6659 11.464 10.4644 12.0239 11.0466 13.2556C11.7409 14.7336 12.8158 15.8309 14.2714 16.5475C14.6073 16.7267 14.9208 16.8162 15.212 16.8162C15.8166 16.8386 16.2869 16.5027 16.6676 15.7861C17.0035 15.1815 17.4738 14.868 17.9664 14.8456C18.3471 14.8456 18.7502 15.0023 19.1309 15.383C19.8699 16.0772 20.5642 16.7939 21.2584 17.5329C21.7958 18.0703 21.9078 18.7645 21.4823 19.3692C20.9001 20.1978 20.1611 20.892 19.3325 21.4742C19.2429 21.5414 19.1533 21.5862 19.0637 21.631C18.8174 21.7206 18.5711 21.743 18.3471 21.743ZM22.5572 12.4718C22.5125 12.8301 22.3781 13.166 21.9302 13.0764C21.7734 13.054 21.6839 12.9868 21.6391 12.8973C21.5495 12.7405 21.5719 12.5166 21.6167 12.2926C21.9974 10.1204 21.3927 8.23927 19.7804 6.73886L19.758 6.71647C18.5935 5.61915 17.1826 5.12648 15.5927 5.10409C15.3463 5.10409 15.0328 5.14888 14.8536 4.99212C14.7865 4.92493 14.7417 4.81296 14.7417 4.63381C14.7417 4.07396 15.2343 4.14114 15.615 4.11874C16.7348 4.09635 17.8097 4.34269 18.7502 4.79057C21.1016 5.93267 22.7364 8.37364 22.7588 11.1729C22.6916 11.5984 22.6468 12.0463 22.5572 12.4718Z" fill="#FF7316"/>
</svg>
