<svg width="30" height="30" viewBox="0 0 30 30" fill="none" xmlns="http://www.w3.org/2000/svg">
<path d="M25.6289 4.35938L25.6465 4.3125C22.7988 1.55859 19.0488 0 15.0586 0C3.5918 0 -3.60352 12.416 2.12109 22.2949L0 30L7.91602 27.9375C11.3672 29.8008 14.1914 29.6367 15.0586 29.748C28.3535 29.7422 34.9687 13.6641 25.6289 4.35938ZM15.082 27.1875H15.0762H15.0586C11.0801 27.1875 8.53711 25.3066 8.29101 25.1953L3.60352 26.4141L4.85742 21.8555L4.55859 21.3867C3.32227 19.418 2.66602 17.1504 2.66602 14.8125C2.66016 3.82031 16.0957 -1.67578 23.8652 6.09375C31.6172 13.7812 26.1738 27.1875 15.082 27.1875Z" fill="#FF7316"/>
<path d="M21.8847 17.8834L21.873 17.9772C21.498 17.7897 19.664 16.8932 19.3241 16.7701C18.5565 16.4889 18.7733 16.7233 17.3026 18.4108C17.0858 18.6568 16.869 18.6744 16.494 18.5045C16.119 18.317 14.9179 17.9244 13.4882 16.6471C12.3808 15.651 11.6308 14.4322 11.414 14.0572C11.0448 13.4244 11.8124 13.3365 12.5097 12.0123C12.6327 11.7486 12.5683 11.5436 12.4804 11.3561C12.3866 11.1686 11.6425 9.32872 11.3261 8.5963C11.0273 7.87559 10.7226 7.96934 10.4882 7.96934C9.76749 7.90489 9.24014 7.91661 8.77725 8.39708C6.76163 10.6119 7.27139 12.9029 8.99405 15.3346C12.3866 19.776 14.1913 20.5904 17.5019 21.7272C18.3925 22.0084 19.2069 21.9732 19.8515 21.8795C20.5663 21.7682 22.0605 20.9772 22.371 20.0982C22.6874 19.2193 22.6874 18.4869 22.5937 18.317C22.5058 18.1471 22.2597 18.0533 21.8847 17.8834Z" fill="#FF7316"/>
</svg>
